<?xml version="1.0" standalone="no"?><!DOCTYPE svg PUBLIC "-//W3C//DTD SVG 1.1//EN" "http://www.w3.org/Graphics/SVG/1.1/DTD/svg11.dtd"><svg height="238" node-id="1" sillyvg="true" template-height="238" template-width="256" version="1.1" viewBox="0 0 256 238" width="256" xmlns="http://www.w3.org/2000/svg" xmlns:xlink="http://www.w3.org/1999/xlink"><defs node-id="436"></defs><g node-id="961"><g node-id="969"><g node-id="997"><path d="M 249.91 110.33 C 249.91 70.43 217.48 38.09 177.49 38.09 C 176.87 38.09 176.25 38.12 175.64 38.13 C 163.01 16.96 139.86 2.77 113.37 2.77 C 73.37 2.77 40.94 35.12 40.94 75.02 C 40.94 75.54 40.97 76.05 40.98 76.57 C 40.98 98.17 4.34 112.46 4.34 139.37 C 4.34 179.27 36.77 211.61 76.77 211.61 C 79.04 211.61 81.29 211.49 83.51 211.29 C 112.85 211.29 116.89 237.58 139.39 237.58 C 176.37 237.58 206.83 209.94 211.24 174.25 C 221.43 149.34 249.91 138.07 249.91 110.33 Z" fill="#bddbff" fill-opacity="0.39" fill-rule="nonzero" group-id="1,9,37" node-id="441" stroke="none" target-height="234.81" target-width="245.57" target-x="4.34" target-y="2.77"></path></g></g></g><g node-id="962"><g node-id="970"><path d="M 1.56 116.29 L 66.56 116.29 L 66.56 158.29 L 1.56 158.29 Z" fill="#ffffff" fill-rule="nonzero" group-id="2,10" node-id="450" stroke="none" target-height="41.999992" target-width="65" target-x="1.56" target-y="116.29"></path><path d="M 66.56 159.79 L 1.56 159.79 C 0.73 159.79 0.06 159.12 0.06 158.29 L 0.06 116.29 C 0.06 115.46 0.73 114.79 1.56 114.79 L 66.56 114.79 C 67.39 114.79 68.06 115.46 68.06 116.29 L 68.06 158.29 C 68.06 159.12 67.39 159.79 66.56 159.79 Z M 3.06 156.79 L 65.06 156.79 L 65.06 117.79 L 3.06 117.79 L 3.06 156.79 Z" fill="#ccccde" fill-rule="nonzero" group-id="2,10" node-id="452" stroke="none" target-height="44.999992" target-width="68" target-x="0.06" target-y="114.79"></path></g><path d="M 9.56 125.29 L 41.56 125.29 L 41.56 128.29 L 9.56 128.29 Z" fill="#ccccde" fill-rule="nonzero" group-id="2" node-id="455" stroke="none" target-height="2.9999924" target-width="32" target-x="9.56" target-y="125.29"></path><path d="M 9.56 133.29 L 24.56 133.29 L 24.56 136.29 L 9.56 136.29 Z" fill="#ccccde" fill-rule="nonzero" group-id="2" node-id="457" stroke="none" target-height="3" target-width="14.999999" target-x="9.56" target-y="133.29"></path><path d="M 34.06 133.79 L 44.56 133.79 L 44.56 136.79 L 34.06 136.79 Z" fill="#ccccde" fill-rule="nonzero" group-id="2" node-id="459" stroke="none" target-height="3" target-width="10.5" target-x="34.06" target-y="133.79"></path><path d="M 47.56 124.79 L 56.81 124.79 L 56.81 127.79 L 47.56 127.79 Z" fill="#ccccde" fill-rule="nonzero" group-id="2" node-id="461" stroke="none" target-height="3" target-width="9.25" target-x="47.56" target-y="124.79"></path><path d="M 9.56 140.79 L 36.68 140.79 L 36.68 143.79 L 9.56 143.79 Z" fill="#ccccde" fill-rule="nonzero" group-id="2" node-id="463" stroke="none" target-height="3" target-width="27.119999" target-x="9.56" target-y="140.79"></path></g><g node-id="963"><g node-id="971"><path d="M 233.37 219.97 L 198.16 219.97 L 198.16 164.42 L 253.71 164.42 L 253.71 199.62 Z" fill="#fafffa" fill-rule="nonzero" group-id="3,11" node-id="470" stroke="none" target-height="55.550003" target-width="55.550003" target-x="198.16" target-y="164.42"></path><path d="M 233.37 221.47 L 198.16 221.47 C 197.34 221.47 196.66 220.79 196.66 219.97 L 196.66 164.42 C 196.66 163.59 197.34 162.92 198.16 162.92 L 253.71 162.92 C 254.54 162.92 255.21 163.59 255.21 164.42 L 255.21 199.62 C 255.21 200.02 255.05 200.40 254.77 200.69 L 234.43 221.03 C 234.15 221.31 233.76 221.47 233.37 221.47 Z M 199.66 218.47 L 232.75 218.47 L 252.21 199.00 L 252.21 165.92 L 199.66 165.92 L 199.66 218.47 Z" fill="#ccccde" fill-rule="nonzero" group-id="3,11" node-id="472" stroke="none" target-height="58.550003" target-width="58.550003" target-x="196.66" target-y="162.92"></path></g><g node-id="972"><path d="M 233.37 219.97 L 233.37 199.62 L 253.71 199.62 Z" fill="#edffeb" fill-rule="nonzero" group-id="3,12" node-id="477" stroke="none" target-height="20.350006" target-width="20.340012" target-x="233.37" target-y="199.62"></path><path d="M 233.37 221.47 C 233.17 221.47 232.98 221.43 232.79 221.35 C 232.23 221.12 231.87 220.57 231.87 219.97 L 231.87 199.62 C 231.87 198.80 232.54 198.12 233.37 198.12 L 253.71 198.12 C 254.31 198.12 254.86 198.49 255.09 199.05 C 255.33 199.61 255.20 200.26 254.77 200.69 L 234.43 221.03 C 234.14 221.31 233.76 221.47 233.37 221.47 Z M 234.87 201.12 L 234.87 216.34 L 250.09 201.12 L 234.87 201.12 Z" fill="#ccccde" fill-rule="nonzero" group-id="3,12" node-id="479" stroke="none" target-height="23.350006" target-width="23.460007" target-x="231.87" target-y="198.12"></path></g></g><g node-id="964"><g node-id="973"><path d="M 182.81 230.34 C 182.81 233.84 182.07 236.70 176.46 236.70 L 72.36 236.80 C 66.75 236.81 66.00 233.95 66.00 230.46 L 66.00 190.64 C 66.00 187.15 66.74 184.29 72.36 184.29 L 176.46 184.18 C 182.07 184.18 182.81 187.04 182.81 190.53 L 182.81 230.34 L 182.81 230.34 Z" fill="#ffffff" fill-rule="nonzero" group-id="4,13" node-id="487" stroke="none" target-height="52.630005" target-width="116.81" target-x="66" target-y="184.18"></path><path d="M 72.34 238.30 C 65.39 238.30 64.50 234.11 64.50 230.46 L 64.50 190.64 C 64.50 186.99 65.39 182.79 72.36 182.79 L 176.46 182.68 C 183.42 182.68 184.31 186.88 184.31 190.53 L 184.31 230.34 C 184.31 234.00 183.42 238.20 176.46 238.20 L 72.34 238.30 Z M 176.47 185.68 L 72.36 185.79 C 67.84 185.79 67.50 187.71 67.50 190.64 L 67.50 230.46 C 67.50 233.38 67.84 235.30 72.34 235.30 L 72.34 236.80 L 72.35 235.30 L 176.46 235.20 C 180.97 235.20 181.31 233.28 181.31 230.34 L 181.31 190.53 C 181.31 187.60 180.98 185.68 176.47 185.68 Z" fill="#6e6e96" fill-rule="nonzero" group-id="4,13" node-id="489" stroke="none" target-height="55.62001" target-width="119.81" target-x="64.5" target-y="182.68"></path></g><g node-id="974"><g node-id="998"><path d="M 100.58 203.79 L 100.58 200.04 C 100.58 199.29 99.88 198.67 99.01 198.67 L 94.44 198.67 C 93.59 198.67 92.88 199.29 92.88 200.04 L 92.88 203.79 C 92.88 204.55 93.58 205.17 94.44 205.17 L 99.02 205.17 C 99.88 205.17 100.58 204.55 100.58 203.79 Z" fill="#6e6e96" fill-opacity="0.2318" fill-rule="nonzero" group-id="4,14,38" node-id="496" stroke="none" target-height="6.5" target-width="7.7000046" target-x="92.88" target-y="198.67"></path><path d="M 99.02 205.67 L 94.44 205.67 C 93.31 205.67 92.38 204.82 92.38 203.79 L 92.38 200.04 C 92.38 199.01 93.31 198.17 94.44 198.17 L 99.01 198.17 C 100.15 198.17 101.08 199.01 101.08 200.04 L 101.08 203.79 C 101.08 204.82 100.15 205.67 99.02 205.67 Z M 94.44 199.17 C 93.87 199.17 93.38 199.57 93.38 200.04 L 93.38 203.79 C 93.38 204.27 93.87 204.67 94.44 204.67 L 99.02 204.67 C 99.59 204.67 100.08 204.27 100.08 203.79 L 100.08 200.04 C 100.08 199.56 99.60 199.17 99.02 199.17 L 94.44 199.17 Z" fill="#ffffff" fill-opacity="0.2318" fill-rule="nonzero" group-id="4,14,38" node-id="498" stroke="none" target-height="7.5" target-width="8.700005" target-x="92.38" target-y="198.17"></path></g><g node-id="999"><path d="M 90.28 203.79 L 90.28 200.04 C 90.28 199.29 89.58 198.67 88.72 198.67 L 84.14 198.67 C 83.29 198.67 82.59 199.29 82.59 200.04 L 82.59 203.79 C 82.59 204.55 83.29 205.17 84.14 205.17 L 88.72 205.17 C 89.58 205.17 90.28 204.55 90.28 203.79 Z" fill="#6e6e96" fill-opacity="0.2318" fill-rule="nonzero" group-id="4,14,39" node-id="503" stroke="none" target-height="6.5" target-width="7.6900024" target-x="82.59" target-y="198.67"></path><path d="M 88.72 205.67 L 84.14 205.67 C 83.01 205.67 82.09 204.82 82.09 203.79 L 82.09 200.04 C 82.09 199.01 83.01 198.17 84.14 198.17 L 88.72 198.17 C 89.86 198.17 90.78 199.01 90.78 200.04 L 90.78 203.79 C 90.78 204.82 89.86 205.67 88.72 205.67 Z M 84.14 199.17 C 83.57 199.17 83.09 199.57 83.09 200.04 L 83.09 203.79 C 83.09 204.27 83.57 204.67 84.14 204.67 L 88.72 204.67 C 89.30 204.67 89.78 204.27 89.78 203.79 L 89.78 200.04 C 89.78 199.57 89.30 199.17 88.72 199.17 L 84.14 199.17 Z" fill="#ffffff" fill-opacity="0.2318" fill-rule="nonzero" group-id="4,14,39" node-id="505" stroke="none" target-height="7.5" target-width="8.690002" target-x="82.09" target-y="198.17"></path></g><g node-id="1000"><path d="M 109.31 205.17 C 110.17 205.17 110.87 204.55 110.87 203.79 L 110.87 200.04 C 110.87 199.29 110.17 198.67 109.31 198.67 L 104.73 198.67 C 103.88 198.67 103.17 199.29 103.17 200.04 L 103.17 203.79 C 103.17 204.55 103.88 205.17 104.73 205.17 L 109.31 205.17 Z" fill="#6e6e96" fill-opacity="0.2318" fill-rule="nonzero" group-id="4,14,40" node-id="510" stroke="none" target-height="6.5" target-width="7.7000046" target-x="103.17" target-y="198.67"></path><path d="M 109.31 205.67 L 104.73 205.67 C 103.60 205.67 102.67 204.82 102.67 203.79 L 102.67 200.04 C 102.67 199.01 103.60 198.17 104.73 198.17 L 109.31 198.17 C 110.45 198.17 111.37 199.01 111.37 200.04 L 111.37 203.79 C 111.37 204.82 110.45 205.67 109.31 205.67 Z M 104.73 199.17 C 104.16 199.17 103.67 199.57 103.67 200.04 L 103.67 203.79 C 103.67 204.27 104.16 204.67 104.73 204.67 L 109.31 204.67 C 109.89 204.67 110.37 204.27 110.37 203.79 L 110.37 200.04 C 110.37 199.56 109.90 199.17 109.31 199.17 L 104.73 199.17 Z" fill="#ffffff" fill-opacity="0.2318" fill-rule="nonzero" group-id="4,14,40" node-id="512" stroke="none" target-height="7.5" target-width="8.700005" target-x="102.67" target-y="198.17"></path></g><g node-id="1001"><path d="M 140.19 205.17 C 141.04 205.17 141.75 204.55 141.75 203.79 L 141.75 200.04 C 141.75 199.29 141.05 198.67 140.19 198.67 L 135.61 198.67 C 134.75 198.67 134.05 199.29 134.05 200.04 L 134.05 203.79 C 134.05 204.55 134.75 205.17 135.61 205.17 L 140.19 205.17 Z" fill="#6e6e96" fill-opacity="0.2318" fill-rule="nonzero" group-id="4,14,41" node-id="517" stroke="none" target-height="6.5" target-width="7.699997" target-x="134.05" target-y="198.67"></path><path d="M 140.19 205.67 L 135.61 205.67 C 134.47 205.67 133.55 204.82 133.55 203.79 L 133.55 200.04 C 133.55 199.01 134.47 198.17 135.61 198.17 L 140.19 198.17 C 141.32 198.17 142.25 199.01 142.25 200.04 L 142.25 203.79 C 142.25 204.82 141.32 205.67 140.19 205.67 Z M 135.61 199.17 C 135.04 199.17 134.55 199.57 134.55 200.04 L 134.55 203.79 C 134.55 204.27 135.03 204.67 135.61 204.67 L 140.19 204.67 C 140.76 204.67 141.25 204.27 141.25 203.79 L 141.25 200.04 C 141.25 199.57 140.76 199.17 140.19 199.17 L 135.61 199.17 Z" fill="#ffffff" fill-opacity="0.2318" fill-rule="nonzero" group-id="4,14,41" node-id="519" stroke="none" target-height="7.5" target-width="8.699997" target-x="133.55" target-y="198.17"></path></g><g node-id="1002"><path d="M 119.60 205.17 C 120.46 205.17 121.17 204.55 121.17 203.79 L 121.17 200.04 C 121.17 199.29 120.46 198.67 119.60 198.67 L 115.03 198.67 C 114.17 198.67 113.47 199.29 113.47 200.04 L 113.47 203.79 C 113.47 204.55 114.17 205.17 115.03 205.17 L 119.60 205.17 Z" fill="#6e6e96" fill-opacity="0.2318" fill-rule="nonzero" group-id="4,14,42" node-id="524" stroke="none" target-height="6.5" target-width="7.699997" target-x="113.47" target-y="198.67"></path><path d="M 119.60 205.67 L 115.03 205.67 C 113.89 205.67 112.97 204.82 112.97 203.79 L 112.97 200.04 C 112.97 199.01 113.89 198.17 115.03 198.17 L 119.60 198.17 C 120.74 198.17 121.67 199.01 121.67 200.04 L 121.67 203.79 C 121.66 204.82 120.74 205.67 119.60 205.67 Z M 115.03 199.17 C 114.45 199.17 113.97 199.57 113.97 200.04 L 113.97 203.79 C 113.97 204.27 114.45 204.67 115.03 204.67 L 119.60 204.67 C 120.18 204.67 120.67 204.27 120.67 203.79 L 120.67 200.04 C 120.67 199.57 120.18 199.17 119.60 199.17 L 115.03 199.17 Z" fill="#ffffff" fill-opacity="0.2318" fill-rule="nonzero" group-id="4,14,42" node-id="526" stroke="none" target-height="7.5" target-width="8.699997" target-x="112.97" target-y="198.17"></path></g><g node-id="1003"><path d="M 125.32 205.17 L 129.90 205.17 C 130.75 205.17 131.46 204.55 131.46 203.79 L 131.46 200.04 C 131.46 199.29 130.76 198.67 129.90 198.67 L 125.32 198.67 C 124.46 198.67 123.76 199.29 123.76 200.04 L 123.76 203.79 C 123.76 204.55 124.46 205.17 125.32 205.17 Z" fill="#6e6e96" fill-opacity="0.2318" fill-rule="nonzero" group-id="4,14,43" node-id="531" stroke="none" target-height="6.5" target-width="7.7000046" target-x="123.76" target-y="198.67"></path><path d="M 129.90 205.67 L 125.32 205.67 C 124.18 205.67 123.26 204.82 123.26 203.79 L 123.26 200.04 C 123.26 199.01 124.18 198.17 125.32 198.17 L 129.90 198.17 C 131.03 198.17 131.96 199.01 131.96 200.04 L 131.96 203.79 C 131.96 204.82 131.03 205.67 129.90 205.67 Z M 125.32 199.17 C 124.74 199.17 124.26 199.57 124.26 200.04 L 124.26 203.79 C 124.26 204.27 124.74 204.67 125.32 204.67 L 129.90 204.67 C 130.47 204.67 130.96 204.27 130.96 203.79 L 130.96 200.04 C 130.96 199.57 130.47 199.17 129.90 199.17 L 125.32 199.17 Z" fill="#ffffff" fill-opacity="0.2318" fill-rule="nonzero" group-id="4,14,43" node-id="533" stroke="none" target-height="7.5" target-width="8.700005" target-x="123.26" target-y="198.17"></path></g><g node-id="1004"><path d="M 150.48 205.17 C 151.34 205.17 152.04 204.55 152.04 203.79 L 152.04 200.04 C 152.04 199.29 151.34 198.67 150.48 198.67 L 145.90 198.67 C 145.05 198.67 144.35 199.29 144.35 200.04 L 144.35 203.79 C 144.35 204.55 145.04 205.17 145.90 205.17 L 150.48 205.17 Z" fill="#6e6e96" fill-opacity="0.2318" fill-rule="nonzero" group-id="4,14,44" node-id="538" stroke="none" target-height="6.5" target-width="7.689987" target-x="144.35" target-y="198.67"></path><path d="M 150.48 205.67 L 145.90 205.67 C 144.77 205.67 143.85 204.82 143.85 203.79 L 143.85 200.04 C 143.85 199.01 144.77 198.17 145.90 198.17 L 150.48 198.17 C 151.62 198.17 152.54 199.01 152.54 200.04 L 152.54 203.79 C 152.54 204.82 151.62 205.67 150.48 205.67 Z M 145.90 199.17 C 145.33 199.17 144.85 199.57 144.85 200.04 L 144.85 203.79 C 144.85 204.27 145.32 204.67 145.90 204.67 L 150.48 204.67 C 151.06 204.67 151.54 204.27 151.54 203.79 L 151.54 200.04 C 151.54 199.57 151.06 199.17 150.48 199.17 L 145.90 199.17 Z" fill="#ffffff" fill-opacity="0.2318" fill-rule="nonzero" group-id="4,14,44" node-id="540" stroke="none" target-height="7.5" target-width="8.689987" target-x="143.85" target-y="198.17"></path></g><g node-id="1005"><path d="M 154.64 200.04 L 154.64 203.79 C 154.64 204.55 155.34 205.17 156.20 205.17 L 160.78 205.17 C 161.63 205.17 162.34 204.55 162.34 203.79 L 162.34 200.04 C 162.34 199.29 161.63 198.67 160.78 198.67 L 156.20 198.67 C 155.34 198.67 154.64 199.29 154.64 200.04 Z" fill="#6e6e96" fill-opacity="0.2318" fill-rule="nonzero" group-id="4,14,45" node-id="545" stroke="none" target-height="6.5" target-width="7.699997" target-x="154.64" target-y="198.67"></path><path d="M 160.78 205.67 L 156.20 205.67 C 155.06 205.67 154.14 204.82 154.14 203.79 L 154.14 200.04 C 154.14 199.01 155.06 198.17 156.20 198.17 L 160.78 198.17 C 161.91 198.17 162.84 199.01 162.84 200.04 L 162.84 203.79 C 162.84 204.82 161.91 205.67 160.78 205.67 Z M 156.20 199.17 C 155.62 199.17 155.14 199.57 155.14 200.04 L 155.14 203.79 C 155.14 204.27 155.62 204.67 156.20 204.67 L 160.78 204.67 C 161.35 204.67 161.84 204.27 161.84 203.79 L 161.84 200.04 C 161.84 199.57 161.35 199.17 160.78 199.17 L 156.20 199.17 Z" fill="#ffffff" fill-opacity="0.2318" fill-rule="nonzero" group-id="4,14,45" node-id="547" stroke="none" target-height="7.5" target-width="8.699997" target-x="154.14" target-y="198.17"></path></g><g node-id="1006"><path d="M 73.86 205.17 L 78.44 205.17 C 79.29 205.17 80.00 204.55 80.00 203.79 L 80.00 200.04 C 80.00 199.29 79.30 198.67 78.44 198.67 L 73.86 198.67 C 73.00 198.67 72.30 199.29 72.30 200.04 L 72.30 203.79 C 72.30 204.55 73.00 205.17 73.86 205.17 Z" fill="#6e6e96" fill-opacity="0.2318" fill-rule="nonzero" group-id="4,14,46" node-id="552" stroke="none" target-height="6.5" target-width="7.699997" target-x="72.3" target-y="198.67"></path><path d="M 78.44 205.67 L 73.86 205.67 C 72.72 205.67 71.80 204.82 71.80 203.79 L 71.80 200.04 C 71.80 199.01 72.72 198.17 73.86 198.17 L 78.44 198.17 C 79.57 198.17 80.50 199.01 80.50 200.04 L 80.50 203.79 C 80.50 204.82 79.57 205.67 78.44 205.67 Z M 73.86 199.17 C 73.28 199.17 72.80 199.57 72.80 200.04 L 72.80 203.79 C 72.80 204.27 73.28 204.67 73.86 204.67 L 78.44 204.67 C 79.01 204.67 79.50 204.27 79.50 203.79 L 79.50 200.04 C 79.50 199.56 79.02 199.17 78.44 199.17 L 73.86 199.17 Z" fill="#ffffff" fill-opacity="0.2318" fill-rule="nonzero" group-id="4,14,46" node-id="554" stroke="none" target-height="7.5" target-width="8.699997" target-x="71.8" target-y="198.17"></path></g><g node-id="1007"><path d="M 174.96 198.67 L 166.48 198.67 C 165.63 198.67 164.93 199.29 164.93 200.04 L 164.93 203.79 C 164.93 204.55 165.63 205.17 166.48 205.17 L 174.96 205.17 C 175.81 205.17 176.52 204.55 176.52 203.79 L 176.52 200.04 C 176.52 199.29 175.82 198.67 174.96 198.67 Z" fill="#6e6e96" fill-opacity="0.2318" fill-rule="nonzero" group-id="4,14,47" node-id="559" stroke="none" target-height="6.5" target-width="11.590012" target-x="164.93" target-y="198.67"></path><path d="M 174.96 205.67 L 166.48 205.67 C 165.35 205.67 164.43 204.82 164.43 203.79 L 164.43 200.04 C 164.43 199.01 165.35 198.17 166.48 198.17 L 174.96 198.17 C 176.09 198.17 177.01 199.01 177.02 200.04 L 177.02 203.79 C 177.02 204.82 176.09 205.67 174.96 205.67 Z M 166.48 199.17 C 165.91 199.17 165.43 199.57 165.43 200.04 L 165.43 203.79 C 165.43 204.27 165.91 204.67 166.48 204.67 L 174.96 204.67 C 175.53 204.67 176.02 204.27 176.02 203.79 L 176.02 200.04 C 176.02 199.56 175.54 199.17 174.96 199.17 L 166.48 199.17 Z" fill="#ffffff" fill-opacity="0.2318" fill-rule="nonzero" group-id="4,14,47" node-id="561" stroke="none" target-height="7.5" target-width="12.590012" target-x="164.43" target-y="198.17"></path></g><g node-id="1008"><path d="M 143.06 211.77 L 143.06 208.03 C 143.06 207.27 142.35 206.65 141.50 206.65 L 137.30 206.65 C 136.44 206.65 135.74 207.27 135.74 208.03 L 135.74 211.77 C 135.74 212.53 136.44 213.15 137.30 213.15 L 141.50 213.15 C 142.35 213.15 143.06 212.53 143.06 211.77 Z" fill="#6e6e96" fill-opacity="0.2318" fill-rule="nonzero" group-id="4,14,48" node-id="566" stroke="none" target-height="6.5" target-width="7.319992" target-x="135.74" target-y="206.65"></path><path d="M 141.50 213.65 L 137.30 213.65 C 136.16 213.65 135.24 212.81 135.24 211.77 L 135.24 208.03 C 135.24 206.99 136.16 206.15 137.30 206.15 L 141.50 206.15 C 142.63 206.15 143.56 206.99 143.56 208.03 L 143.56 211.77 C 143.56 212.81 142.63 213.65 141.50 213.65 Z M 137.30 207.15 C 136.72 207.15 136.24 207.55 136.24 208.03 L 136.24 211.77 C 136.24 212.25 136.71 212.65 137.30 212.65 L 141.50 212.65 C 142.07 212.65 142.56 212.25 142.56 211.77 L 142.56 208.03 C 142.56 207.55 142.07 207.15 141.50 207.15 L 137.30 207.15 Z" fill="#ffffff" fill-opacity="0.2318" fill-rule="nonzero" group-id="4,14,48" node-id="568" stroke="none" target-height="7.5" target-width="8.319992" target-x="135.24" target-y="206.15"></path></g><g node-id="1009"><path d="M 124.32 211.77 L 124.32 208.03 C 124.32 207.27 123.62 206.65 122.76 206.65 L 118.56 206.65 C 117.71 206.65 117.00 207.27 117.00 208.03 L 117.00 211.77 C 117.00 212.53 117.70 213.15 118.56 213.15 L 122.76 213.15 C 123.62 213.15 124.32 212.53 124.32 211.77 Z" fill="#6e6e96" fill-opacity="0.2318" fill-rule="nonzero" group-id="4,14,49" node-id="573" stroke="none" target-height="6.5" target-width="7.3199997" target-x="117" target-y="206.65"></path><path d="M 122.76 213.65 L 118.56 213.65 C 117.43 213.65 116.50 212.81 116.50 211.77 L 116.50 208.03 C 116.50 206.99 117.43 206.15 118.56 206.15 L 122.76 206.15 C 123.90 206.15 124.82 206.99 124.82 208.03 L 124.82 211.77 C 124.82 212.81 123.90 213.65 122.76 213.65 Z M 118.56 207.15 C 117.99 207.15 117.50 207.55 117.50 208.03 L 117.50 211.77 C 117.50 212.25 117.99 212.65 118.56 212.65 L 122.76 212.65 C 123.34 212.65 123.82 212.25 123.82 211.77 L 123.82 208.03 C 123.82 207.55 123.34 207.15 122.76 207.15 L 118.56 207.15 Z" fill="#ffffff" fill-opacity="0.2318" fill-rule="nonzero" group-id="4,14,49" node-id="575" stroke="none" target-height="7.5" target-width="8.32" target-x="116.5" target-y="206.15"></path></g><g node-id="1010"><path d="M 133.69 211.77 L 133.69 208.03 C 133.69 207.27 132.99 206.65 132.13 206.65 L 127.93 206.65 C 127.08 206.65 126.37 207.27 126.37 208.03 L 126.37 211.77 C 126.37 212.53 127.08 213.15 127.93 213.15 L 132.13 213.15 C 132.99 213.15 133.69 212.53 133.69 211.77 Z" fill="#6e6e96" fill-opacity="0.2318" fill-rule="nonzero" group-id="4,14,50" node-id="580" stroke="none" target-height="6.5" target-width="7.3199997" target-x="126.37" target-y="206.65"></path><path d="M 132.13 213.65 L 127.93 213.65 C 126.80 213.65 125.87 212.81 125.87 211.77 L 125.87 208.03 C 125.87 206.99 126.80 206.15 127.93 206.15 L 132.13 206.15 C 133.27 206.15 134.19 206.99 134.19 208.03 L 134.19 211.77 C 134.19 212.81 133.27 213.65 132.13 213.65 Z M 127.93 207.15 C 127.36 207.15 126.87 207.55 126.87 208.03 L 126.87 211.77 C 126.87 212.25 127.36 212.65 127.93 212.65 L 132.13 212.65 C 132.71 212.65 133.19 212.25 133.19 211.77 L 133.19 208.03 C 133.19 207.55 132.71 207.15 132.13 207.15 L 127.93 207.15 Z" fill="#ffffff" fill-opacity="0.2318" fill-rule="nonzero" group-id="4,14,50" node-id="582" stroke="none" target-height="7.5" target-width="8.32" target-x="125.87" target-y="206.15"></path></g><g node-id="1011"><path d="M 161.79 211.77 L 161.79 208.03 C 161.79 207.27 161.09 206.65 160.22 206.65 L 156.03 206.65 C 155.17 206.65 154.47 207.27 154.47 208.03 L 154.47 211.77 C 154.47 212.53 155.17 213.15 156.03 213.15 L 160.22 213.15 C 161.09 213.15 161.79 212.53 161.79 211.77 Z" fill="#6e6e96" fill-opacity="0.2318" fill-rule="nonzero" group-id="4,14,51" node-id="587" stroke="none" target-height="6.5" target-width="7.319992" target-x="154.47" target-y="206.65"></path><path d="M 160.22 213.65 L 156.03 213.65 C 154.89 213.65 153.97 212.81 153.97 211.77 L 153.97 208.03 C 153.97 206.99 154.89 206.15 156.03 206.15 L 160.22 206.15 C 161.36 206.15 162.29 206.99 162.29 208.03 L 162.29 211.77 C 162.29 212.81 161.36 213.65 160.22 213.65 Z M 156.03 207.15 C 155.45 207.15 154.97 207.55 154.97 208.03 L 154.97 211.77 C 154.97 212.25 155.45 212.65 156.03 212.65 L 160.22 212.65 C 160.80 212.65 161.29 212.25 161.29 211.77 L 161.29 208.03 C 161.29 207.55 160.80 207.15 160.22 207.15 L 156.03 207.15 Z" fill="#ffffff" fill-opacity="0.2318" fill-rule="nonzero" group-id="4,14,51" node-id="589" stroke="none" target-height="7.5" target-width="8.319992" target-x="153.97" target-y="206.15"></path></g><g node-id="1012"><path d="M 90.47 213.15 L 94.67 213.15 C 95.52 213.15 96.23 212.53 96.23 211.77 L 96.23 208.03 C 96.23 207.27 95.53 206.65 94.67 206.65 L 90.47 206.65 C 89.61 206.65 88.91 207.27 88.91 208.03 L 88.91 211.77 C 88.91 212.53 89.61 213.15 90.47 213.15 Z" fill="#6e6e96" fill-opacity="0.2318" fill-rule="nonzero" group-id="4,14,52" node-id="594" stroke="none" target-height="6.5" target-width="7.3199997" target-x="88.91" target-y="206.65"></path><path d="M 94.67 213.65 L 90.47 213.65 C 89.33 213.65 88.41 212.81 88.41 211.77 L 88.41 208.03 C 88.41 206.99 89.33 206.15 90.47 206.15 L 94.67 206.15 C 95.80 206.15 96.73 206.99 96.73 208.03 L 96.73 211.77 C 96.73 212.81 95.80 213.65 94.67 213.65 Z M 90.47 207.15 C 89.89 207.15 89.41 207.55 89.41 208.03 L 89.41 211.77 C 89.41 212.25 89.89 212.65 90.47 212.65 L 94.67 212.65 C 95.24 212.65 95.73 212.25 95.73 211.77 L 95.73 208.03 C 95.73 207.55 95.24 207.15 94.67 207.15 L 90.47 207.15 Z" fill="#ffffff" fill-opacity="0.2318" fill-rule="nonzero" group-id="4,14,52" node-id="596" stroke="none" target-height="7.5" target-width="8.32" target-x="88.41" target-y="206.15"></path></g><g node-id="1013"><path d="M 99.83 213.15 L 104.03 213.15 C 104.89 213.15 105.59 212.53 105.59 211.77 L 105.59 208.03 C 105.59 207.27 104.89 206.65 104.03 206.65 L 99.83 206.65 C 98.98 206.65 98.27 207.27 98.27 208.03 L 98.27 211.77 C 98.28 212.53 98.98 213.15 99.83 213.15 Z" fill="#6e6e96" fill-opacity="0.2318" fill-rule="nonzero" group-id="4,14,53" node-id="601" stroke="none" target-height="6.5" target-width="7.3199997" target-x="98.27" target-y="206.65"></path><path d="M 104.03 213.65 L 99.83 213.65 C 98.70 213.65 97.78 212.81 97.77 211.77 L 97.77 208.03 C 97.77 206.99 98.70 206.15 99.83 206.15 L 104.03 206.15 C 105.17 206.15 106.09 206.99 106.09 208.03 L 106.09 211.77 C 106.09 212.81 105.17 213.65 104.03 213.65 Z M 99.83 207.15 C 99.26 207.15 98.77 207.55 98.77 208.03 L 98.77 211.77 C 98.78 212.25 99.25 212.65 99.83 212.65 L 104.03 212.65 C 104.61 212.65 105.09 212.25 105.09 211.77 L 105.09 208.03 C 105.09 207.55 104.61 207.15 104.03 207.15 L 99.83 207.15 Z" fill="#ffffff" fill-opacity="0.2318" fill-rule="nonzero" group-id="4,14,53" node-id="603" stroke="none" target-height="7.5" target-width="8.32" target-x="97.77" target-y="206.15"></path></g><g node-id="1014"><path d="M 146.66 213.15 L 150.86 213.15 C 151.72 213.15 152.42 212.53 152.42 211.77 L 152.42 208.03 C 152.42 207.27 151.72 206.65 150.86 206.65 L 146.66 206.65 C 145.81 206.65 145.10 207.27 145.10 208.03 L 145.10 211.77 C 145.11 212.53 145.81 213.15 146.66 213.15 Z" fill="#6e6e96" fill-opacity="0.2318" fill-rule="nonzero" group-id="4,14,54" node-id="608" stroke="none" target-height="6.5" target-width="7.319992" target-x="145.1" target-y="206.65"></path><path d="M 150.86 213.65 L 146.66 213.65 C 145.53 213.65 144.61 212.81 144.60 211.77 L 144.60 208.03 C 144.60 206.99 145.53 206.15 146.66 206.15 L 150.86 206.15 C 152.00 206.15 152.92 206.99 152.92 208.03 L 152.92 211.77 C 152.92 212.81 152.00 213.65 150.86 213.65 Z M 146.66 207.15 C 146.09 207.15 145.60 207.55 145.60 208.03 L 145.60 211.77 C 145.60 212.25 146.09 212.65 146.66 212.65 L 150.86 212.65 C 151.43 212.65 151.92 212.25 151.92 211.77 L 151.92 208.03 C 151.92 207.55 151.44 207.15 150.86 207.15 L 146.66 207.15 Z" fill="#ffffff" fill-opacity="0.2318" fill-rule="nonzero" group-id="4,14,54" node-id="610" stroke="none" target-height="7.5" target-width="8.319992" target-x="144.6" target-y="206.15"></path></g><g node-id="1015"><path d="M 114.96 211.77 L 114.96 208.03 C 114.96 207.27 114.26 206.65 113.39 206.65 L 109.20 206.65 C 108.34 206.65 107.64 207.27 107.64 208.03 L 107.64 211.77 C 107.64 212.53 108.34 213.15 109.20 213.15 L 113.40 213.15 C 114.26 213.15 114.96 212.53 114.96 211.77 Z" fill="#6e6e96" fill-opacity="0.2318" fill-rule="nonzero" group-id="4,14,55" node-id="615" stroke="none" target-height="6.5" target-width="7.3199997" target-x="107.64" target-y="206.65"></path><path d="M 113.40 213.65 L 109.20 213.65 C 108.06 213.65 107.14 212.81 107.14 211.77 L 107.14 208.03 C 107.14 206.99 108.06 206.15 109.20 206.15 L 113.39 206.15 C 114.53 206.15 115.46 206.99 115.46 208.03 L 115.46 211.77 C 115.46 212.81 114.53 213.65 113.40 213.65 Z M 109.20 207.15 C 108.62 207.15 108.14 207.55 108.14 208.03 L 108.14 211.77 C 108.14 212.25 108.61 212.65 109.20 212.65 L 113.40 212.65 C 113.97 212.65 114.46 212.25 114.46 211.77 L 114.46 208.03 C 114.46 207.54 113.98 207.15 113.39 207.15 L 109.20 207.15 Z" fill="#ffffff" fill-opacity="0.2318" fill-rule="nonzero" group-id="4,14,55" node-id="617" stroke="none" target-height="7.5" target-width="8.32" target-x="107.14" target-y="206.15"></path></g><g node-id="1016"><path d="M 72.30 211.77 C 72.30 212.53 73.00 213.15 73.86 213.15 L 85.21 213.15 C 86.07 213.15 86.77 212.53 86.77 211.77 L 86.77 208.03 C 86.77 207.27 86.07 206.65 85.21 206.65 L 73.86 206.65 C 73.00 206.65 72.30 207.27 72.30 208.03 L 72.30 211.77 Z" fill="#6e6e96" fill-opacity="0.2318" fill-rule="nonzero" group-id="4,14,56" node-id="622" stroke="none" target-height="6.5" target-width="14.469994" target-x="72.3" target-y="206.65"></path><path d="M 85.21 213.65 L 73.86 213.65 C 72.72 213.65 71.80 212.81 71.80 211.77 L 71.80 208.03 C 71.80 206.99 72.72 206.15 73.86 206.15 L 85.21 206.15 C 86.35 206.15 87.27 206.99 87.27 208.03 L 87.27 211.77 C 87.27 212.81 86.35 213.65 85.21 213.65 Z M 73.86 207.15 C 73.28 207.15 72.80 207.55 72.80 208.03 L 72.80 211.77 C 72.80 212.25 73.28 212.65 73.86 212.65 L 85.21 212.65 C 85.78 212.65 86.27 212.25 86.27 211.77 L 86.27 208.03 C 86.27 207.55 85.78 207.15 85.21 207.15 L 73.86 207.15 Z" fill="#ffffff" fill-opacity="0.2318" fill-rule="nonzero" group-id="4,14,56" node-id="624" stroke="none" target-height="7.5" target-width="15.469994" target-x="71.8" target-y="206.15"></path></g><g node-id="1017"><path d="M 174.96 206.65 L 165.42 206.65 C 164.56 206.65 163.86 207.27 163.86 208.03 L 163.86 211.77 C 163.86 212.53 164.56 213.15 165.42 213.15 L 174.96 213.15 C 175.81 213.15 176.52 212.53 176.52 211.77 L 176.52 208.03 C 176.52 207.27 175.82 206.65 174.96 206.65 Z" fill="#6e6e96" fill-opacity="0.2318" fill-rule="nonzero" group-id="4,14,57" node-id="629" stroke="none" target-height="6.5" target-width="12.660004" target-x="163.86" target-y="206.65"></path><path d="M 174.96 213.65 L 165.42 213.65 C 164.28 213.65 163.36 212.81 163.36 211.77 L 163.36 208.03 C 163.36 206.99 164.28 206.15 165.42 206.15 L 174.96 206.15 C 176.09 206.15 177.01 206.99 177.02 208.02 L 177.02 211.77 C 177.02 212.81 176.09 213.65 174.96 213.65 Z M 165.42 207.15 C 164.84 207.15 164.36 207.55 164.36 208.03 L 164.36 211.77 C 164.36 212.25 164.84 212.65 165.42 212.65 L 174.96 212.65 C 175.53 212.65 176.02 212.25 176.02 211.77 L 176.02 208.03 C 176.02 207.55 175.53 207.15 174.96 207.15 L 165.42 207.15 Z" fill="#ffffff" fill-opacity="0.2318" fill-rule="nonzero" group-id="4,14,57" node-id="631" stroke="none" target-height="7.5" target-width="13.660004" target-x="163.36" target-y="206.15"></path></g><g node-id="1018"><path d="M 99.86 214.92 L 95.66 214.92 C 94.80 214.92 94.10 215.54 94.10 216.30 L 94.10 220.05 C 94.10 220.80 94.80 221.42 95.66 221.42 L 99.86 221.42 C 100.71 221.42 101.42 220.80 101.42 220.05 L 101.42 216.30 C 101.42 215.54 100.72 214.92 99.86 214.92 Z" fill="#6e6e96" fill-opacity="0.2318" fill-rule="nonzero" group-id="4,14,58" node-id="636" stroke="none" target-height="6.5" target-width="7.3199997" target-x="94.1" target-y="214.92"></path><path d="M 99.86 221.92 L 95.66 221.92 C 94.52 221.92 93.60 221.08 93.60 220.05 L 93.60 216.30 C 93.60 215.26 94.52 214.42 95.66 214.42 L 99.86 214.42 C 100.99 214.42 101.92 215.26 101.92 216.30 L 101.92 220.05 C 101.92 221.08 101.00 221.92 99.86 221.92 Z M 95.66 215.42 C 95.08 215.42 94.60 215.82 94.60 216.30 L 94.60 220.05 C 94.60 220.52 95.08 220.92 95.66 220.92 L 99.86 220.92 C 100.43 220.92 100.92 220.52 100.92 220.05 L 100.92 216.30 C 100.92 215.82 100.43 215.42 99.86 215.42 L 95.66 215.42 Z" fill="#ffffff" fill-opacity="0.2318" fill-rule="nonzero" group-id="4,14,58" node-id="638" stroke="none" target-height="7.5" target-width="8.32" target-x="93.6" target-y="214.42"></path></g><g node-id="1019"><path d="M 105.03 221.42 L 109.23 221.42 C 110.09 221.42 110.79 220.80 110.79 220.05 L 110.79 216.30 C 110.79 215.54 110.09 214.92 109.23 214.92 L 105.03 214.92 C 104.18 214.92 103.47 215.54 103.47 216.30 L 103.47 220.05 C 103.47 220.80 104.17 221.42 105.03 221.42 Z" fill="#6e6e96" fill-opacity="0.2318" fill-rule="nonzero" group-id="4,14,59" node-id="643" stroke="none" target-height="6.5" target-width="7.3199997" target-x="103.47" target-y="214.92"></path><path d="M 109.23 221.92 L 105.03 221.92 C 103.89 221.92 102.97 221.08 102.97 220.05 L 102.97 216.30 C 102.97 215.26 103.89 214.42 105.03 214.42 L 109.23 214.42 C 110.37 214.42 111.29 215.26 111.29 216.30 L 111.29 220.05 C 111.29 221.08 110.37 221.92 109.23 221.92 Z M 105.03 215.42 C 104.46 215.42 103.97 215.82 103.97 216.30 L 103.97 220.05 C 103.97 220.52 104.46 220.92 105.03 220.92 L 109.23 220.92 C 109.81 220.92 110.29 220.52 110.29 220.05 L 110.29 216.30 C 110.29 215.82 109.81 215.42 109.23 215.42 L 105.03 215.42 Z" fill="#ffffff" fill-opacity="0.2318" fill-rule="nonzero" group-id="4,14,59" node-id="645" stroke="none" target-height="7.5" target-width="8.32" target-x="102.97" target-y="214.42"></path></g><g node-id="1020"><path d="M 151.88 221.42 L 156.08 221.42 C 156.93 221.42 157.63 220.80 157.63 220.05 L 157.63 216.30 C 157.63 215.54 156.93 214.92 156.08 214.92 L 151.88 214.92 C 151.02 214.92 150.31 215.54 150.31 216.30 L 150.31 220.05 C 150.32 220.80 151.02 221.42 151.88 221.42 Z" fill="#6e6e96" fill-opacity="0.2318" fill-rule="nonzero" group-id="4,14,60" node-id="650" stroke="none" target-height="6.5" target-width="7.3200073" target-x="150.31" target-y="214.92"></path><path d="M 156.08 221.92 L 151.88 221.92 C 150.75 221.92 149.82 221.08 149.81 220.05 L 149.81 216.30 C 149.81 215.26 150.74 214.42 151.88 214.42 L 156.08 214.42 C 157.21 214.42 158.13 215.26 158.13 216.30 L 158.13 220.05 C 158.13 221.08 157.21 221.92 156.08 221.92 Z M 151.88 215.42 C 151.30 215.42 150.81 215.82 150.81 216.30 L 150.81 220.05 C 150.82 220.52 151.30 220.92 151.88 220.92 L 156.08 220.92 C 156.65 220.92 157.13 220.52 157.13 220.05 L 157.13 216.30 C 157.13 215.82 156.65 215.42 156.08 215.42 L 151.88 215.42 Z" fill="#ffffff" fill-opacity="0.2318" fill-rule="nonzero" group-id="4,14,60" node-id="652" stroke="none" target-height="7.5" target-width="8.320007" target-x="149.81" target-y="214.42"></path></g><g node-id="1021"><path d="M 114.40 221.42 L 118.60 221.42 C 119.46 221.42 120.16 220.80 120.16 220.05 L 120.16 216.30 C 120.16 215.54 119.46 214.92 118.60 214.92 L 114.40 214.92 C 113.55 214.92 112.84 215.54 112.84 216.30 L 112.84 220.05 C 112.84 220.80 113.54 221.42 114.40 221.42 Z" fill="#6e6e96" fill-opacity="0.2318" fill-rule="nonzero" group-id="4,14,61" node-id="657" stroke="none" target-height="6.5" target-width="7.3200073" target-x="112.84" target-y="214.92"></path><path d="M 118.60 221.92 L 114.40 221.92 C 113.26 221.92 112.34 221.08 112.34 220.05 L 112.34 216.30 C 112.34 215.26 113.26 214.42 114.40 214.42 L 118.60 214.42 C 119.73 214.42 120.66 215.26 120.66 216.30 L 120.66 220.05 C 120.66 221.08 119.73 221.92 118.60 221.92 Z M 114.40 215.42 C 113.83 215.42 113.34 215.82 113.34 216.30 L 113.34 220.05 C 113.34 220.52 113.83 220.92 114.40 220.92 L 118.60 220.92 C 119.17 220.92 119.66 220.52 119.66 220.05 L 119.66 216.30 C 119.66 215.82 119.18 215.42 118.60 215.42 L 114.40 215.42 Z" fill="#ffffff" fill-opacity="0.2318" fill-rule="nonzero" group-id="4,14,61" node-id="659" stroke="none" target-height="7.5" target-width="8.320007" target-x="112.34" target-y="214.42"></path></g><g node-id="1022"><path d="M 148.26 220.05 L 148.26 216.30 C 148.26 215.54 147.56 214.92 146.71 214.92 L 142.51 214.92 C 141.65 214.92 140.95 215.54 140.95 216.30 L 140.95 220.05 C 140.95 220.80 141.65 221.42 142.51 221.42 L 146.71 221.42 C 147.56 221.42 148.26 220.80 148.26 220.05 Z" fill="#6e6e96" fill-opacity="0.2318" fill-rule="nonzero" group-id="4,14,62" node-id="664" stroke="none" target-height="6.5" target-width="7.3099976" target-x="140.95" target-y="214.92"></path><path d="M 146.71 221.92 L 142.51 221.92 C 141.37 221.92 140.45 221.08 140.45 220.05 L 140.45 216.30 C 140.45 215.26 141.37 214.42 142.51 214.42 L 146.71 214.42 C 147.84 214.42 148.76 215.26 148.76 216.30 L 148.76 220.05 C 148.76 221.08 147.84 221.92 146.71 221.92 Z M 142.51 215.42 C 141.93 215.42 141.45 215.82 141.45 216.30 L 141.45 220.05 C 141.45 220.53 141.92 220.92 142.51 220.92 L 146.71 220.92 C 147.28 220.92 147.76 220.52 147.76 220.05 L 147.76 216.30 C 147.76 215.82 147.28 215.42 146.71 215.42 L 142.51 215.42 Z" fill="#ffffff" fill-opacity="0.2318" fill-rule="nonzero" group-id="4,14,62" node-id="666" stroke="none" target-height="7.5" target-width="8.309998" target-x="140.45" target-y="214.42"></path></g><g node-id="1023"><path d="M 133.14 221.42 L 137.34 221.42 C 138.19 221.42 138.89 220.80 138.89 220.05 L 138.89 216.30 C 138.89 215.54 138.19 214.92 137.34 214.92 L 133.14 214.92 C 132.28 214.92 131.58 215.54 131.58 216.30 L 131.58 220.05 C 131.58 220.80 132.28 221.42 133.14 221.42 Z" fill="#6e6e96" fill-opacity="0.2318" fill-rule="nonzero" group-id="4,14,63" node-id="671" stroke="none" target-height="6.5" target-width="7.3099976" target-x="131.58" target-y="214.92"></path><path d="M 137.34 221.92 L 133.14 221.92 C 132.00 221.92 131.08 221.08 131.08 220.05 L 131.08 216.30 C 131.08 215.26 132.00 214.42 133.14 214.42 L 137.34 214.42 C 138.47 214.42 139.39 215.26 139.39 216.30 L 139.39 220.05 C 139.39 221.08 138.47 221.92 137.34 221.92 Z M 133.14 215.42 C 132.56 215.42 132.08 215.82 132.08 216.30 L 132.08 220.05 C 132.08 220.52 132.56 220.92 133.14 220.92 L 137.34 220.92 C 137.91 220.92 138.39 220.52 138.39 220.05 L 138.39 216.30 C 138.39 215.82 137.91 215.42 137.34 215.42 L 133.14 215.42 Z" fill="#ffffff" fill-opacity="0.2318" fill-rule="nonzero" group-id="4,14,63" node-id="673" stroke="none" target-height="7.5" target-width="8.309998" target-x="131.08" target-y="214.42"></path></g><g node-id="1024"><path d="M 123.77 221.42 L 127.97 221.42 C 128.82 221.42 129.53 220.80 129.53 220.05 L 129.53 216.30 C 129.53 215.54 128.83 214.92 127.97 214.92 L 123.77 214.92 C 122.91 214.92 122.21 215.54 122.21 216.30 L 122.21 220.05 C 122.21 220.80 122.91 221.42 123.77 221.42 Z" fill="#6e6e96" fill-opacity="0.2318" fill-rule="nonzero" group-id="4,14,64" node-id="678" stroke="none" target-height="6.5" target-width="7.3199997" target-x="122.21" target-y="214.92"></path><path d="M 127.97 221.92 L 123.77 221.92 C 122.63 221.92 121.71 221.08 121.71 220.05 L 121.71 216.30 C 121.71 215.26 122.63 214.42 123.77 214.42 L 127.97 214.42 C 129.10 214.42 130.03 215.26 130.03 216.30 L 130.03 220.05 C 130.03 221.08 129.10 221.92 127.97 221.92 Z M 123.77 215.42 C 123.19 215.42 122.71 215.82 122.71 216.30 L 122.71 220.05 C 122.71 220.52 123.19 220.92 123.77 220.92 L 127.97 220.92 C 128.54 220.92 129.03 220.52 129.03 220.05 L 129.03 216.30 C 129.03 215.82 128.55 215.42 127.97 215.42 L 123.77 215.42 Z" fill="#ffffff" fill-opacity="0.2318" fill-rule="nonzero" group-id="4,14,64" node-id="680" stroke="none" target-height="7.5" target-width="8.32" target-x="121.71" target-y="214.42"></path></g><g node-id="1025"><path d="M 92.22 216.30 C 92.22 215.54 91.52 214.92 90.66 214.92 L 73.86 214.92 C 73.00 214.92 72.30 215.54 72.30 216.30 L 72.30 220.05 C 72.30 220.80 73.00 221.42 73.86 221.42 L 90.67 221.42 C 91.52 221.42 92.23 220.80 92.23 220.05 L 92.22 216.30 L 92.22 216.30 Z" fill="#6e6e96" fill-opacity="0.2318" fill-rule="nonzero" group-id="4,14,65" node-id="685" stroke="none" target-height="6.5" target-width="19.93" target-x="72.3" target-y="214.92"></path><path d="M 90.67 221.92 L 73.86 221.92 C 72.72 221.92 71.80 221.08 71.80 220.05 L 71.80 216.30 C 71.80 215.26 72.72 214.42 73.86 214.42 L 90.66 214.42 C 91.80 214.42 92.72 215.26 92.72 216.30 L 92.73 220.05 C 92.72 221.08 91.80 221.92 90.67 221.92 Z M 73.86 215.42 C 73.28 215.42 72.80 215.82 72.80 216.30 L 72.80 220.05 C 72.80 220.52 73.28 220.92 73.86 220.92 L 90.67 220.92 C 91.24 220.92 91.73 220.52 91.73 220.05 L 91.72 216.30 C 91.72 215.82 91.24 215.42 90.66 215.42 L 73.86 215.42 Z" fill="#ffffff" fill-opacity="0.2318" fill-rule="nonzero" group-id="4,14,65" node-id="687" stroke="none" target-height="7.5" target-width="20.93" target-x="71.8" target-y="214.42"></path></g><g node-id="1026"><path d="M 174.96 214.92 L 161.40 214.92 C 160.54 214.92 159.84 215.54 159.84 216.30 L 159.84 220.05 C 159.84 220.80 160.54 221.42 161.40 221.42 L 174.96 221.42 C 175.81 221.42 176.52 220.80 176.52 220.05 L 176.52 216.30 C 176.52 215.54 175.82 214.92 174.96 214.92 Z" fill="#6e6e96" fill-opacity="0.2318" fill-rule="nonzero" group-id="4,14,66" node-id="692" stroke="none" target-height="6.5" target-width="16.680008" target-x="159.84" target-y="214.92"></path><path d="M 174.96 221.92 L 161.40 221.92 C 160.26 221.92 159.34 221.08 159.34 220.05 L 159.34 216.30 C 159.34 215.26 160.26 214.42 161.40 214.42 L 174.96 214.42 C 176.09 214.42 177.01 215.26 177.02 216.30 L 177.02 220.05 C 177.02 221.08 176.09 221.92 174.96 221.92 Z M 161.40 215.42 C 160.82 215.42 160.34 215.82 160.34 216.30 L 160.34 220.05 C 160.34 220.52 160.82 220.92 161.40 220.92 L 174.96 220.92 C 175.53 220.92 176.02 220.52 176.02 220.05 L 176.02 216.30 C 176.02 215.82 175.53 215.42 174.96 215.42 L 161.40 215.42 Z" fill="#ffffff" fill-opacity="0.2318" fill-rule="nonzero" group-id="4,14,66" node-id="694" stroke="none" target-height="7.5" target-width="17.680008" target-x="159.34" target-y="214.42"></path></g><g node-id="1027"><path d="M 78.44 223.69 L 73.86 223.69 C 73.00 223.69 72.30 224.31 72.30 225.07 L 72.30 228.81 C 72.30 229.57 73.00 230.19 73.86 230.19 L 78.44 230.19 C 79.29 230.19 80.00 229.57 80.00 228.81 L 80.00 225.07 C 79.99 224.31 79.29 223.69 78.44 223.69 Z" fill="#6e6e96" fill-opacity="0.2318" fill-rule="nonzero" group-id="4,14,67" node-id="699" stroke="none" target-height="6.5" target-width="7.699997" target-x="72.3" target-y="223.69"></path><path d="M 78.44 230.69 L 73.86 230.69 C 72.72 230.69 71.80 229.85 71.80 228.81 L 71.80 225.07 C 71.80 224.03 72.72 223.19 73.86 223.19 L 78.44 223.19 C 79.57 223.19 80.49 224.03 80.50 225.06 L 80.50 228.81 C 80.50 229.85 79.57 230.69 78.44 230.69 Z M 73.86 224.19 C 73.28 224.19 72.80 224.59 72.80 225.07 L 72.80 228.81 C 72.80 229.29 73.28 229.69 73.86 229.69 L 78.44 229.69 C 79.01 229.69 79.50 229.29 79.50 228.81 L 79.50 225.07 C 79.49 224.59 79.02 224.19 78.44 224.19 L 73.86 224.19 Z" fill="#ffffff" fill-opacity="0.2318" fill-rule="nonzero" group-id="4,14,67" node-id="701" stroke="none" target-height="7.5" target-width="8.699997" target-x="71.8" target-y="223.19"></path></g><g node-id="1028"><path d="M 88.47 223.69 L 83.89 223.69 C 83.03 223.69 82.33 224.31 82.33 225.07 L 82.33 228.81 C 82.33 229.57 83.03 230.19 83.89 230.19 L 88.47 230.19 C 89.32 230.19 90.02 229.57 90.02 228.81 L 90.02 225.07 C 90.03 224.31 89.32 223.69 88.47 223.69 Z" fill="#6e6e96" fill-opacity="0.2318" fill-rule="nonzero" group-id="4,14,68" node-id="706" stroke="none" target-height="6.5" target-width="7.699997" target-x="82.33" target-y="223.69"></path><path d="M 88.47 230.69 L 83.89 230.69 C 82.75 230.69 81.83 229.85 81.83 228.81 L 81.83 225.07 C 81.83 224.03 82.75 223.19 83.89 223.19 L 88.47 223.19 C 89.04 223.19 89.60 223.41 89.99 223.80 C 90.33 224.15 90.52 224.60 90.52 225.07 L 90.52 228.81 C 90.52 229.85 89.60 230.69 88.47 230.69 Z M 83.89 224.19 C 83.31 224.19 82.83 224.59 82.83 225.07 L 82.83 228.81 C 82.83 229.30 83.30 229.69 83.89 229.69 L 88.47 229.69 C 89.04 229.69 89.52 229.29 89.52 228.81 L 89.52 225.07 C 89.52 224.87 89.44 224.67 89.28 224.51 C 89.08 224.31 88.78 224.19 88.47 224.19 L 83.89 224.19 Z" fill="#ffffff" fill-opacity="0.2318" fill-rule="nonzero" group-id="4,14,68" node-id="708" stroke="none" target-height="7.5" target-width="8.689995" target-x="81.83" target-y="223.19"></path></g><g node-id="1029"><path d="M 98.20 223.69 L 93.62 223.69 C 92.77 223.69 92.06 224.31 92.06 225.07 L 92.06 228.81 C 92.06 229.57 92.76 230.19 93.62 230.19 L 98.20 230.19 C 99.05 230.19 99.76 229.57 99.76 228.81 L 99.76 225.07 C 99.76 224.31 99.06 223.69 98.20 223.69 Z" fill="#6e6e96" fill-opacity="0.2318" fill-rule="nonzero" group-id="4,14,69" node-id="713" stroke="none" target-height="6.5" target-width="7.7000046" target-x="92.06" target-y="223.69"></path><path d="M 98.20 230.69 L 93.62 230.69 C 92.48 230.69 91.56 229.85 91.56 228.81 L 91.56 225.07 C 91.56 224.03 92.48 223.19 93.62 223.19 L 98.20 223.19 C 99.33 223.19 100.26 224.03 100.26 225.07 L 100.26 228.81 C 100.26 229.85 99.34 230.69 98.20 230.69 Z M 93.62 224.19 C 93.05 224.19 92.56 224.59 92.56 225.07 L 92.56 228.81 C 92.56 229.29 93.05 229.69 93.62 229.69 L 98.20 229.69 C 98.77 229.69 99.26 229.29 99.26 228.81 L 99.26 225.07 C 99.26 224.59 98.77 224.19 98.20 224.19 L 93.62 224.19 Z" fill="#ffffff" fill-opacity="0.2318" fill-rule="nonzero" group-id="4,14,69" node-id="715" stroke="none" target-height="7.5" target-width="8.700005" target-x="91.56" target-y="223.19"></path></g><g node-id="1030"><path d="M 140.37 223.69 L 103.75 223.69 C 102.89 223.69 102.19 224.31 102.19 225.07 L 102.19 228.81 C 102.19 229.57 102.89 230.19 103.75 230.19 L 140.37 230.19 C 141.23 230.19 141.93 229.57 141.93 228.81 L 141.93 225.07 C 141.93 224.31 141.23 223.69 140.37 223.69 Z" fill="#6e6e96" fill-opacity="0.2318" fill-rule="nonzero" group-id="4,14,70" node-id="720" stroke="none" target-height="6.5" target-width="39.73999" target-x="102.19" target-y="223.69"></path><path d="M 140.37 230.69 L 103.75 230.69 C 102.61 230.69 101.69 229.85 101.69 228.81 L 101.69 225.07 C 101.69 224.03 102.61 223.19 103.75 223.19 L 140.37 223.19 C 141.51 223.19 142.43 224.03 142.43 225.07 L 142.43 228.81 C 142.43 229.85 141.51 230.69 140.37 230.69 Z M 103.75 224.19 C 103.17 224.19 102.69 224.59 102.69 225.07 L 102.69 228.81 C 102.69 229.29 103.17 229.69 103.75 229.69 L 140.37 229.69 C 140.94 229.69 141.43 229.29 141.43 228.81 L 141.43 225.07 C 141.43 224.59 140.95 224.19 140.37 224.19 L 103.75 224.19 Z" fill="#ffffff" fill-opacity="0.2318" fill-rule="nonzero" group-id="4,14,70" node-id="722" stroke="none" target-height="7.5" target-width="40.73999" target-x="101.69" target-y="223.19"></path></g><g node-id="1031"><path d="M 151.40 223.69 L 145.67 223.69 C 144.82 223.69 144.11 224.31 144.11 225.07 L 144.11 228.81 C 144.11 229.57 144.81 230.19 145.67 230.19 L 151.40 230.19 C 152.26 230.19 152.97 229.57 152.97 228.81 L 152.97 225.07 C 152.96 224.31 152.26 223.69 151.40 223.69 Z" fill="#6e6e96" fill-opacity="0.2318" fill-rule="nonzero" group-id="4,14,71" node-id="727" stroke="none" target-height="6.5" target-width="8.860001" target-x="144.11" target-y="223.69"></path><path d="M 151.40 230.69 L 145.67 230.69 C 144.54 230.69 143.61 229.85 143.61 228.81 L 143.61 225.07 C 143.61 224.03 144.54 223.19 145.67 223.19 L 151.40 223.19 C 152.54 223.19 153.46 224.03 153.47 225.06 L 153.47 228.81 C 153.47 229.85 152.54 230.69 151.40 230.69 Z M 145.67 224.19 C 145.10 224.19 144.61 224.59 144.61 225.07 L 144.61 228.81 C 144.61 229.29 145.10 229.69 145.67 229.69 L 151.40 229.69 C 151.98 229.69 152.47 229.29 152.47 228.81 L 152.47 225.07 C 152.46 224.59 151.99 224.19 151.40 224.19 L 145.67 224.19 Z" fill="#ffffff" fill-opacity="0.2318" fill-rule="nonzero" group-id="4,14,71" node-id="729" stroke="none" target-height="7.5" target-width="9.860001" target-x="143.61" target-y="223.19"></path></g><g node-id="1032"><path d="M 174.96 223.69 L 169.22 223.69 C 168.37 223.69 167.67 224.31 167.67 225.07 L 167.67 228.81 C 167.67 229.57 168.37 230.19 169.22 230.19 L 174.96 230.19 C 175.81 230.19 176.52 229.57 176.52 228.81 L 176.52 225.07 C 176.52 224.31 175.82 223.69 174.96 223.69 Z" fill="#6e6e96" fill-opacity="0.2318" fill-rule="nonzero" group-id="4,14,72" node-id="734" stroke="none" target-height="6.5" target-width="8.850006" target-x="167.67" target-y="223.69"></path><path d="M 174.96 230.69 L 169.22 230.69 C 168.09 230.69 167.17 229.85 167.17 228.81 L 167.17 225.07 C 167.17 224.03 168.09 223.19 169.22 223.19 L 174.96 223.19 C 176.09 223.19 177.01 224.03 177.02 225.07 L 177.02 228.81 C 177.02 229.85 176.09 230.69 174.96 230.69 Z M 169.22 224.19 C 168.65 224.19 168.17 224.59 168.17 225.07 L 168.17 228.81 C 168.17 229.29 168.65 229.69 169.22 229.69 L 174.96 229.69 C 175.53 229.69 176.02 229.29 176.02 228.81 L 176.02 225.07 C 176.02 224.58 175.54 224.19 174.96 224.19 L 169.22 224.19 Z" fill="#ffffff" fill-opacity="0.2318" fill-rule="nonzero" group-id="4,14,72" node-id="736" stroke="none" target-height="7.5" target-width="9.850006" target-x="167.17" target-y="223.19"></path></g><g node-id="1033"><path d="M 89.61 196.47 L 93.81 196.47 C 94.66 196.47 95.36 195.85 95.36 195.09 L 95.36 191.34 C 95.36 190.59 94.67 189.97 93.81 189.97 L 89.61 189.97 C 88.75 189.97 88.05 190.59 88.05 191.34 L 88.05 195.09 C 88.05 195.85 88.75 196.47 89.61 196.47 Z" fill="#6e6e96" fill-opacity="0.2318" fill-rule="nonzero" group-id="4,14,73" node-id="741" stroke="none" target-height="6.5" target-width="7.3099976" target-x="88.05" target-y="189.97"></path><path d="M 93.81 196.97 L 89.61 196.97 C 88.47 196.97 87.55 196.12 87.55 195.09 L 87.55 191.34 C 87.55 190.31 88.47 189.47 89.61 189.47 L 93.81 189.47 C 94.94 189.47 95.86 190.31 95.86 191.34 L 95.86 195.09 C 95.86 196.12 94.94 196.97 93.81 196.97 Z M 89.61 190.47 C 89.03 190.47 88.55 190.87 88.55 191.34 L 88.55 195.09 C 88.55 195.56 89.03 195.97 89.61 195.97 L 93.81 195.97 C 94.38 195.97 94.86 195.56 94.86 195.09 L 94.86 191.34 C 94.86 190.86 94.39 190.47 93.81 190.47 L 89.61 190.47 Z" fill="#ffffff" fill-opacity="0.2318" fill-rule="nonzero" group-id="4,14,73" node-id="743" stroke="none" target-height="7.5" target-width="8.309998" target-x="87.55" target-y="189.47"></path></g><g node-id="1034"><path d="M 119.97 196.47 L 124.16 196.47 C 125.02 196.47 125.72 195.85 125.72 195.09 L 125.72 191.34 C 125.72 190.59 125.02 189.97 124.16 189.97 L 119.97 189.97 C 119.11 189.97 118.41 190.59 118.41 191.34 L 118.41 195.09 C 118.41 195.85 119.11 196.47 119.97 196.47 Z" fill="#6e6e96" fill-opacity="0.2318" fill-rule="nonzero" group-id="4,14,74" node-id="748" stroke="none" target-height="6.5" target-width="7.3099976" target-x="118.41" target-y="189.97"></path><path d="M 124.16 196.97 L 119.97 196.97 C 118.83 196.97 117.91 196.12 117.91 195.09 L 117.91 191.34 C 117.91 190.31 118.83 189.47 119.97 189.47 L 124.16 189.47 C 125.30 189.47 126.22 190.31 126.22 191.34 L 126.22 195.09 C 126.22 196.12 125.30 196.97 124.16 196.97 Z M 119.97 190.47 C 119.38 190.47 118.91 190.86 118.91 191.34 L 118.91 195.09 C 118.91 195.57 119.38 195.97 119.97 195.97 L 124.16 195.97 C 124.74 195.97 125.22 195.56 125.22 195.09 L 125.22 191.34 C 125.22 190.86 124.75 190.47 124.16 190.47 L 119.97 190.47 Z" fill="#ffffff" fill-opacity="0.2318" fill-rule="nonzero" group-id="4,14,74" node-id="750" stroke="none" target-height="7.5" target-width="8.309998" target-x="117.91" target-y="189.47"></path></g><g node-id="1035"><path d="M 170.57 196.47 L 174.77 196.47 C 175.62 196.47 176.33 195.85 176.33 195.09 L 176.33 191.34 C 176.33 190.59 175.63 189.97 174.77 189.97 L 170.57 189.97 C 169.72 189.97 169.01 190.59 169.01 191.34 L 169.01 195.09 C 169.01 195.85 169.71 196.47 170.57 196.47 Z" fill="#6e6e96" fill-opacity="0.2318" fill-rule="nonzero" group-id="4,14,75" node-id="755" stroke="none" target-height="6.5" target-width="7.3200073" target-x="169.01" target-y="189.97"></path><path d="M 174.77 196.97 L 170.57 196.97 C 169.44 196.97 168.51 196.12 168.51 195.09 L 168.51 191.34 C 168.51 190.31 169.44 189.47 170.57 189.47 L 174.77 189.47 C 175.91 189.47 176.83 190.31 176.83 191.34 L 176.83 195.09 C 176.83 196.12 175.91 196.97 174.77 196.97 Z M 170.57 190.47 C 170.00 190.47 169.51 190.87 169.51 191.34 L 169.51 195.09 C 169.51 195.56 170.00 195.97 170.57 195.97 L 174.77 195.97 C 175.34 195.97 175.83 195.56 175.83 195.09 L 175.83 191.34 C 175.83 190.87 175.34 190.47 174.77 190.47 L 170.57 190.47 Z" fill="#ffffff" fill-opacity="0.2318" fill-rule="nonzero" group-id="4,14,75" node-id="757" stroke="none" target-height="7.5" target-width="8.320007" target-x="168.51" target-y="189.47"></path></g><g node-id="1036"><path d="M 130.09 196.47 L 134.29 196.47 C 135.14 196.47 135.84 195.85 135.84 195.09 L 135.84 191.34 C 135.84 190.59 135.14 189.97 134.29 189.97 L 130.09 189.97 C 129.23 189.97 128.53 190.59 128.53 191.34 L 128.53 195.09 C 128.53 195.85 129.23 196.47 130.09 196.47 Z" fill="#6e6e96" fill-opacity="0.2318" fill-rule="nonzero" group-id="4,14,76" node-id="762" stroke="none" target-height="6.5" target-width="7.3099976" target-x="128.53" target-y="189.97"></path><path d="M 134.29 196.97 L 130.09 196.97 C 128.96 196.97 128.03 196.12 128.03 195.09 L 128.03 191.34 C 128.03 190.31 128.95 189.47 130.09 189.47 L 134.29 189.47 C 135.42 189.47 136.34 190.31 136.34 191.34 L 136.34 195.09 C 136.34 196.12 135.42 196.97 134.29 196.97 Z M 130.09 190.47 C 129.51 190.47 129.03 190.87 129.03 191.34 L 129.03 195.09 C 129.03 195.56 129.51 195.97 130.09 195.97 L 134.29 195.97 C 134.86 195.97 135.34 195.56 135.34 195.09 L 135.34 191.34 C 135.34 190.87 134.86 190.47 134.29 190.47 L 130.09 190.47 Z" fill="#ffffff" fill-opacity="0.2318" fill-rule="nonzero" group-id="4,14,76" node-id="764" stroke="none" target-height="7.5" target-width="8.309998" target-x="128.03" target-y="189.47"></path></g><g node-id="1037"><path d="M 109.84 196.47 L 114.04 196.47 C 114.90 196.47 115.60 195.85 115.60 195.09 L 115.60 191.34 C 115.60 190.59 114.90 189.97 114.04 189.97 L 109.84 189.97 C 108.99 189.97 108.29 190.59 108.29 191.34 L 108.29 195.09 C 108.29 195.85 108.99 196.47 109.84 196.47 Z" fill="#6e6e96" fill-opacity="0.2318" fill-rule="nonzero" group-id="4,14,77" node-id="769" stroke="none" target-height="6.5" target-width="7.3099976" target-x="108.29" target-y="189.97"></path><path d="M 114.04 196.97 L 109.84 196.97 C 108.71 196.97 107.79 196.12 107.79 195.09 L 107.79 191.34 C 107.79 190.31 108.71 189.47 109.84 189.47 L 114.04 189.47 C 115.18 189.47 116.10 190.31 116.10 191.34 L 116.10 195.09 C 116.10 196.12 115.18 196.97 114.04 196.97 Z M 109.84 190.47 C 109.27 190.47 108.79 190.87 108.79 191.34 L 108.79 195.09 C 108.79 195.56 109.27 195.97 109.84 195.97 L 114.04 195.97 C 114.62 195.97 115.10 195.56 115.10 195.09 L 115.10 191.34 C 115.10 190.86 114.63 190.47 114.04 190.47 L 109.84 190.47 Z" fill="#ffffff" fill-opacity="0.2318" fill-rule="nonzero" group-id="4,14,77" node-id="771" stroke="none" target-height="7.5" target-width="8.309998" target-x="107.79" target-y="189.47"></path></g><g node-id="1038"><path d="M 160.45 196.47 L 164.64 196.47 C 165.50 196.47 166.21 195.85 166.21 195.09 L 166.21 191.34 C 166.21 190.59 165.50 189.97 164.64 189.97 L 160.45 189.97 C 159.59 189.97 158.89 190.59 158.89 191.34 L 158.89 195.09 C 158.89 195.85 159.59 196.47 160.45 196.47 Z" fill="#6e6e96" fill-opacity="0.2318" fill-rule="nonzero" group-id="4,14,78" node-id="776" stroke="none" target-height="6.5" target-width="7.3200073" target-x="158.89" target-y="189.97"></path><path d="M 164.64 196.97 L 160.45 196.97 C 159.32 196.97 158.39 196.12 158.39 195.09 L 158.39 191.34 C 158.39 190.31 159.31 189.47 160.45 189.47 L 164.64 189.47 C 165.78 189.47 166.71 190.31 166.71 191.34 L 166.71 195.09 C 166.71 196.12 165.78 196.97 164.64 196.97 Z M 160.45 190.47 C 159.87 190.47 159.39 190.87 159.39 191.34 L 159.39 195.09 C 159.39 195.57 159.87 195.97 160.45 195.97 L 164.64 195.97 C 165.22 195.97 165.71 195.56 165.71 195.09 L 165.71 191.34 C 165.71 190.86 165.23 190.47 164.64 190.47 L 160.45 190.47 Z" fill="#ffffff" fill-opacity="0.2318" fill-rule="nonzero" group-id="4,14,78" node-id="778" stroke="none" target-height="7.5" target-width="8.320007" target-x="158.39" target-y="189.47"></path></g><g node-id="1039"><path d="M 140.21 196.47 L 144.40 196.47 C 145.26 196.47 145.96 195.85 145.96 195.09 L 145.96 191.34 C 145.96 190.59 145.26 189.97 144.40 189.97 L 140.21 189.97 C 139.35 189.97 138.65 190.59 138.65 191.34 L 138.65 195.09 C 138.65 195.85 139.35 196.47 140.21 196.47 Z" fill="#6e6e96" fill-opacity="0.2318" fill-rule="nonzero" group-id="4,14,79" node-id="783" stroke="none" target-height="6.5" target-width="7.310013" target-x="138.65" target-y="189.97"></path><path d="M 144.40 196.97 L 140.21 196.97 C 139.08 196.97 138.15 196.12 138.15 195.09 L 138.15 191.34 C 138.15 190.31 139.07 189.47 140.21 189.47 L 144.40 189.47 C 145.54 189.47 146.47 190.31 146.47 191.34 L 146.47 195.09 C 146.47 196.12 145.54 196.97 144.40 196.97 Z M 140.21 190.47 C 139.63 190.47 139.15 190.87 139.15 191.34 L 139.15 195.09 C 139.15 195.56 139.63 195.97 140.21 195.97 L 144.40 195.97 C 144.98 195.97 145.46 195.56 145.46 195.09 L 145.46 191.34 C 145.46 190.86 144.99 190.47 144.40 190.47 L 140.21 190.47 Z" fill="#ffffff" fill-opacity="0.2318" fill-rule="nonzero" group-id="4,14,79" node-id="785" stroke="none" target-height="7.5" target-width="8.320007" target-x="138.15" target-y="189.47"></path></g><g node-id="1040"><path d="M 150.33 196.47 L 154.52 196.47 C 155.38 196.47 156.09 195.85 156.09 195.09 L 156.09 191.34 C 156.09 190.59 155.38 189.97 154.52 189.97 L 150.33 189.97 C 149.47 189.97 148.77 190.59 148.77 191.34 L 148.77 195.09 C 148.77 195.85 149.47 196.47 150.33 196.47 Z" fill="#6e6e96" fill-opacity="0.2318" fill-rule="nonzero" group-id="4,14,80" node-id="790" stroke="none" target-height="6.5" target-width="7.319992" target-x="148.77" target-y="189.97"></path><path d="M 154.52 196.97 L 150.33 196.97 C 149.20 196.97 148.27 196.12 148.27 195.09 L 148.27 191.34 C 148.27 190.31 149.19 189.47 150.33 189.47 L 154.52 189.47 C 155.66 189.47 156.59 190.31 156.59 191.34 L 156.59 195.09 C 156.59 196.12 155.66 196.97 154.52 196.97 Z M 150.33 190.47 C 149.75 190.47 149.27 190.87 149.27 191.34 L 149.27 195.09 C 149.27 195.57 149.75 195.97 150.33 195.97 L 154.52 195.97 C 155.10 195.97 155.59 195.56 155.59 195.09 L 155.59 191.34 C 155.59 190.86 155.11 190.47 154.52 190.47 L 150.33 190.47 Z" fill="#ffffff" fill-opacity="0.2318" fill-rule="nonzero" group-id="4,14,80" node-id="792" stroke="none" target-height="7.5" target-width="8.319992" target-x="148.27" target-y="189.47"></path></g><g node-id="1041"><path d="M 99.73 196.47 L 103.92 196.47 C 104.78 196.47 105.48 195.85 105.48 195.09 L 105.48 191.34 C 105.48 190.59 104.79 189.97 103.92 189.97 L 99.73 189.97 C 98.87 189.97 98.17 190.59 98.17 191.34 L 98.17 195.09 C 98.17 195.85 98.87 196.47 99.73 196.47 Z" fill="#6e6e96" fill-opacity="0.2318" fill-rule="nonzero" group-id="4,14,81" node-id="797" stroke="none" target-height="6.5" target-width="7.310005" target-x="98.17" target-y="189.97"></path><path d="M 103.92 196.97 L 99.73 196.97 C 98.59 196.97 97.67 196.12 97.67 195.09 L 97.67 191.34 C 97.67 190.31 98.59 189.47 99.73 189.47 L 103.92 189.47 C 105.06 189.47 105.98 190.31 105.98 191.34 L 105.98 195.09 C 105.98 196.12 105.06 196.97 103.92 196.97 Z M 99.73 190.47 C 99.15 190.47 98.67 190.87 98.67 191.34 L 98.67 195.09 C 98.67 195.56 99.15 195.97 99.73 195.97 L 103.92 195.97 C 104.50 195.97 104.98 195.56 104.98 195.09 L 104.98 191.34 C 104.98 190.86 104.51 190.47 103.92 190.47 L 99.73 190.47 Z" fill="#ffffff" fill-opacity="0.2318" fill-rule="nonzero" group-id="4,14,81" node-id="799" stroke="none" target-height="7.5" target-width="8.310005" target-x="97.67" target-y="189.47"></path></g><g node-id="1042"><path d="M 73.75 196.47 L 83.76 196.47 C 84.61 196.47 85.31 195.85 85.31 195.09 L 85.31 191.34 C 85.31 190.59 84.61 189.97 83.76 189.97 L 73.75 189.97 C 72.90 189.97 72.19 190.59 72.19 191.34 L 72.19 195.09 C 72.20 195.85 72.90 196.47 73.75 196.47 Z" fill="#6e6e96" fill-opacity="0.2318" fill-rule="nonzero" group-id="4,14,82" node-id="804" stroke="none" target-height="6.5" target-width="13.119995" target-x="72.19" target-y="189.97"></path><path d="M 83.76 196.97 L 73.75 196.97 C 72.62 196.97 71.70 196.12 71.69 195.09 L 71.69 191.34 C 71.69 190.31 72.62 189.47 73.75 189.47 L 83.76 189.47 C 84.89 189.47 85.81 190.31 85.81 191.34 L 85.81 195.09 C 85.81 196.12 84.89 196.97 83.76 196.97 Z M 73.75 190.47 C 73.18 190.47 72.69 190.87 72.69 191.34 L 72.69 195.09 C 72.69 195.57 73.17 195.97 73.75 195.97 L 83.76 195.97 C 84.33 195.97 84.81 195.56 84.81 195.09 L 84.81 191.34 C 84.81 190.86 84.34 190.47 83.76 190.47 L 73.75 190.47 Z" fill="#ffffff" fill-opacity="0.2318" fill-rule="nonzero" group-id="4,14,82" node-id="806" stroke="none" target-height="7.5" target-width="14.119995" target-x="71.69" target-y="189.47"></path></g><g node-id="1043"><path d="M 163.05 223.69 L 157.31 223.69 C 156.46 223.69 155.76 224.31 155.76 225.07 L 155.76 228.81 C 155.76 229.57 156.46 230.19 157.31 230.19 L 163.05 230.19 C 163.90 230.19 164.61 229.57 164.61 228.81 L 164.61 225.07 C 164.61 224.31 163.91 223.69 163.05 223.69 Z" fill="#6e6e96" fill-opacity="0.2318" fill-rule="nonzero" group-id="4,14,83" node-id="811" stroke="none" target-height="6.5" target-width="8.850006" target-x="155.76" target-y="223.69"></path><path d="M 163.05 230.69 L 157.31 230.69 C 156.18 230.69 155.26 229.85 155.26 228.81 L 155.26 225.07 C 155.26 224.03 156.18 223.19 157.31 223.19 L 163.05 223.19 C 164.18 223.19 165.11 224.03 165.11 225.07 L 165.11 228.81 C 165.11 229.85 164.18 230.69 163.05 230.69 Z M 157.31 224.19 C 156.74 224.19 156.26 224.59 156.26 225.07 L 156.26 228.81 C 156.26 229.29 156.74 229.69 157.31 229.69 L 163.05 229.69 C 163.62 229.69 164.11 229.29 164.11 228.81 L 164.11 225.07 C 164.11 224.59 163.62 224.19 163.05 224.19 L 157.31 224.19 Z" fill="#ffffff" fill-opacity="0.2318" fill-rule="nonzero" group-id="4,14,83" node-id="813" stroke="none" target-height="7.5" target-width="9.850006" target-x="155.26" target-y="223.19"></path></g></g><path d="M 182.00 185.63 C 182.02 185.94 182.03 186.24 182.03 186.56 L 182.03 226.37 C 182.03 229.87 181.29 232.73 175.67 232.73 L 71.57 232.83 C 68.47 232.84 66.86 231.96 66.04 230.59 C 66.19 233.65 67.26 236.02 72.36 236.01 L 176.47 235.91 C 182.08 235.90 182.82 233.05 182.82 229.55 L 182.82 189.74 C 182.82 188.18 182.67 186.74 182.00 185.63 Z" fill="#6e6e96" fill-opacity="0.15" fill-rule="nonzero" group-id="4,15" node-id="819" stroke="none" target-height="50.39" target-width="116.78001" target-x="66.04" target-y="185.63"></path></g><g node-id="965"><g node-id="976"><path d="M 93.96 165.24 L 90.32 165.24 C 90.32 165.24 91.97 165.60 93.96 165.24 Z M 148.94 155.19 L 148.94 142.85 L 100.86 142.85 L 100.86 154.70 C 100.86 162.47 97.01 164.70 93.96 165.24 L 100.86 165.24 L 100.86 168.53 L 148.94 168.53 L 148.94 165.24 L 159.48 165.24 C 149.84 165.24 149.00 157.24 148.94 155.19 Z" fill="#ffffff" fill-rule="nonzero" group-id="5,16" node-id="826" stroke="none" target-height="25.679993" target-width="69.159996" target-x="90.32" target-y="142.85"></path><path d="M 150.44 170.03 L 99.36 170.03 L 99.36 166.74 L 94.10 166.74 C 93.46 166.85 92.80 166.90 92.13 166.90 L 92.13 166.90 C 90.93 166.90 90.09 166.73 90.00 166.71 L 90.32 163.74 L 93.81 163.74 C 97.50 163.03 99.36 159.99 99.36 154.70 L 99.36 141.35 L 150.44 141.35 L 150.44 155.19 C 150.51 157.73 151.54 163.74 159.48 163.74 L 159.48 166.74 L 150.44 166.74 L 150.44 170.03 Z M 102.36 167.03 L 147.44 167.03 L 147.44 163.74 L 150.93 163.74 C 148.56 161.50 147.53 158.31 147.44 155.23 L 147.44 144.35 L 102.36 144.35 L 102.36 154.70 C 102.36 159.12 101.19 161.94 99.63 163.74 L 102.36 163.74 L 102.36 167.03 Z M 159.48 166.74 L 159.48 166.62 L 159.48 166.74 L 159.48 163.74 L 159.48 165.24 L 159.48 163.74 L 159.48 166.74 Z" fill="#6e6e96" fill-rule="nonzero" group-id="5,16" node-id="828" stroke="none" target-height="28.679993" target-width="69.479996" target-x="90" target-y="141.35"></path></g><g node-id="977"><path d="M 90.32 165.24 L 159.48 165.24 L 159.48 171.83 L 90.32 171.83 Z" fill="#f2f2f2" fill-rule="nonzero" group-id="5,17" node-id="833" stroke="none" target-height="6.5899963" target-width="69.159996" target-x="90.32" target-y="165.24"></path><path d="M 159.48 173.33 L 90.32 173.33 C 89.49 173.33 88.82 172.66 88.82 171.83 L 88.82 165.24 C 88.82 164.41 89.49 163.74 90.32 163.74 L 159.48 163.74 C 160.31 163.74 160.98 164.41 160.98 165.24 L 160.98 171.83 C 160.98 172.66 160.31 173.33 159.48 173.33 Z M 91.82 170.33 L 157.98 170.33 L 157.98 166.74 L 91.82 166.74 L 91.82 170.33 Z" fill="#6e6e96" fill-rule="nonzero" group-id="5,17" node-id="835" stroke="none" target-height="9.589996" target-width="72.159996" target-x="88.82" target-y="163.74"></path></g><g node-id="978"><path d="M 40.59 125.06 L 40.59 19.02 C 40.59 11.78 46.52 5.85 53.77 5.85 L 196.04 5.85 C 203.28 5.85 209.21 11.78 209.21 19.02 L 209.21 125.06" fill="#bbc0d9" fill-rule="nonzero" group-id="5,18" node-id="840" stroke="none" target-height="119.21" target-width="168.62001" target-x="40.59" target-y="5.85"></path></g><path d="M 50.15 15.74 L 198.69 15.74 L 198.69 105.84 L 50.15 105.84 Z" fill="#a5dcfa" fill-rule="nonzero" group-id="5" node-id="843" stroke="none" target-height="90.1" target-width="148.54001" target-x="50.15" target-y="15.74"></path><path d="M 197.03 39.65 L 138.43 103.66 L 197.09 103.66 Z" fill="#ffffff" fill-opacity="0.25" fill-rule="nonzero" group-id="5,19" node-id="847" stroke="none" target-height="64.01" target-width="58.660004" target-x="138.43" target-y="39.65"></path><path d="M 157.02 103.66 L 197.09 58.98 L 197.09 103.66 Z" fill="#ffffff" fill-opacity="0.25" fill-rule="nonzero" group-id="5,20" node-id="852" stroke="none" target-height="44.680004" target-width="40.069992" target-x="157.02" target-y="58.98"></path><path d="M 209.21 114.53 L 209.21 129.67 C 209.21 136.92 203.28 142.85 196.04 142.85 L 53.77 142.85 C 46.52 142.85 40.59 136.92 40.59 129.67 L 40.59 114.53 L 209.21 114.53 Z" fill="#ffffff" fill-rule="nonzero" group-id="5,21" node-id="857" stroke="none" target-height="28.320007" target-width="168.62001" target-x="40.59" target-y="114.53"></path><path d="M 50.15 15.74 L 198.69 15.74 L 198.69 21.80 L 50.15 21.80 Z" fill="#6e6e96" fill-opacity="0.51" fill-rule="nonzero" group-id="5,22" node-id="862" stroke="none" target-height="6.0599995" target-width="148.54001" target-x="50.15" target-y="15.74"></path><path d="M 195.48 4.57 L 53.21 4.57 C 45.97 4.57 40.04 10.50 40.04 17.75 L 40.04 23.30 C 40.04 16.06 45.97 10.13 53.21 10.13 L 195.48 10.13 C 202.73 10.13 208.66 16.06 208.66 23.30 L 208.66 17.75 C 208.66 10.50 202.73 4.57 195.48 4.57 Z" fill="#d5dbf7" fill-rule="nonzero" group-id="5" node-id="865" stroke="none" target-height="18.73" target-width="168.62" target-x="40.04" target-y="4.57"></path><path d="M 196.04 144.35 L 53.77 144.35 C 45.68 144.35 39.09 137.76 39.09 129.67 L 39.09 113.03 L 210.71 113.03 L 210.71 129.67 C 210.71 137.76 204.13 144.35 196.04 144.35 Z M 42.09 116.03 L 42.09 129.67 C 42.09 136.11 47.33 141.35 53.77 141.35 L 196.04 141.35 C 202.48 141.35 207.71 136.11 207.71 129.67 L 207.71 116.03 L 42.09 116.03 Z" fill="#6e6e96" fill-rule="nonzero" group-id="5,23" node-id="869" stroke="none" target-height="31.320007" target-width="171.62001" target-x="39.09" target-y="113.03"></path><path d="M 210.71 125.06 L 207.71 125.06 L 207.71 19.02 C 207.71 12.59 202.48 7.35 196.04 7.35 L 53.77 7.35 C 47.33 7.35 42.09 12.59 42.09 19.02 L 42.09 125.06 L 39.09 125.06 L 39.09 19.02 C 39.09 10.93 45.68 4.35 53.77 4.35 L 196.04 4.35 C 204.13 4.35 210.71 10.93 210.71 19.02 L 210.71 125.06 Z" fill="#6e6e96" fill-rule="nonzero" group-id="5,24" node-id="874" stroke="none" target-height="120.71" target-width="171.62001" target-x="39.09" target-y="4.35"></path><path d="M 196.04 136.46 L 53.77 136.46 C 46.52 136.46 40.59 130.53 40.59 123.29 L 40.59 129.68 C 40.59 136.92 46.52 142.85 53.77 142.85 L 196.04 142.85 C 203.28 142.85 209.21 136.92 209.21 129.68 L 209.21 123.29 C 209.21 130.53 203.28 136.46 196.04 136.46 Z" fill="#6e6e96" fill-opacity="0.15" fill-rule="nonzero" group-id="5,25" node-id="879" stroke="none" target-height="19.560005" target-width="168.62001" target-x="40.59" target-y="123.29"></path><path d="M 40.59 109.25 L 209.21 109.25 L 209.21 114.53 L 40.59 114.53 Z" fill="#6e6e96" fill-opacity="0.15" fill-rule="nonzero" group-id="5,26" node-id="884" stroke="none" target-height="5.279999" target-width="168.62001" target-x="40.59" target-y="109.25"></path><path d="M 100.86 142.85 L 148.94 142.85 L 148.94 151.26 L 100.86 151.26 Z" fill="#6e6e96" fill-opacity="0.15" fill-rule="nonzero" group-id="5,27" node-id="889" stroke="none" target-height="8.409988" target-width="48.08" target-x="100.86" target-y="142.85"></path><path d="M 139.87 165.24 L 159.48 165.24 L 159.48 171.83 L 139.87 171.83 Z" fill="#6e6e96" fill-opacity="0.15" fill-rule="nonzero" group-id="5,28" node-id="894" stroke="none" target-height="6.5899963" target-width="19.61" target-x="139.87" target-y="165.24"></path><path d="M 129.87 129.42 L 118.75 129.42 C 117.92 129.42 117.25 128.75 117.25 127.92 C 117.25 127.10 117.92 126.42 118.75 126.42 L 129.87 126.42 C 130.69 126.42 131.37 127.10 131.37 127.92 C 131.37 128.75 130.69 129.42 129.87 129.42 Z" fill="#6e6e96" fill-rule="nonzero" group-id="5" node-id="897" stroke="none" target-height="3" target-width="14.119995" target-x="117.25" target-y="126.42"></path><path d="M 50.15 52.36 L 80.70 21.80 L 126.53 21.80 L 50.84 97.50 Z" fill="#ffffff" fill-opacity="0.17" fill-rule="nonzero" group-id="5,29" node-id="901" stroke="none" target-height="75.7" target-width="76.38" target-x="50.15" target-y="21.8"></path><path d="M 148.57 21.80 L 64.14 106.23 L 77.08 106.23 L 161.52 21.80 Z" fill="#ffffff" fill-opacity="0.1" fill-rule="nonzero" group-id="5,30" node-id="906" stroke="none" target-height="84.43001" target-width="97.380005" target-x="64.14" target-y="21.8"></path><path d="M 198.69 107.34 L 50.15 107.34 C 49.32 107.34 48.65 106.67 48.65 105.84 L 48.65 15.74 C 48.65 14.92 49.32 14.24 50.15 14.24 L 198.69 14.24 C 199.52 14.24 200.19 14.92 200.19 15.74 L 200.19 105.84 C 200.19 106.67 199.52 107.34 198.69 107.34 Z M 51.65 104.34 L 197.19 104.34 L 197.19 17.25 L 51.65 17.25 L 51.65 104.34 Z" fill="#6e6e96" fill-rule="nonzero" group-id="5" node-id="909" stroke="none" target-height="93.1" target-width="151.54001" target-x="48.65" target-y="14.24"></path></g><g node-id="966"><g node-id="991"><path d="M 122.96 88.06 L 157.06 55.76 C 157.06 54.75 156.70 53.28 155.12 52.07 L 127.85 31.39 C 127.08 30.80 125.31 29.44 123.52 29.43 C 121.64 29.43 119.74 30.80 118.95 31.43 L 94.03 51.68 C 92.47 52.91 91.47 54.02 91.67 55.76 L 122.96 88.06 Z" fill="#ffffff" fill-rule="nonzero" group-id="6,31" node-id="915" stroke="none" target-height="58.629997" target-width="65.59" target-x="91.47" target-y="29.43"></path><path d="M 122.96 89.56 C 122.56 89.56 122.17 89.40 121.88 89.10 L 90.60 56.80 C 90.37 56.56 90.22 56.26 90.18 55.93 C 89.89 53.42 91.41 51.84 93.10 50.50 L 118.00 30.27 C 119.36 29.19 121.40 27.93 123.50 27.93 C 125.82 27.94 127.88 29.52 128.76 30.20 L 156.03 50.88 C 158.24 52.57 158.56 54.66 158.56 55.76 C 158.56 56.17 158.39 56.56 158.09 56.84 L 123.99 89.14 C 123.70 89.42 123.33 89.56 122.96 89.56 Z M 93.16 55.13 L 123.00 85.95 L 155.50 55.17 C 155.38 54.59 155.03 53.90 154.21 53.27 L 126.94 32.58 C 126.30 32.09 124.80 30.94 123.51 30.93 C 122.53 30.93 121.25 31.53 119.88 32.61 L 94.98 52.84 C 93.64 53.90 93.22 54.52 93.16 55.13 Z" fill="#6e6e96" fill-rule="nonzero" group-id="6,31" node-id="917" stroke="none" target-height="61.629997" target-width="68.67" target-x="89.89" target-y="27.93"></path></g><g node-id="992"><path d="M 91.53 55.75 L 91.53 96.66 L 157.06 96.66 L 157.06 55.75 C 157.06 50.98 149.56 58.73 149.56 58.73 L 123.49 84.09 C 123.49 84.09 102.85 63.47 97.14 57.96 C 97.14 57.96 91.53 52.04 91.53 55.75 Z" fill="#e8c9bc" fill-rule="nonzero" group-id="6,32" node-id="922" stroke="none" target-height="45.680004" target-width="65.53" target-x="91.53" target-y="50.98"></path><path d="M 157.06 98.16 L 91.53 98.16 C 90.70 98.16 90.03 97.49 90.03 96.66 L 90.03 55.75 C 90.03 53.74 91.28 53.03 92.34 53.03 C 94.11 53.03 97.06 55.58 98.16 56.90 L 98.18 56.88 C 103.09 61.62 119.23 77.71 123.50 81.98 L 148.51 57.66 C 149.93 56.19 153.57 52.70 156.01 52.70 C 157.19 52.70 158.56 53.50 158.56 55.75 L 158.56 96.67 C 158.56 97.49 157.89 98.16 157.06 98.16 Z M 93.03 95.16 L 155.56 95.16 L 155.56 55.83 C 154.50 56.30 152.38 57.97 150.63 59.77 L 124.53 85.16 C 123.94 85.73 123.00 85.73 122.43 85.15 C 122.22 84.94 101.73 64.48 96.10 59.04 C 95.06 57.95 93.85 56.92 93.03 56.39 L 93.03 95.16 Z" fill="#6e6e96" fill-rule="nonzero" group-id="6,32" node-id="924" stroke="none" target-height="45.460003" target-width="68.53" target-x="90.03" target-y="52.7"></path></g><g node-id="993"><path d="M 157.24 55.28 C 157.24 54.35 154.09 50.85 152.51 49.74 L 131.99 69.55 C 129.75 67.83 126.21 66.07 122.72 66.07 C 120.23 66.07 117.67 67.71 115.61 71.03 L 95.42 50.56 C 94.07 51.59 91.66 53.81 91.85 55.28 L 111.92 74.38 L 93.57 89.71 L 93.57 93.51 L 154.26 93.51 L 154.26 89.53 L 135.37 74.37 L 157.24 55.28 Z" fill="#6e6e96" fill-opacity="0.1" fill-rule="nonzero" group-id="6,33" node-id="929" stroke="none" target-height="43.77" target-width="65.58" target-x="91.66" target-y="49.74"></path></g><g node-id="994"><path d="M 156.82 96.61 C 156.82 95.60 155.40 93.78 153.82 92.57 L 127.75 72.24 C 126.98 71.65 125.21 70.29 123.43 70.29 C 121.56 70.28 119.68 71.65 118.88 72.28 L 94.79 92.53 C 93.14 93.84 91.64 95.74 91.74 96.61 L 156.82 96.61 Z" fill="#ffe7cf" fill-rule="nonzero" group-id="6,34" node-id="934" stroke="none" target-height="26.330002" target-width="65.18001" target-x="91.64" target-y="70.28"></path><path d="M 156.82 98.11 L 91.74 98.11 C 90.98 98.11 90.34 97.54 90.25 96.78 C 89.98 94.47 93.70 91.48 93.86 91.36 L 117.92 71.14 C 119.28 70.05 121.32 68.79 123.42 68.79 C 125.72 68.79 127.77 70.37 128.65 71.04 L 154.75 91.39 C 155.98 92.34 158.32 94.66 158.32 96.61 C 158.32 97.44 157.65 98.11 156.82 98.11 Z M 94.25 95.11 L 154.34 95.11 C 153.96 94.67 153.47 94.20 152.91 93.76 L 126.82 73.42 C 126.18 72.93 124.69 71.79 123.42 71.79 C 122.45 71.79 121.17 72.38 119.81 73.46 L 95.76 93.68 C 95.16 94.16 94.65 94.66 94.25 95.11 Z" fill="#6e6e96" fill-rule="nonzero" group-id="6,34" node-id="936" stroke="none" target-height="29.32" target-width="68.340004" target-x="89.98" target-y="68.79"></path></g><g node-id="995"><path d="M 154.02 54.55 C 154.17 54.78 154.26 55.12 154.26 55.62 L 154.26 91.60 L 94.57 91.60 L 94.57 55.62 C 93.57 55.22 93.64 54.94 93.76 54.76 C 92.54 53.98 91.44 53.74 91.44 55.38 L 91.44 96.29 L 156.98 96.29 L 156.98 55.38 C 156.98 53.33 155.59 53.59 154.02 54.55 Z" fill="#6e6e96" fill-opacity="0.15" fill-rule="nonzero" group-id="6,35" node-id="941" stroke="none" target-height="42.96" target-width="65.53999" target-x="91.44" target-y="53.33"></path></g><path d="M 165.17 98.50 L 84.17 98.50 C 83.34 98.50 82.67 97.83 82.67 97.00 C 82.67 96.17 83.34 95.50 84.17 95.50 L 165.17 95.50 C 165.99 95.50 166.67 96.17 166.67 97.00 C 166.67 97.83 165.99 98.50 165.17 98.50 Z" fill="#6e6e96" fill-opacity="0.15" fill-rule="nonzero" group-id="6,36" node-id="946" stroke="none" target-height="3" target-width="84" target-x="82.67" target-y="95.5"></path></g><g node-id="967"><path d="M 231.24 95.79 L 247.24 95.79 L 247.24 98.79 L 231.24 98.79 Z" fill="#966e6e" fill-opacity="0.43" fill-rule="nonzero" group-id="7" node-id="952" stroke="none" target-height="3" target-width="16" target-x="231.24" target-y="95.79"></path><path d="M 237.74 89.54 L 240.74 89.54 L 240.74 110.04 L 237.74 110.04 Z" fill="#966e6e" fill-opacity="0.43" fill-rule="nonzero" group-id="7" node-id="954" stroke="none" target-height="20.5" target-width="3" target-x="237.74" target-y="89.54"></path></g><path d="M 13.88 74.58 C 10.01 74.58 6.86 71.43 6.86 67.56 C 6.86 63.68 10.01 60.53 13.88 60.53 C 17.75 60.53 20.91 63.68 20.91 67.56 C 20.91 71.43 17.75 74.58 13.88 74.58 Z M 13.88 63.53 C 11.66 63.53 9.86 65.34 9.86 67.56 C 9.86 69.78 11.66 71.58 13.88 71.58 C 16.10 71.58 17.91 69.78 17.91 67.56 C 17.91 65.34 16.10 63.53 13.88 63.53 Z" fill="#6e967e" fill-opacity="0.38" fill-rule="nonzero" group-id="8" node-id="959" stroke="none" target-height="14.050003" target-width="14.049999" target-x="6.86" target-y="60.53"></path></svg>