<?xml version="1.0" standalone="no"?><!DOCTYPE svg PUBLIC "-//W3C//DTD SVG 1.1//EN" "http://www.w3.org/Graphics/SVG/1.1/DTD/svg11.dtd"><svg height="254" node-id="1" sillyvg="true" template-height="254" template-width="257" version="1.1" viewBox="0 0 257 254" width="257" xmlns="http://www.w3.org/2000/svg" xmlns:xlink="http://www.w3.org/1999/xlink"><defs node-id="60"></defs><g node-id="193"><path d="M 206.56 20.12 C 176.53 -8.03 129.31 -6.45 101.10 23.65 C 100.66 24.12 100.25 24.61 99.83 25.08 C 74.98 19.65 47.97 27.07 29.29 47.00 C 1.06 77.10 2.54 124.32 32.56 152.47 C 32.96 152.84 33.36 153.18 33.76 153.53 C 27.68 178.76 34.92 206.43 55.17 225.41 C 85.20 253.56 132.42 251.97 160.64 221.87 C 162.24 220.16 163.74 218.39 165.15 216.57 C 186.61 217.90 208.49 209.99 224.36 193.06 C 250.44 165.24 251.13 122.80 227.38 94.31 C 234.49 68.47 227.43 39.69 206.56 20.12 Z" fill="#b8d8fc" fill-opacity="0.63" fill-rule="nonzero" group-id="1" node-id="63" stroke="none" target-height="261.59" target-width="250.07" target-x="1.06" target-y="-8.03"></path></g><path d="M 256.00 169.61 L 0.00 169.61 L 0.00 205.54 C 14.80 233.22 44.03 252.06 77.67 252.06 C 80.43 252.06 83.16 251.91 85.86 251.67 C 86.40 252.31 86.95 252.96 87.50 253.59 L 219.95 253.59 C 231.24 240.71 238.82 224.53 241.03 206.67 C 246.37 203.86 251.38 200.51 256.00 196.71 L 256.00 169.61 Z" fill="#d6f0ff" fill-rule="nonzero" node-id="66" stroke="none" target-height="83.979996" target-width="256" target-x="0" target-y="169.61"></path><path d="M 1.00 168.11 L 257.00 168.11 L 257.00 171.11 L 1.00 171.11 Z" fill="#ccccde" fill-rule="nonzero" node-id="68" stroke="none" target-height="3" target-width="256" target-x="1" target-y="168.11"></path><path d="M 8.00 190.51 L 42.00 190.51 L 42.00 193.51 L 8.00 193.51 Z" fill="#ffffff" fill-rule="nonzero" node-id="70" stroke="none" target-height="3" target-width="34" target-x="8" target-y="190.51"></path><path d="M 33.33 218.16 L 79.33 218.16 L 79.33 221.16 L 33.33 221.16 Z" fill="#ffffff" fill-rule="nonzero" node-id="72" stroke="none" target-height="3" target-width="46" target-x="33.33" target-y="218.16"></path><path d="M 115.33 186.74 L 154.67 186.74 L 154.67 189.74 L 115.33 189.74 Z" fill="#ffffff" fill-opacity="0.61" fill-rule="nonzero" group-id="2" node-id="76" stroke="none" target-height="3" target-width="39.339996" target-x="115.33" target-y="186.74"></path><path d="M 228.00 199.31 L 240.67 199.31 L 240.67 202.31 L 228.00 202.31 Z" fill="#ffffff" fill-rule="nonzero" node-id="79" stroke="none" target-height="3" target-width="12.669998" target-x="228" target-y="199.31"></path><path d="M 195.33 191.76 L 205.33 191.76 L 205.33 194.76 L 195.33 194.76 Z" fill="#ffffff" fill-opacity="0.48" fill-rule="nonzero" group-id="3" node-id="83" stroke="none" target-height="3" target-width="10" target-x="195.33" target-y="191.76"></path><path d="M 79.33 198.05 L 94.67 198.05 L 94.67 201.05 L 79.33 201.05 Z" fill="#ffffff" fill-opacity="0.48" fill-rule="nonzero" group-id="4" node-id="88" stroke="none" target-height="3" target-width="15.339996" target-x="79.33" target-y="198.05"></path><path d="M 8.67 228.21 L 14.00 228.21 L 14.00 231.21 L 8.67 231.21 Z" fill="#ffffff" fill-opacity="0.48" fill-rule="nonzero" group-id="5" node-id="93" stroke="none" target-height="3" target-width="5.33" target-x="8.67" target-y="228.21"></path><path d="M 1.00 169.61 L 257.00 169.61 L 257.00 177.58 L 1.00 177.58 Z" fill="#6e6e96" fill-opacity="0.1" fill-rule="nonzero" group-id="6" node-id="98" stroke="none" target-height="7.970001" target-width="256" target-x="1" target-y="169.61"></path><path d="M 67.00 126.59 L 37.00 126.59 C 35.34 126.59 34.00 125.25 34.00 123.59 C 34.00 121.93 35.34 120.59 37.00 120.59 L 67.00 120.59 C 68.66 120.59 70.00 121.93 70.00 123.59 C 70.00 125.25 68.66 126.59 67.00 126.59 Z" fill="#ffffff" fill-opacity="0.41" fill-rule="nonzero" group-id="7" node-id="103" stroke="none" target-height="6" target-width="36" target-x="34" target-y="120.59"></path><path d="M 213.04 99.59 L 187.00 99.59 C 185.34 99.59 184.00 98.25 184.00 96.59 C 184.00 94.93 185.34 93.59 187.00 93.59 L 213.04 93.59 C 214.70 93.59 216.04 94.93 216.04 96.59 C 216.04 98.25 214.70 99.59 213.04 99.59 Z" fill="#ffffff" fill-opacity="0.55" fill-rule="nonzero" group-id="8" node-id="108" stroke="none" target-height="6" target-width="32.039993" target-x="184" target-y="93.59"></path><path d="M 200.88 49.59 L 184.00 49.59 C 182.34 49.59 181.00 48.25 181.00 46.59 C 181.00 44.93 182.34 43.59 184.00 43.59 L 200.88 43.59 C 202.53 43.59 203.88 44.93 203.88 46.59 C 203.88 48.25 202.53 49.59 200.88 49.59 Z" fill="#ffffff" fill-opacity="0.53" fill-rule="nonzero" group-id="9" node-id="113" stroke="none" target-height="6" target-width="22.880005" target-x="181" target-y="43.59"></path><path d="M 46.85 71.42 L 43.86 71.28 C 43.86 65.84 36.42 64.08 36.35 64.07 C 35.54 63.88 35.04 63.08 35.22 62.27 C 35.40 61.46 36.21 60.96 37.02 61.14 C 37.32 61.21 42.69 62.48 45.37 66.40 C 46.81 63.83 49.38 61.50 53.64 61.50 C 54.47 61.50 55.14 62.17 55.14 63.00 C 55.14 63.83 54.47 64.50 53.64 64.50 C 47.58 64.50 46.88 71.14 46.85 71.42 Z" fill="#ffffff" fill-rule="nonzero" group-id="10" node-id="118" stroke="none" target-height="10.459999" target-width="20.099998" target-x="35.04" target-y="60.96"></path><path d="M 48.51 72.38 L 41.81 72.38 C 40.98 72.38 40.31 71.71 40.31 70.88 C 40.31 70.05 40.98 69.38 41.81 69.38 L 48.51 69.38 C 49.34 69.38 50.01 70.05 50.01 70.88 C 50.01 71.71 49.34 72.38 48.51 72.38 Z" fill="#ffffff" fill-rule="nonzero" group-id="10" node-id="120" stroke="none" target-height="3" target-width="9.699997" target-x="40.31" target-y="69.38"></path><path d="M 148.64 148.56 L 145.65 148.42 C 145.65 142.79 137.98 140.98 137.90 140.96 C 137.09 140.78 136.59 139.97 136.77 139.17 C 136.95 138.36 137.75 137.85 138.56 138.03 C 138.87 138.10 144.44 139.42 147.16 143.48 C 148.63 140.82 151.27 138.40 155.66 138.40 C 156.49 138.40 157.16 139.08 157.16 139.90 C 157.16 140.73 156.49 141.40 155.66 141.40 C 149.44 141.40 148.67 148.27 148.64 148.56 Z" fill="#ffffff" fill-rule="nonzero" group-id="11" node-id="125" stroke="none" target-height="10.709991" target-width="20.570007" target-x="136.59" target-y="137.85"></path><path d="M 150.39 149.51 L 143.50 149.51 C 142.67 149.51 142.00 148.84 142.00 148.01 C 142.00 147.18 142.67 146.51 143.50 146.51 L 150.39 146.51 C 151.22 146.51 151.89 147.18 151.89 148.01 C 151.89 148.84 151.22 149.51 150.39 149.51 Z" fill="#ffffff" fill-rule="nonzero" group-id="11" node-id="127" stroke="none" target-height="3" target-width="9.889999" target-x="142" target-y="146.51"></path><path d="M 228.00 185.96 C 225.51 185.96 223.50 183.95 223.50 181.46 C 223.50 130.18 181.78 88.46 130.50 88.46 C 79.22 88.46 37.50 130.18 37.50 181.46 C 37.50 183.95 35.48 185.96 33.00 185.96 C 30.52 185.96 28.50 183.95 28.50 181.46 C 28.50 125.22 74.26 79.46 130.50 79.46 C 186.74 79.46 232.50 125.22 232.50 181.46 C 232.50 183.95 230.49 185.96 228.00 185.96 Z" fill="#f59fb3" fill-rule="nonzero" group-id="12" node-id="132" stroke="none" target-height="106.50001" target-width="204" target-x="28.5" target-y="79.46"></path><path d="M 219.00 185.96 C 216.51 185.96 214.50 183.95 214.50 181.46 C 214.50 135.05 176.74 97.30 130.33 97.30 C 83.92 97.30 46.17 135.05 46.17 181.46 C 46.17 183.95 44.15 185.96 41.67 185.96 C 39.18 185.96 37.17 183.95 37.17 181.46 C 37.17 130.09 78.96 88.30 130.33 88.30 C 181.71 88.30 223.50 130.09 223.50 181.46 C 223.50 183.95 221.49 185.96 219.00 185.96 Z" fill="#ffff75" fill-rule="nonzero" group-id="12" node-id="134" stroke="none" target-height="97.66" target-width="186.33" target-x="37.17" target-y="88.3"></path><path d="M 210.67 185.96 C 208.18 185.96 206.17 183.95 206.17 181.46 C 206.17 139.65 172.15 105.63 130.33 105.63 C 88.52 105.63 54.50 139.65 54.50 181.46 C 54.50 183.95 52.48 185.96 50.00 185.96 C 47.52 185.96 45.50 183.95 45.50 181.46 C 45.50 134.69 83.56 96.63 130.33 96.63 C 177.11 96.63 215.17 134.69 215.17 181.46 C 215.17 183.95 213.15 185.96 210.67 185.96 Z" fill="#afeb75" fill-rule="nonzero" group-id="12" node-id="136" stroke="none" target-height="89.33001" target-width="169.67" target-x="45.5" target-y="96.63"></path><path d="M 202.00 185.96 C 199.52 185.96 197.50 183.95 197.50 181.46 C 197.50 144.52 167.44 114.46 130.50 114.46 C 93.56 114.46 63.50 144.52 63.50 181.46 C 63.50 183.95 61.48 185.96 59.00 185.96 C 56.51 185.96 54.50 183.95 54.50 181.46 C 54.50 139.56 88.59 105.46 130.50 105.46 C 172.41 105.46 206.50 139.56 206.50 181.46 C 206.50 183.95 204.49 185.96 202.00 185.96 Z" fill="#75d5eb" fill-rule="nonzero" group-id="12" node-id="138" stroke="none" target-height="80.50001" target-width="152" target-x="54.5" target-y="105.46"></path><path d="M 49.29 244.27 C 47.85 244.27 46.43 243.57 45.56 242.28 C 34.18 225.42 28.17 205.72 28.17 185.30 C 28.17 182.81 30.18 180.80 32.67 180.80 C 35.15 180.80 37.17 182.81 37.17 185.30 C 37.17 203.92 42.65 221.88 53.02 237.25 C 54.41 239.31 53.87 242.11 51.80 243.50 C 51.03 244.02 50.16 244.27 49.29 244.27 Z" fill="#f59fb3" fill-opacity="0.26" fill-rule="nonzero" group-id="13,15" node-id="145" stroke="none" target-height="63.47" target-width="26.24" target-x="28.17" target-y="180.8"></path><path d="M 206.69 250.22 C 205.71 250.22 204.73 249.90 203.90 249.25 C 201.95 247.71 201.62 244.88 203.16 242.93 C 216.25 226.38 223.17 206.45 223.17 185.30 C 223.17 182.81 225.18 180.80 227.67 180.80 C 230.15 180.80 232.17 182.81 232.17 185.30 C 232.17 208.49 224.58 230.35 210.22 248.51 C 209.33 249.63 208.02 250.22 206.69 250.22 Z" fill="#f59fb3" fill-opacity="0.26" fill-rule="nonzero" group-id="13,16" node-id="150" stroke="none" target-height="69.42" target-width="30.550003" target-x="201.62" target-y="180.8"></path><path d="M 63.73 248.32 C 62.48 248.32 61.24 247.81 60.35 246.79 C 45.40 229.80 37.17 207.96 37.17 185.30 C 37.17 182.81 39.18 180.80 41.67 180.80 C 44.15 180.80 46.17 182.81 46.17 185.30 C 46.17 205.77 53.60 225.50 67.11 240.85 C 68.75 242.72 68.56 245.56 66.70 247.20 C 65.84 247.95 64.78 248.32 63.73 248.32 Z" fill="#ffff75" fill-opacity="0.26" fill-rule="nonzero" group-id="13,17" node-id="155" stroke="none" target-height="67.520004" target-width="31.580002" target-x="37.17" target-y="180.8"></path><path d="M 194.68 250.80 C 193.57 250.80 192.46 250.39 191.59 249.56 C 189.78 247.85 189.71 245.00 191.42 243.20 C 206.30 227.50 214.50 206.94 214.50 185.30 C 214.50 182.81 216.51 180.80 219.00 180.80 C 221.49 180.80 223.50 182.81 223.50 185.30 C 223.50 209.25 214.43 232.02 197.95 249.40 C 197.06 250.33 195.87 250.80 194.68 250.80 Z" fill="#ffff75" fill-opacity="0.26" fill-rule="nonzero" group-id="13,18" node-id="160" stroke="none" target-height="70" target-width="33.789993" target-x="189.71" target-y="180.8"></path><path d="M 72.20 245.24 C 71.02 245.24 69.83 244.78 68.95 243.85 C 53.83 228.00 45.50 207.21 45.50 185.30 C 45.50 182.81 47.52 180.80 50.00 180.80 C 52.48 180.80 54.50 182.81 54.50 185.30 C 54.50 204.88 61.94 223.47 75.46 237.64 C 77.17 239.44 77.11 242.28 75.31 244.00 C 74.44 244.83 73.32 245.24 72.20 245.24 Z" fill="#afeb75" fill-opacity="0.26" fill-rule="nonzero" group-id="13,19" node-id="165" stroke="none" target-height="64.44" target-width="31.669998" target-x="45.5" target-y="180.8"></path><path d="M 188.46 245.24 C 187.34 245.24 186.23 244.83 185.36 244.00 C 183.56 242.28 183.49 239.44 185.21 237.64 C 198.72 223.47 206.17 204.88 206.17 185.30 C 206.17 182.81 208.18 180.80 210.67 180.80 C 213.15 180.80 215.17 182.81 215.17 185.30 C 215.17 207.21 206.84 228.00 191.72 243.85 C 190.83 244.78 189.65 245.24 188.46 245.24 Z" fill="#afeb75" fill-opacity="0.26" fill-rule="nonzero" group-id="13,20" node-id="170" stroke="none" target-height="64.44" target-width="31.679993" target-x="183.49" target-y="180.8"></path><path d="M 85.40 245.56 C 84.41 245.56 83.42 245.23 82.58 244.56 C 64.52 230.04 54.17 208.44 54.17 185.30 C 54.17 182.81 56.18 180.80 58.67 180.80 C 61.15 180.80 63.17 182.81 63.17 185.30 C 63.17 205.70 72.30 224.75 88.22 237.55 C 90.16 239.10 90.47 241.94 88.91 243.87 C 88.02 244.98 86.72 245.56 85.40 245.56 Z" fill="#75d5eb" fill-opacity="0.26" fill-rule="nonzero" group-id="13,21" node-id="175" stroke="none" target-height="64.759995" target-width="36.300003" target-x="54.17" target-y="180.8"></path><path d="M 174.94 245.55 C 173.62 245.55 172.32 244.98 171.43 243.87 C 169.87 241.93 170.18 239.10 172.12 237.54 C 188.04 224.74 197.17 205.70 197.17 185.30 C 197.17 182.81 199.18 180.80 201.67 180.80 C 204.15 180.80 206.17 182.81 206.17 185.30 C 206.17 208.44 195.81 230.04 177.76 244.56 C 176.92 245.23 175.93 245.55 174.94 245.55 Z" fill="#75d5eb" fill-opacity="0.26" fill-rule="nonzero" group-id="13,22" node-id="180" stroke="none" target-height="64.75" target-width="36.300003" target-x="169.87" target-y="180.8"></path><path d="M 196.00 61.30 L 174.00 61.30 C 172.34 61.30 171.00 59.95 171.00 58.30 C 171.00 56.64 172.34 55.30 174.00 55.30 L 196.00 55.30 C 197.66 55.30 199.00 56.64 199.00 58.30 C 199.00 59.95 197.66 61.30 196.00 61.30 Z" fill="#ffffff" fill-rule="nonzero" node-id="184" stroke="none" target-height="6" target-width="28" target-x="171" target-y="55.3"></path><path d="M 208.00 71.30 L 190.00 71.30 C 188.34 71.30 187.00 69.95 187.00 68.30 C 187.00 66.64 188.34 65.30 190.00 65.30 L 208.00 65.30 C 209.66 65.30 211.00 66.64 211.00 68.30 C 211.00 69.95 209.66 71.30 208.00 71.30 Z" fill="#ffffff" fill-opacity="0.31" fill-rule="nonzero" group-id="14" node-id="188" stroke="none" target-height="6" target-width="24" target-x="187" target-y="65.3"></path><path d="M 41.00 110.30 L 19.00 110.30 C 17.34 110.30 16.00 108.95 16.00 107.30 C 16.00 105.64 17.34 104.30 19.00 104.30 L 41.00 104.30 C 42.66 104.30 44.00 105.64 44.00 107.30 C 44.00 108.95 42.66 110.30 41.00 110.30 Z" fill="#ffffff" fill-rule="nonzero" node-id="191" stroke="none" target-height="6" target-width="28" target-x="16" target-y="104.3"></path></svg>