<?xml version="1.0" standalone="no"?><!DOCTYPE svg PUBLIC "-//W3C//DTD SVG 1.1//EN" "http://www.w3.org/Graphics/SVG/1.1/DTD/svg11.dtd"><svg height="244" node-id="1" sillyvg="true" template-height="244" template-width="257" version="1.1" viewBox="0 0 257 244" width="257" xmlns="http://www.w3.org/2000/svg" xmlns:xlink="http://www.w3.org/1999/xlink"><defs node-id="199"></defs><g node-id="481"><g node-id="500"><g node-id="513"><path d="M 241.93 215.89 C 241.93 230.37 230.19 242.10 215.72 242.10 C 201.24 242.10 189.50 230.37 189.50 215.89 C 189.50 201.41 201.24 189.68 215.72 189.68 C 230.19 189.68 241.93 201.41 241.93 215.89 Z" fill="#f0e5ce" fill-rule="nonzero" group-id="1,20,33" node-id="206" stroke="none" target-height="52.420013" target-width="52.429993" target-x="189.5" target-y="189.68"></path><path d="M 215.72 243.60 C 200.44 243.60 188.00 231.17 188.00 215.89 C 188.00 200.61 200.44 188.18 215.72 188.18 C 231.00 188.18 243.43 200.61 243.43 215.89 C 243.43 231.17 231.00 243.60 215.72 243.60 Z M 215.72 191.18 C 202.09 191.18 191.00 202.26 191.00 215.89 C 191.00 229.52 202.09 240.60 215.72 240.60 C 229.34 240.60 240.43 229.52 240.43 215.89 C 240.43 202.26 229.34 191.18 215.72 191.18 Z" fill="#ccccde" fill-rule="nonzero" group-id="1,20,33" node-id="208" stroke="none" target-height="55.420013" target-width="55.429993" target-x="188" target-y="188.18"></path></g><path d="M 236.94 213.92 C 236.94 225.95 226.92 235.71 214.56 235.71 C 202.21 235.71 192.19 225.95 192.19 213.92 C 192.19 201.89 202.21 192.13 214.56 192.13 C 226.92 192.13 236.94 201.89 236.94 213.92 Z" fill="#fff3d6" fill-rule="nonzero" group-id="1,20" node-id="211" stroke="none" target-height="43.58" target-width="44.75" target-x="192.19" target-y="192.13"></path><path d="M 221.80 203.13 C 221.80 205.78 219.65 207.93 217.00 207.93 C 214.35 207.93 212.21 205.78 212.21 203.13 C 212.21 200.48 214.35 198.34 217.00 198.34 C 219.65 198.34 221.80 200.48 221.80 203.13 Z" fill="#f0e5ce" fill-rule="nonzero" group-id="1,20,34" node-id="215" stroke="none" target-height="9.589996" target-width="9.589996" target-x="212.21" target-y="198.34"></path><path d="M 213.61 224.57 C 213.61 227.82 210.98 230.45 207.73 230.45 C 204.49 230.45 201.86 227.82 201.86 224.57 C 201.86 221.33 204.49 218.70 207.73 218.70 C 210.98 218.70 213.61 221.33 213.61 224.57 Z" fill="#f0e5ce" fill-rule="nonzero" group-id="1,20,34" node-id="217" stroke="none" target-height="11.75" target-width="11.75" target-x="201.86" target-y="218.7"></path><path d="M 233.58 218.00 C 233.58 219.27 232.55 220.30 231.27 220.30 C 230.00 220.30 228.97 219.27 228.97 218.00 C 228.97 216.72 230.00 215.69 231.27 215.69 C 232.55 215.69 233.58 216.72 233.58 218.00 Z" fill="#f0e5ce" fill-rule="nonzero" group-id="1,20,34,39" node-id="221" stroke="none" target-height="4.6100006" target-width="4.6100006" target-x="228.97" target-y="215.69"></path><path d="M 227.54 228.41 C 227.54 230.22 226.07 231.69 224.26 231.69 C 222.45 231.69 220.98 230.22 220.98 228.41 C 220.98 226.60 222.45 225.13 224.26 225.13 C 226.07 225.13 227.54 226.60 227.54 228.41 Z" fill="#f0e5ce" fill-rule="nonzero" group-id="1,20,34" node-id="224" stroke="none" target-height="6.5599976" target-width="6.5599976" target-x="220.98" target-y="225.13"></path><path d="M 206.36 208.05 C 206.36 209.92 204.84 211.44 202.96 211.44 C 201.09 211.44 199.57 209.92 199.57 208.05 C 199.57 206.17 201.09 204.65 202.96 204.65 C 204.84 204.65 206.36 206.17 206.36 208.05 Z" fill="#f0e5ce" fill-rule="nonzero" group-id="1,20,34" node-id="226" stroke="none" target-height="6.7900085" target-width="6.7899933" target-x="199.57" target-y="204.65"></path><path d="M 217.45 234.87 C 217.45 236.14 216.42 237.17 215.14 237.17 C 213.87 237.17 212.84 236.14 212.84 234.87 C 212.84 233.60 213.87 232.56 215.14 232.56 C 216.42 232.56 217.45 233.60 217.45 234.87 Z" fill="#f0e5ce" fill-rule="nonzero" group-id="1,20,34,40" node-id="230" stroke="none" target-height="4.6100006" target-width="4.6100006" target-x="212.84" target-y="232.56"></path><path d="M 228.27 213.01 C 228.27 213.64 227.76 214.15 227.13 214.15 C 226.50 214.15 225.99 213.64 225.99 213.01 C 225.99 212.38 226.50 211.88 227.13 211.88 C 227.76 211.88 228.27 212.38 228.27 213.01 Z" fill="#f0e5ce" fill-rule="nonzero" group-id="1,20,34,41" node-id="235" stroke="none" target-height="2.269989" target-width="2.2799988" target-x="225.99" target-y="211.88"></path><path d="M 199.22 216.64 C 199.22 217.27 198.71 217.78 198.08 217.78 C 197.45 217.78 196.94 217.27 196.94 216.64 C 196.94 216.01 197.45 215.50 198.08 215.50 C 198.71 215.50 199.22 216.01 199.22 216.64 Z" fill="#f0e5ce" fill-rule="nonzero" group-id="1,20,34,42" node-id="240" stroke="none" target-height="2.2799988" target-width="2.2799988" target-x="196.94" target-y="215.5"></path><path d="M 208.35 201.96 C 208.35 202.59 207.84 203.10 207.21 203.10 C 206.58 203.10 206.07 202.59 206.07 201.96 C 206.07 201.34 206.58 200.83 207.21 200.83 C 207.84 200.83 208.35 201.34 208.35 201.96 Z" fill="#f0e5ce" fill-rule="nonzero" group-id="1,20,34,43" node-id="245" stroke="none" target-height="2.2700043" target-width="2.2799988" target-x="206.07" target-y="200.83"></path><path d="M 216.73 212.85 C 216.73 214.12 215.69 215.15 214.42 215.15 C 213.15 215.15 212.12 214.12 212.12 212.85 C 212.12 211.57 213.15 210.54 214.42 210.54 C 215.69 210.54 216.73 211.57 216.73 212.85 Z" fill="#f0e5ce" fill-rule="nonzero" group-id="1,20,34,44" node-id="250" stroke="none" target-height="4.6100006" target-width="4.6100006" target-x="212.12" target-y="210.54"></path><path d="M 233.11 200.03 C 233.11 201.30 232.08 202.33 230.81 202.33 C 229.53 202.33 228.50 201.30 228.50 200.03 C 228.50 198.75 229.53 197.72 230.81 197.72 C 232.08 197.72 233.11 198.75 233.11 200.03 Z" fill="#f0e5ce" fill-rule="nonzero" group-id="1,20,34,45" node-id="255" stroke="none" target-height="4.6100006" target-width="4.6100006" target-x="228.5" target-y="197.72"></path></g><g node-id="501"><g node-id="515"><path d="M 101.48 89.44 L 109.98 84.66 L 118.30 80.53 L 126.47 77.03 L 134.83 74.00 L 142.77 71.63 L 150.34 69.88 L 158.02 68.66 L 165.05 68.10 L 171.49 68.13 L 176.37 68.57 L 180.77 69.36 L 184.74 70.48 L 188.31 71.89 L 191.73 73.76 L 194.65 75.94 L 197.13 78.45 L 199.19 81.32 L 200.75 84.49 L 201.80 87.86 L 202.35 91.46 L 202.38 95.36 L 201.94 99.18 L 201.06 103.20 L 199.68 107.45 L 197.77 111.97 L 194.76 117.66 L 190.95 123.60 L 186.26 129.79 L 181.15 135.65 L 175.32 141.54 L 168.70 147.48 L 161.77 153.04 L 154.21 158.43 L 145.99 163.67 L 137.49 168.45 L 129.17 172.58 L 121.00 176.08 L 112.64 179.11 L 104.70 181.48 L 97.13 183.23 L 89.45 184.45 L 82.42 185.01 L 75.98 184.98 L 71.10 184.54 L 66.70 183.75 L 62.73 182.63 L 59.16 181.22 L 55.74 179.35 L 52.82 177.17 L 50.34 174.66 L 48.28 171.79 L 46.73 168.62 L 45.68 165.26 L 45.12 161.65 L 45.09 157.75 L 45.53 153.93 L 46.41 149.91 L 47.79 145.66 L 49.70 141.14 L 52.71 135.45 L 56.52 129.51 L 61.21 123.32 L 66.32 117.47 L 72.15 111.57 L 78.77 105.63 L 85.70 100.08 L 93.26 94.68 L 101.48 89.44 Z" fill="#d98bd6" fill-opacity="0.11880001" fill-rule="nonzero" group-id="1,21,35" node-id="264" stroke="none" target-height="116.909996" target-width="157.29001" target-x="45.09" target-y="68.1"></path></g><g node-id="516"><path d="M 95.23 66.71 L 106.29 60.42 L 117.19 54.84 L 127.93 49.94 L 138.89 45.53 L 149.48 41.85 L 159.71 38.86 L 170.09 36.41 L 179.87 34.67 L 189.10 33.61 L 196.15 33.21 L 202.73 33.21 L 208.89 33.58 L 214.66 34.29 L 220.48 35.45 L 225.76 36.98 L 230.56 38.85 L 234.92 41.04 L 239.05 43.73 L 242.65 46.78 L 245.77 50.18 L 248.42 53.98 L 250.52 58.11 L 252.06 62.46 L 253.04 67.07 L 253.47 71.98 L 253.35 76.86 L 252.74 81.98 L 251.60 87.36 L 249.88 93.03 L 247.79 98.46 L 245.21 104.07 L 242.11 109.88 L 238.44 115.90 L 233.15 123.54 L 227.01 131.35 L 219.95 139.35 L 212.49 146.96 L 204.26 154.57 L 195.21 162.16 L 185.83 169.33 L 175.77 176.31 L 165.01 183.09 L 153.95 189.39 L 143.06 194.97 L 132.31 199.87 L 121.35 204.27 L 110.76 207.95 L 100.54 210.94 L 90.15 213.40 L 80.37 215.13 L 71.14 216.20 L 64.10 216.60 L 57.51 216.60 L 51.35 216.23 L 45.58 215.51 L 39.76 214.35 L 34.48 212.83 L 29.68 210.96 L 25.32 208.76 L 21.19 206.07 L 17.59 203.03 L 14.48 199.62 L 11.82 195.82 L 9.72 191.69 L 8.19 187.34 L 7.20 182.73 L 6.77 177.82 L 6.89 172.94 L 7.50 167.83 L 8.65 162.45 L 10.37 156.77 L 12.45 151.35 L 15.03 145.74 L 18.13 139.93 L 21.80 133.90 L 27.09 126.26 L 33.23 118.45 L 40.29 110.45 L 47.75 102.84 L 55.98 95.24 L 65.03 87.64 L 74.42 80.48 L 84.47 73.50 L 95.23 66.71 Z" fill="#ffa3fc" fill-opacity="0.11880001" fill-rule="nonzero" group-id="1,21,36" node-id="269" stroke="none" target-height="183.39001" target-width="246.7" target-x="6.77" target-y="33.21"></path></g><path d="M 230.00 129.00 C 229.67 129.00 229.33 128.89 229.06 128.66 C 228.41 128.13 228.32 127.19 228.85 126.55 C 252.13 98.17 259.79 71.02 249.35 53.90 C 245.71 47.94 240.05 43.32 232.53 40.20 C 231.76 39.88 231.40 39.00 231.72 38.24 C 232.04 37.47 232.92 37.11 233.68 37.43 C 241.80 40.80 247.93 45.82 251.91 52.34 C 263.21 70.86 255.65 98.61 231.17 128.45 C 230.87 128.81 230.44 129.00 230.00 129.00 Z" fill="#6e6e96" fill-opacity="0.27" fill-rule="nonzero" group-id="1,21" node-id="272" stroke="none" target-height="91.89" target-width="34.889984" target-x="228.32" target-y="37.11"></path><path d="M 57.04 216.99 C 52.77 216.99 48.69 216.74 44.84 216.25 C 28.48 214.13 16.48 207.52 10.13 197.12 C 1.68 183.26 3.91 163.59 16.41 141.74 C 16.82 141.02 17.74 140.77 18.46 141.18 C 19.18 141.59 19.43 142.51 19.02 143.23 C 7.08 164.09 4.83 182.67 12.70 195.56 C 24.47 214.87 57.81 219.36 99.69 207.28 C 100.49 207.05 101.32 207.51 101.55 208.31 C 101.78 209.10 101.32 209.93 100.52 210.16 C 84.86 214.68 70.06 216.99 57.04 216.99 Z" fill="#6e6e96" fill-opacity="0.27" fill-rule="nonzero" group-id="1,21" node-id="274" stroke="none" target-height="78.59" target-width="100.1" target-x="1.68" target-y="140.77"></path><path d="M 107.31 168.37 C 106.70 168.37 106.12 167.99 105.90 167.38 C 105.62 166.60 106.02 165.74 106.80 165.46 C 117.05 161.75 127.93 156.46 138.26 150.16 C 172.97 128.98 195.47 99.89 187.39 86.64 C 182.72 78.99 168.41 77.63 149.10 83.01 C 148.31 83.23 147.48 82.77 147.25 81.97 C 147.03 81.17 147.50 80.34 148.30 80.12 C 169.28 74.28 184.46 76.08 189.95 85.08 C 199.18 100.23 177.16 129.94 139.82 152.72 C 129.17 159.22 118.41 164.45 107.82 168.28 C 107.65 168.34 107.48 168.37 107.31 168.37 Z" fill="#6e6e96" fill-opacity="0.27" fill-rule="nonzero" group-id="1,21" node-id="276" stroke="none" target-height="94.09" target-width="93.55999" target-x="105.62" target-y="74.28"></path><path d="M 202.24 32.76 C 202.24 38.81 197.34 43.71 191.30 43.71 C 185.25 43.71 180.35 38.81 180.35 32.76 C 180.35 26.72 185.25 21.82 191.30 21.82 C 197.34 21.82 202.24 26.72 202.24 32.76 Z" fill="#6e6e96" fill-opacity="0.27" fill-rule="nonzero" group-id="1,21,37" node-id="280" stroke="none" target-height="21.89" target-width="21.89" target-x="180.35" target-y="21.82"></path><path d="M 191.30 45.21 C 184.44 45.21 178.85 39.62 178.85 32.76 C 178.85 25.90 184.44 20.32 191.30 20.32 C 198.16 20.32 203.74 25.90 203.74 32.76 C 203.74 39.62 198.16 45.21 191.30 45.21 Z M 191.30 23.32 C 186.09 23.32 181.85 27.55 181.85 32.76 C 181.85 37.97 186.09 42.21 191.30 42.21 C 196.51 42.21 200.74 37.97 200.74 32.76 C 200.74 27.55 196.51 23.32 191.30 23.32 Z" fill="#000000" fill-opacity="0.27" fill-rule="nonzero" group-id="1,21,37" node-id="282" stroke="none" target-height="24.89" target-width="24.89" target-x="178.85" target-y="20.32"></path><path d="M 93.37 175.05 C 93.37 181.09 88.47 185.99 82.42 185.99 C 76.38 185.99 71.48 181.09 71.48 175.05 C 71.48 169.00 76.38 164.10 82.42 164.10 C 88.47 164.10 93.37 169.00 93.37 175.05 Z" fill="#6e6e96" fill-opacity="0.27" fill-rule="nonzero" group-id="1,21" node-id="285" stroke="none" target-height="21.89" target-width="21.89" target-x="71.48" target-y="164.1"></path><path d="M 35.59 126.41 C 35.59 131.37 31.57 135.39 26.61 135.39 C 21.65 135.39 17.63 131.37 17.63 126.41 C 17.63 121.45 21.65 117.43 26.61 117.43 C 31.57 117.43 35.59 121.45 35.59 126.41 Z" fill="#6e6e96" fill-opacity="0.27" fill-rule="nonzero" group-id="1,21,38" node-id="289" stroke="none" target-height="17.96" target-width="17.960001" target-x="17.63" target-y="117.43"></path><path d="M 26.61 136.89 C 20.83 136.89 16.13 132.19 16.13 126.41 C 16.13 120.63 20.83 115.93 26.61 115.93 C 32.39 115.93 37.09 120.63 37.09 126.41 C 37.09 132.19 32.39 136.89 26.61 136.89 Z M 26.61 118.93 C 22.49 118.93 19.13 122.29 19.13 126.41 C 19.13 130.53 22.49 133.89 26.61 133.89 C 30.73 133.89 34.09 130.53 34.09 126.41 C 34.09 122.29 30.73 118.93 26.61 118.93 Z" fill="#000000" fill-opacity="0.27" fill-rule="nonzero" group-id="1,21,38" node-id="291" stroke="none" target-height="20.96" target-width="20.960001" target-x="16.13" target-y="115.93"></path></g></g><path d="M 214.41 121.31 C 214.41 166.72 177.60 203.54 132.18 203.54 C 86.77 203.54 49.96 166.72 49.96 121.31 C 49.96 75.90 86.77 39.08 132.18 39.08 C 177.60 39.08 214.41 75.90 214.41 121.31 Z" fill="#b0cbff" fill-rule="nonzero" node-id="296" stroke="none" target-height="164.45999" target-width="164.45001" target-x="49.96" target-y="39.08"></path><path d="M 85.95 124.69 C 85.95 124.69 90.02 126.52 90.02 122.11 C 90.02 117.72 95.02 111.27 86.94 108.91 C 78.86 106.56 91.34 105.61 89.14 100.11 C 86.94 94.61 79.26 94.81 76.16 97.91 C 73.06 101.01 77.19 88.02 85.62 91.09 C 94.06 94.15 88.26 103.19 96.84 101.21 C 105.43 99.23 97.50 89.55 105.43 89.55 C 113.35 89.55 111.59 78.77 117.31 78.77 C 123.03 78.77 121.71 72.61 126.77 72.61 C 131.84 72.61 123.36 60.39 129.63 64.46 C 135.90 68.53 139.12 65.34 137.56 54.78 C 135.99 44.22 137.23 52.03 140.41 48.84 C 143.60 45.65 138.77 43.67 137.33 42.23 C 135.90 40.80 137.46 39.26 137.46 39.26 C 137.46 39.26 113.35 34.44 99.70 53.90 C 86.06 73.36 69.34 80.75 70.44 92.19 C 71.54 103.63 78.57 114.27 85.95 124.69 Z" fill="#ffffff" fill-opacity="0.23" fill-rule="nonzero" group-id="2" node-id="300" stroke="none" target-height="92.08" target-width="74.26001" target-x="69.34" target-y="34.44"></path><path d="M 95.36 194.84 C 95.36 194.84 97.47 177.70 95.36 175.59 C 93.24 173.47 85.18 167.66 85.18 161.72 C 85.18 155.78 75.77 146.71 78.91 143.57 C 82.05 140.44 87.00 139.61 87.00 135.48 C 87.00 131.36 88.37 121.73 100.64 121.73 C 112.91 121.73 128.59 130.86 131.72 134.00 C 134.86 137.14 140.96 140.27 142.45 144.73 C 143.94 149.18 144.60 149.18 148.23 149.18 C 151.86 149.18 152.19 153.97 156.64 153.97 C 161.10 153.97 164.40 157.11 168.69 157.11 C 172.98 157.11 165.39 168.00 161.43 171.96 C 157.47 175.92 150.87 187.81 143.28 187.81 C 135.69 187.81 132.05 196.88 126.61 196.88 C 121.16 196.88 114.75 201.68 114.75 201.68 C 114.75 201.68 99.35 198.83 95.36 194.84 Z" fill="#ffffff" fill-opacity="0.23" fill-rule="nonzero" group-id="3" node-id="305" stroke="none" target-height="79.94999" target-width="97.21" target-x="75.77" target-y="121.73"></path><path d="M 164.70 57.16 C 165.81 57.84 164.52 59.18 165.83 59.30 C 166.86 59.83 163.33 67.19 166.73 68.02 C 168.20 69.21 164.99 69.25 166.11 70.31 C 167.56 71.39 169.84 71.81 171.58 72.25 C 173.62 72.40 172.97 69.43 174.68 68.89 C 175.82 68.52 178.24 69.07 179.18 68.49 C 181.83 66.85 180.48 63.67 179.14 61.88 C 178.42 60.92 175.44 59.81 174.60 59.02 C 170.60 55.24 165.99 54.40 161.29 52.65 C 160.06 55.41 162.66 56.42 164.70 57.16 Z" fill="#ffffff" fill-opacity="0.92" fill-rule="nonzero" group-id="4" node-id="310" stroke="none" target-height="19.75" target-width="21.770004" target-x="160.06" target-y="52.65"></path><path d="M 171.73 73.76 L 171.73 73.76 C 171.65 73.76 171.56 73.75 171.47 73.75 C 171.38 73.74 171.30 73.73 171.21 73.71 L 170.43 73.52 C 168.68 73.10 166.70 72.62 165.21 71.51 C 165.16 71.47 165.12 71.44 165.08 71.40 C 164.41 70.77 164.33 70.12 164.38 69.69 C 164.43 69.26 164.60 68.93 164.82 68.67 C 163.11 67.05 163.80 63.74 164.24 61.61 C 164.32 61.21 164.42 60.73 164.48 60.35 C 164.03 60.01 163.66 59.42 163.69 58.38 C 162.28 57.86 160.46 57.05 159.76 55.39 C 159.33 54.38 159.38 53.25 159.92 52.04 C 160.24 51.31 161.07 50.97 161.82 51.24 C 162.83 51.62 163.83 51.95 164.83 52.28 C 168.49 53.50 172.27 54.75 175.63 57.93 C 175.84 58.13 176.69 58.58 177.25 58.87 C 178.52 59.54 179.73 60.17 180.34 60.98 C 181.03 61.90 182.58 64.30 182.12 66.74 C 181.88 68.00 181.13 69.05 179.96 69.77 C 179.02 70.35 177.84 70.29 176.69 70.26 C 176.45 70.26 176.21 70.25 175.98 70.25 C 175.42 70.25 175.21 70.29 175.13 70.32 C 175.02 70.40 174.84 70.88 174.73 71.16 C 174.39 72.07 173.75 73.76 171.73 73.76 Z M 168.22 69.76 C 169.11 70.11 170.16 70.37 171.13 70.60 L 171.66 70.73 C 171.75 70.57 171.85 70.30 171.93 70.10 C 172.25 69.24 172.75 67.93 174.22 67.46 C 174.68 67.31 175.20 67.25 175.98 67.25 C 176.24 67.25 176.50 67.26 176.77 67.27 C 177.01 67.27 177.25 67.28 177.49 67.28 C 178.18 67.28 178.38 67.22 178.43 67.20 C 178.98 66.85 179.12 66.45 179.17 66.18 C 179.33 65.33 178.85 63.99 177.94 62.78 C 177.70 62.49 176.50 61.87 175.86 61.53 C 174.91 61.03 174.09 60.60 173.57 60.11 C 170.69 57.39 167.38 56.29 163.88 55.13 C 163.71 55.07 163.53 55.01 163.35 54.95 C 163.94 55.29 164.70 55.56 165.21 55.75 C 165.31 55.78 165.40 55.83 165.49 55.88 C 166.50 56.51 166.68 57.46 166.69 58.06 C 167.87 58.82 167.56 60.33 167.17 62.21 C 166.94 63.35 166.31 66.38 167.09 66.57 C 167.30 66.62 167.50 66.72 167.67 66.86 C 168.51 67.53 168.65 68.24 168.62 68.72 C 168.59 69.15 168.43 69.49 168.22 69.76 Z" fill="#6e6e96" fill-opacity="0.92" fill-rule="nonzero" group-id="4" node-id="312" stroke="none" target-height="22.79" target-width="23.25" target-x="159.33" target-y="50.97"></path><path d="M 193.12 101.32 C 193.12 101.32 191.47 101.98 191.47 106.27 C 191.47 110.56 189.49 112.21 189.49 115.84 C 189.49 119.47 189.65 128.55 193.78 132.68 C 197.91 136.80 197.24 146.85 203.68 147.20 C 210.12 147.55 210.88 146.41 208.75 151.33 C 208.75 151.33 224.56 117.78 206.03 85.12 C 206.03 85.12 202.02 81.87 199.72 87.12 C 197.41 92.38 191.79 90.10 191.79 93.73 C 191.79 97.36 193.12 101.32 193.12 101.32 Z" fill="#ffffff" fill-opacity="0.23" fill-rule="nonzero" group-id="5" node-id="317" stroke="none" target-height="69.46" target-width="35.069992" target-x="189.49" target-y="81.87"></path><path d="M 132.18 205.04 C 86.02 205.04 48.46 167.48 48.46 121.31 C 48.46 75.14 86.02 37.58 132.18 37.58 C 178.35 37.58 215.91 75.14 215.91 121.31 C 215.91 167.48 178.35 205.04 132.18 205.04 Z M 132.18 40.58 C 87.67 40.58 51.46 76.80 51.46 121.31 C 51.46 165.82 87.67 202.04 132.18 202.04 C 176.70 202.04 212.91 165.82 212.91 121.31 C 212.91 76.80 176.70 40.58 132.18 40.58 Z" fill="#6e6e96" fill-rule="nonzero" node-id="320" stroke="none" target-height="167.45999" target-width="167.45001" target-x="48.46" target-y="37.58"></path><path d="M 85.62 123.92 C 84.74 123.06 84.21 121.73 84.15 120.58 C 84.08 119.22 85.59 116.96 85.82 115.87 C 86.91 110.72 77.67 112.86 79.24 109.31 C 80.15 108.49 79.81 107.44 80.47 106.55 C 81.00 105.84 82.38 105.09 83.13 104.62 C 84.28 103.68 84.77 100.86 83.88 100.31 C 79.69 98.49 79.69 102.09 77.06 103.19 C 71.18 105.67 71.09 90.69 75.30 89.93 C 76.92 87.26 76.44 85.94 79.99 85.81 C 82.31 85.73 84.74 85.90 86.61 86.95 C 87.45 86.79 86.11 85.08 86.88 85.36 C 87.83 85.24 88.67 85.46 89.49 85.85 C 89.61 86.05 89.51 86.29 89.57 86.51 C 90.12 86.99 90.11 86.67 90.55 87.49 C 91.49 87.55 92.47 87.51 93.41 87.56 C 95.53 87.52 91.91 98.55 96.59 97.52 C 98.10 96.70 98.70 95.31 98.83 93.16 C 98.92 91.60 97.75 90.24 98.10 88.50 C 98.69 85.60 103.34 85.23 105.74 84.16 C 107.89 83.19 108.04 83.17 109.11 80.92 C 110.03 79.00 111.33 77.51 113.04 76.03 C 114.74 74.56 115.23 74.67 117.43 74.31 C 118.80 74.09 117.92 72.96 118.93 71.57 C 119.47 70.98 120.12 70.76 120.83 70.72 C 120.83 70.72 120.83 70.72 120.83 70.72 C 120.83 70.72 128.41 70.45 124.62 66.65 C 120.83 62.86 123.80 56.92 128.58 59.06 C 131.82 60.51 131.89 61.74 132.77 61.66 C 136.93 54.02 130.04 51.75 130.04 51.75 C 127.83 51.21 126.44 52.47 124.62 50.65 C 123.57 49.60 121.13 49.00 120.30 50.51 C 120.06 51.47 120.03 52.47 119.45 53.28 C 118.88 54.07 118.05 53.85 117.44 54.43 C 116.80 55.04 116.63 55.66 116.21 56.20 C 115.73 56.83 114.56 59.25 113.26 59.17 C 112.05 59.10 110.92 56.88 111.30 55.95 C 111.83 54.62 115.35 54.56 113.28 52.76 C 112.46 52.05 110.69 52.60 109.64 51.51 C 108.97 49.50 108.61 47.33 110.58 46.66 C 111.47 46.35 112.82 46.67 113.76 46.48 C 114.75 46.28 115.70 45.73 116.70 45.68 C 119.18 45.54 120.18 46.29 122.03 45.19 C 123.15 44.52 125.53 41.88 127.43 42.29 C 128.32 42.87 128.44 43.97 127.43 44.17 C 126.86 44.16 126.18 44.28 125.58 44.55 C 129.33 44.05 132.39 45.46 134.31 47.27 C 135.19 47.00 136.03 46.68 135.99 45.48 C 135.79 44.21 133.72 44.52 132.84 43.49 C 132.64 43.26 133.04 39.34 132.87 39.08 L 131.56 39.08 C 104.30 39.29 80.19 52.76 65.38 73.36 C 65.19 74.72 65.05 76.06 64.82 77.25 C 63.91 82.04 64.80 86.90 64.82 91.69 C 64.83 93.78 63.86 95.57 64.08 97.56 C 64.29 99.50 65.39 100.56 66.34 102.15 C 67.27 103.70 67.68 105.71 68.93 106.68 C 70.17 107.63 71.74 107.87 73.08 109.31 C 74.67 111.02 74.31 112.56 75.40 114.14 C 76.42 115.62 78.59 114.92 79.45 116.45 C 80.27 117.89 79.52 120.40 80.31 122.02 C 80.59 122.62 81.38 123.63 82.37 124.68 C 85.35 126.13 85.88 125.24 85.62 123.92 Z" fill="#bbf7b2" fill-rule="nonzero" node-id="322" stroke="none" target-height="87.049995" target-width="73.06999" target-x="63.86" target-y="39.08"></path><path d="M 162.92 159.76 C 161.11 160.11 160.90 158.79 159.72 158.07 C 158.42 157.27 156.82 157.00 155.37 156.79 C 152.96 156.44 149.50 157.03 147.57 155.28 C 146.51 150.96 139.34 155.44 139.25 152.84 C 139.57 151.90 138.11 151.41 138.75 150.43 C 140.08 149.06 139.09 148.16 138.72 146.81 C 138.41 145.62 138.30 144.11 137.56 143.03 C 136.37 141.30 133.29 140.52 131.38 139.91 C 128.44 138.99 128.03 138.12 125.95 136.05 C 125.38 135.48 124.86 135.11 124.37 134.79 C 123.62 134.04 122.73 133.22 121.75 132.38 C 121.74 132.36 121.73 132.34 121.72 132.32 C 121.70 132.31 121.67 132.30 121.65 132.29 C 116.13 127.56 112.47 125.42 103.86 125.42 C 102.09 125.42 100.66 125.59 99.52 125.81 C 98.02 126.31 96.82 126.74 95.86 127.13 C 95.44 127.44 95.08 127.60 94.75 127.62 C 92.09 128.90 92.07 129.94 92.08 132.50 C 92.08 132.56 92.08 132.61 92.08 132.67 C 92.08 132.74 92.08 132.81 92.08 132.89 C 92.08 133.01 92.07 133.11 92.07 133.21 C 92.00 134.34 91.77 135.50 91.30 136.24 C 90.56 137.42 88.90 138.15 87.77 139.12 C 86.77 139.97 86.22 140.90 85.42 141.66 C 85.00 143.39 87.09 143.21 84.44 146.07 C 83.30 147.86 83.94 150.17 84.39 151.67 C 84.85 153.23 86.66 154.64 87.65 156.00 C 89.68 158.80 90.48 161.91 92.42 164.68 C 94.44 167.59 97.66 169.10 100.01 171.53 C 101.52 173.09 101.34 173.91 101.00 176.07 C 100.73 177.81 100.55 179.94 100.55 182.00 C 100.55 186.19 100.97 193.31 100.76 197.32 L 108.22 200.00 C 108.65 199.50 110.50 197.55 111.00 197.08 C 113.46 194.74 116.40 195.59 119.60 195.42 C 119.55 195.02 119.76 194.43 119.68 194.03 C 119.99 193.74 119.99 194.03 120.17 193.54 C 122.84 193.39 124.39 192.80 126.55 192.34 C 127.78 192.07 128.70 192.46 129.67 191.79 C 130.17 191.44 130.58 189.92 131.19 189.38 C 133.35 187.75 132.95 188.93 134.08 187.39 C 134.81 186.40 136.01 186.00 136.08 184.49 C 136.90 182.37 138.49 184.48 139.67 184.41 C 140.18 182.56 142.27 182.98 143.87 182.98 C 146.00 182.99 146.66 182.97 148.09 181.58 C 152.64 177.17 153.57 171.83 158.61 168.11 C 161.26 166.14 165.89 160.34 162.92 159.76 Z" fill="#bbf7b2" fill-rule="nonzero" node-id="324" stroke="none" target-height="74.58" target-width="82.59" target-x="83.3" target-y="125.42"></path><path d="M 83.35 104.41 C 84.49 103.47 84.98 100.65 84.09 100.10 C 83.27 99.74 82.61 99.60 82.07 99.60 C 81.87 100.34 81.51 101.05 81.04 101.43 C 80.29 101.91 78.90 102.65 78.38 103.37 C 77.72 104.26 78.05 105.31 77.14 106.13 C 76.42 107.77 78.00 108.19 79.80 108.68 C 80.27 107.94 80.14 107.08 80.69 106.34 C 81.22 105.62 82.60 104.88 83.35 104.41 Z M 74.75 111.91 C 74.95 112.59 75.15 113.25 75.62 113.93 C 76.15 114.69 76.98 114.87 77.77 115.08 C 77.73 114.40 77.64 113.77 77.36 113.27 C 76.81 112.29 75.73 112.22 74.75 111.91 Z M 133.04 41.39 C 133.10 40.25 133.18 39.01 133.09 38.87 L 131.77 38.88 C 131.42 38.88 131.06 38.89 130.71 38.90 C 130.68 39.63 130.67 40.22 130.74 40.31 C 131.30 40.96 132.31 41.08 133.04 41.39 Z M 83.80 112.17 C 83.79 112.33 83.77 112.50 83.73 112.69 C 83.50 113.78 81.99 116.04 82.06 117.39 C 82.11 118.54 82.65 119.88 83.53 120.73 C 83.78 122.03 83.27 122.91 80.44 121.58 C 80.47 121.66 80.49 121.74 80.52 121.81 C 80.81 122.41 81.60 123.42 82.59 124.47 C 85.57 125.92 86.10 125.02 85.84 123.70 C 84.96 122.85 84.43 121.52 84.37 120.36 C 84.30 119.01 85.81 116.75 86.04 115.66 C 86.46 113.62 85.29 112.73 83.80 112.17 Z M 67.52 103.94 C 67.95 104.94 68.40 105.89 69.14 106.46 C 70.06 107.17 71.15 107.48 72.20 108.18 C 71.97 107.51 71.65 106.83 70.99 106.12 C 69.88 104.94 68.62 104.57 67.52 103.94 Z M 111.17 55.99 C 111.27 56.00 111.36 55.98 111.46 55.96 C 111.47 55.89 111.49 55.81 111.52 55.74 C 111.74 55.18 112.50 54.84 113.14 54.51 C 113.51 53.99 113.82 53.46 114.03 53.15 C 113.92 52.98 113.76 52.78 113.50 52.55 C 112.82 51.96 111.49 52.24 110.46 51.73 C 109.92 52.01 109.39 52.32 109.21 52.78 C 108.83 53.70 109.96 55.92 111.17 55.99 Z M 91.32 84.39 C 90.38 84.33 89.40 84.36 88.47 84.31 C 88.02 83.50 88.04 83.81 87.48 83.33 C 87.43 83.11 87.52 82.87 87.41 82.67 C 86.59 82.28 85.74 82.06 84.79 82.18 C 84.02 81.90 85.37 83.61 84.52 83.77 C 82.66 82.72 80.22 82.55 77.91 82.63 C 74.35 82.76 74.83 84.08 73.22 86.75 C 69.53 87.42 69.14 99.02 73.07 100.19 C 71.92 96.35 72.87 90.20 75.53 89.72 C 77.14 87.05 76.66 85.72 80.22 85.60 C 82.53 85.52 84.97 85.69 86.83 86.74 C 87.68 86.58 86.33 84.87 87.10 85.15 C 88.05 85.03 88.90 85.25 89.72 85.64 C 89.83 85.84 89.74 86.08 89.79 86.30 C 90.35 86.78 90.33 86.46 90.78 87.28 C 91.19 87.30 91.62 87.31 92.05 87.31 C 92.10 85.66 92.05 84.37 91.32 84.39 Z M 133.38 43.57 C 133.07 43.82 132.65 43.96 132.22 44.10 C 130.30 42.29 127.24 40.87 123.50 41.37 C 124.09 41.11 124.77 40.98 125.34 41.00 C 126.32 40.80 126.23 39.77 125.42 39.18 C 124.88 39.23 124.33 39.27 123.80 39.33 C 122.29 39.94 120.77 41.51 119.94 42.01 C 118.09 43.12 117.08 42.37 114.61 42.50 C 113.62 42.56 112.66 43.11 111.67 43.30 C 110.73 43.49 109.39 43.18 108.49 43.48 C 106.52 44.15 106.88 46.33 107.55 48.34 C 108.05 48.85 108.70 49.00 109.35 49.09 C 109.24 47.89 109.56 46.87 110.80 46.45 C 111.69 46.15 113.04 46.46 113.98 46.27 C 114.97 46.08 115.92 45.53 116.92 45.47 C 119.40 45.33 120.40 46.09 122.25 44.98 C 123.37 44.31 125.75 41.68 127.65 42.09 C 128.54 42.66 128.67 43.76 127.65 43.97 C 127.08 43.96 126.40 44.08 125.81 44.34 C 129.55 43.85 132.61 45.26 134.53 47.07 C 135.41 46.80 136.25 46.48 136.21 45.27 C 136.02 44.14 134.36 44.27 133.38 43.57 Z M 131.76 52.32 C 132.23 53.81 132.12 55.82 130.67 58.48 C 129.79 58.56 129.73 57.34 126.49 55.88 C 121.70 53.74 118.73 59.68 122.53 63.48 C 126.33 67.27 118.74 67.54 118.74 67.54 C 118.74 67.54 118.74 67.54 118.73 67.55 C 118.03 67.58 117.38 67.81 116.84 68.39 C 115.83 69.79 116.71 70.91 115.34 71.13 C 113.14 71.48 112.65 71.39 110.95 72.85 C 109.24 74.33 107.94 75.82 107.02 77.74 C 105.94 79.99 105.80 80.01 103.65 80.98 C 101.25 82.05 96.60 82.42 96.01 85.33 C 95.66 87.06 96.83 88.43 96.74 89.98 C 96.61 92.13 96.01 93.52 94.50 94.34 C 94.43 94.36 94.36 94.36 94.29 94.37 C 94.42 96.27 94.98 97.71 96.81 97.31 C 98.31 96.49 98.92 95.10 99.05 92.94 C 99.14 91.39 97.96 90.03 98.32 88.30 C 98.91 85.39 103.56 85.02 105.96 83.94 C 108.11 82.98 108.25 82.95 109.33 80.71 C 110.24 78.79 111.55 77.30 113.26 75.82 C 114.96 74.35 115.45 74.46 117.65 74.10 C 119.02 73.88 118.14 72.75 119.14 71.36 C 119.69 70.78 120.33 70.55 121.04 70.51 C 121.04 70.51 121.05 70.51 121.05 70.51 C 121.05 70.51 128.63 70.24 124.84 66.44 C 121.04 62.65 124.01 56.71 128.80 58.85 C 132.04 60.30 132.10 61.53 132.98 61.45 C 135.83 56.22 133.51 53.51 131.76 52.32 Z" fill="#a8dea0" fill-opacity="0.77" fill-rule="nonzero" group-id="6" node-id="328" stroke="none" target-height="87.05" target-width="68.73" target-x="67.52" target-y="38.87"></path><path d="M 162.42 159.98 C 160.61 160.34 160.40 159.01 159.22 158.29 C 157.92 157.49 156.32 157.23 154.87 157.01 C 152.46 156.66 149.00 157.25 147.07 155.51 C 146.01 151.18 138.84 155.67 138.75 153.06 C 138.76 153.04 138.76 153.03 138.77 153.01 C 138.66 153.24 138.50 153.48 138.25 153.73 C 137.62 154.71 139.07 155.21 138.76 156.14 C 138.84 158.75 146.01 154.26 147.08 158.59 C 149.00 160.34 152.46 159.74 154.87 160.09 C 156.32 160.31 157.93 160.57 159.22 161.37 C 160.40 162.09 160.62 163.42 162.42 163.06 C 162.51 163.08 162.60 163.10 162.67 163.13 C 163.55 161.57 163.76 160.24 162.42 159.98 Z M 100.26 197.54 L 100.32 197.56 C 100.31 197.12 100.31 196.66 100.30 196.20 C 100.29 196.67 100.28 197.12 100.26 197.54 Z M 100.50 176.29 C 100.23 178.03 100.05 180.16 100.05 182.21 C 100.05 182.81 100.06 183.47 100.07 184.17 C 100.12 182.48 100.27 180.79 100.50 179.37 C 100.73 177.93 100.88 177.09 100.51 176.22 C 100.50 176.25 100.50 176.26 100.50 176.29 Z M 84.90 145.09 C 84.69 145.42 84.38 145.81 83.94 146.28 C 83.14 147.54 83.22 149.06 83.49 150.37 C 83.60 150.02 83.74 149.68 83.94 149.36 C 86.52 146.58 84.62 146.68 84.90 145.09 Z M 138.35 150.53 C 139.51 149.22 138.57 148.34 138.22 147.03 C 137.90 145.84 137.79 144.33 137.06 143.25 C 135.87 141.52 132.79 140.73 130.88 140.13 C 127.94 139.21 127.52 138.34 125.44 136.27 C 124.88 135.70 124.35 135.33 123.86 135.01 C 123.11 134.26 122.23 133.44 121.25 132.60 C 121.24 132.58 121.23 132.56 121.22 132.54 C 121.20 132.53 121.17 132.52 121.15 132.50 C 115.63 127.78 111.96 125.64 103.36 125.64 C 101.59 125.64 100.16 125.81 99.02 126.03 C 97.51 126.53 96.32 126.96 95.36 127.35 C 94.94 127.67 94.58 127.81 94.25 127.84 C 91.59 129.12 91.57 130.16 91.58 132.72 C 91.58 132.77 91.58 132.83 91.58 132.89 C 91.58 132.96 91.58 133.03 91.58 133.11 C 91.58 133.22 91.57 133.33 91.56 133.42 C 91.50 134.55 91.26 135.72 90.80 136.46 C 90.06 137.64 88.39 138.37 87.26 139.34 C 86.26 140.19 85.72 141.12 84.92 141.88 C 84.59 143.24 85.80 143.43 85.05 144.82 C 85.78 144.09 86.32 143.22 87.26 142.42 C 88.39 141.45 90.06 140.72 90.80 139.54 C 91.26 138.80 91.50 137.63 91.56 136.50 C 91.57 136.41 91.58 136.31 91.58 136.19 C 91.58 136.12 91.58 136.04 91.58 135.97 C 91.58 135.91 91.58 135.85 91.58 135.80 C 91.57 133.24 91.59 132.20 94.25 130.92 C 94.58 130.90 94.94 130.75 95.36 130.43 C 96.32 130.04 97.51 129.61 99.02 129.11 C 100.16 128.88 101.59 128.72 103.36 128.72 C 111.96 128.72 115.63 130.86 121.15 135.59 C 121.17 135.60 121.19 135.61 121.22 135.62 C 121.23 135.64 121.24 135.66 121.25 135.68 C 122.23 136.52 123.11 137.34 123.86 138.09 C 124.35 138.40 124.88 138.78 125.44 139.35 C 127.52 141.42 127.93 142.29 130.88 143.21 C 132.79 143.82 135.86 144.60 137.05 146.33 C 137.79 147.41 137.90 148.93 138.22 150.11 C 138.26 150.25 138.30 150.39 138.35 150.53 Z" fill="#d0f7cb" fill-rule="nonzero" node-id="331" stroke="none" target-height="71.92" target-width="80.619995" target-x="83.14" target-y="125.64"></path><path d="M 210.12 147.55 C 212.58 139.75 214.81 131.79 214.81 123.17 C 214.81 111.98 212.70 100.85 208.65 91.12 C 208.40 91.43 208.00 92.24 207.71 92.61 C 206.14 91.71 206.22 89.82 204.72 88.96 C 202.76 87.85 201.19 90.02 200.33 91.56 C 197.09 91.66 196.94 92.32 196.94 95.52 C 196.94 97.62 197.00 100.15 197.67 101.88 L 197.92 102.12 C 198.38 104.12 197.10 104.18 196.15 105.50 C 195.15 106.89 195.32 107.85 195.22 109.71 C 195.06 112.94 193.37 114.40 193.55 117.75 C 193.94 120.08 193.76 123.22 193.69 126.09 C 194.29 127.80 195.34 129.45 197.18 130.69 C 203.34 134.88 198.61 143.69 203.50 143.69 C 205.37 143.24 204.28 137.25 210.18 137.16 C 210.25 137.17 210.79 137.18 210.84 137.17 C 212.84 137.61 211.74 140.32 211.58 142.01 L 210.12 147.55 Z" fill="#bbf7b2" fill-rule="nonzero" node-id="333" stroke="none" target-height="59.700005" target-width="21.440002" target-x="193.37" target-y="87.85"></path><path d="M 162.95 159.66 C 162.73 159.70 162.53 159.72 162.35 159.72 C 161.25 161.24 159.77 162.77 158.64 163.60 C 153.59 167.32 152.66 172.66 148.12 177.07 C 146.69 178.46 146.03 178.48 143.90 178.47 C 142.29 178.47 140.20 178.05 139.70 179.90 C 138.52 179.97 136.93 177.86 136.11 179.98 C 136.04 181.49 134.84 181.89 134.11 182.88 C 132.97 184.42 133.38 183.24 131.22 184.88 C 130.61 185.41 130.20 186.94 129.70 187.28 C 128.73 187.95 127.81 187.56 126.58 187.83 C 124.42 188.29 122.87 188.88 120.20 189.04 C 120.02 189.52 120.02 189.23 119.71 189.52 C 119.79 189.92 119.58 190.51 119.64 190.92 C 116.43 191.08 113.49 190.23 111.03 192.58 C 110.54 193.04 108.68 194.99 108.26 195.49 L 100.84 192.83 C 100.86 194.47 100.86 195.99 100.79 197.22 L 108.26 199.89 C 108.68 199.39 110.53 197.44 111.03 196.98 C 113.49 194.63 116.43 195.48 119.64 195.32 C 119.58 194.91 119.79 194.33 119.71 193.93 C 120.02 193.64 120.02 193.92 120.20 193.44 C 122.87 193.29 124.42 192.69 126.58 192.23 C 127.81 191.96 128.73 192.35 129.70 191.69 C 130.20 191.34 130.61 189.81 131.22 189.28 C 133.38 187.65 132.98 188.82 134.11 187.28 C 134.84 186.29 136.04 185.89 136.11 184.38 C 136.92 182.27 138.52 184.37 139.70 184.31 C 140.20 182.45 142.29 182.87 143.90 182.88 C 146.03 182.88 146.69 182.86 148.12 181.48 C 152.67 177.06 153.60 171.72 158.64 168.00 C 161.29 166.04 165.93 160.24 162.95 159.66 Z M 138.75 146.71 C 138.72 146.56 138.68 146.40 138.65 146.24 C 138.57 146.56 138.71 146.82 138.88 147.08 C 138.83 146.96 138.79 146.84 138.75 146.71 Z M 139.32 148.21 C 139.31 148.25 139.30 148.29 139.29 148.34 C 139.30 148.55 139.35 148.71 139.45 148.84 C 139.44 148.63 139.39 148.42 139.32 148.21 Z M 101.03 171.56 C 101.38 169.40 101.55 168.59 100.04 167.02 C 97.69 164.59 94.48 163.09 92.45 160.17 C 90.52 157.40 89.72 154.30 87.68 151.50 C 86.69 150.14 84.88 148.73 84.42 147.16 C 84.36 146.94 84.28 146.70 84.22 146.45 C 83.45 148.16 84.02 150.19 84.42 151.56 C 84.88 153.12 86.69 154.53 87.68 155.90 C 89.71 158.69 90.52 161.80 92.45 164.57 C 94.48 167.48 97.69 168.99 100.04 171.42 C 100.44 171.83 100.71 172.19 100.90 172.53 C 100.94 172.21 100.98 171.87 101.03 171.56 Z M 100.62 180.21 C 100.60 180.77 100.58 181.33 100.58 181.90 C 100.58 184.60 100.76 188.53 100.82 192.05 C 100.92 188.79 100.71 184.01 100.62 180.21 Z" fill="#a8dea0" fill-opacity="0.77" fill-rule="nonzero" group-id="7" node-id="337" stroke="none" target-height="53.649994" target-width="82.479996" target-x="83.45" target-y="146.24"></path><path d="M 65.81 99.80 C 65.60 97.81 66.56 96.02 66.55 93.93 C 66.53 89.14 65.64 84.28 66.55 79.49 C 66.78 78.30 66.92 76.96 67.12 75.60 C 81.80 55.17 105.63 41.77 132.61 41.34 C 132.66 40.38 132.70 39.46 132.62 39.34 L 131.31 39.35 C 104.05 39.55 79.95 53.02 65.13 73.62 C 64.95 74.98 64.80 76.32 64.57 77.51 C 63.66 82.30 64.55 87.16 64.57 91.95 C 64.58 94.04 63.62 95.83 63.83 97.82 C 64.04 99.75 65.15 100.82 66.10 102.41 C 67.02 103.96 67.43 105.97 68.68 106.94 C 68.95 107.15 69.25 107.32 69.55 107.48 C 69.04 106.52 68.66 105.36 68.08 104.39 C 67.13 102.80 66.02 101.73 65.81 99.80 Z M 84.08 102.09 C 84.12 101.40 83.99 100.80 83.63 100.57 C 79.45 98.76 79.45 102.35 76.82 103.46 C 76.11 103.75 75.50 103.80 74.95 103.65 C 75.71 105.29 76.97 106.21 78.80 105.44 C 81.06 104.49 81.38 101.71 84.08 102.09 Z M 127.63 44.74 C 128.36 44.80 129.06 44.92 129.71 45.10 C 129.59 44.89 129.41 44.69 129.16 44.54 C 128.68 44.43 128.16 44.53 127.63 44.74 Z M 113.03 53.02 C 112.57 52.62 111.80 52.63 111.02 52.50 C 111.12 52.92 111.24 53.34 111.38 53.76 C 111.93 54.33 112.67 54.45 113.38 54.53 C 113.79 54.18 113.86 53.74 113.03 53.02 Z M 129.80 52.01 C 127.59 51.47 126.20 52.73 124.38 50.91 C 123.33 49.86 120.89 49.26 120.06 50.77 C 119.82 51.73 119.79 52.73 119.20 53.54 C 118.64 54.33 117.81 54.11 117.19 54.69 C 116.55 55.30 116.39 55.92 115.96 56.46 C 115.49 57.07 114.38 59.38 113.11 59.42 C 113.42 60.36 114.19 61.36 115.00 61.41 C 116.31 61.49 117.46 59.07 117.94 58.44 C 118.37 57.89 118.54 57.28 119.17 56.67 C 119.78 56.09 120.61 56.31 121.19 55.52 C 121.77 54.71 121.79 53.71 122.04 52.75 C 122.87 51.23 125.31 51.84 126.36 52.89 C 128.18 54.71 129.57 53.45 131.78 53.99 C 131.78 53.99 132.38 54.19 133.11 54.66 C 131.93 52.72 129.80 52.01 129.80 52.01 Z M 134.53 44.70 C 134.51 45.25 134.51 45.66 134.58 45.73 C 134.85 46.06 135.24 46.25 135.65 46.40 C 135.71 46.21 135.75 46.00 135.75 45.74 C 135.65 45.14 135.13 44.90 134.53 44.70 Z M 90.31 87.75 C 90.31 87.75 90.31 87.75 90.31 87.75 C 90.31 87.75 90.31 87.75 90.31 87.75 L 90.31 87.75 Z M 95.15 89.81 C 94.74 89.78 94.33 89.78 93.91 89.77 C 93.94 92.75 93.02 98.05 95.94 97.85 C 95.37 94.92 96.60 89.78 95.15 89.81 Z M 73.56 110.53 C 74.34 111.87 74.27 113.12 75.16 114.40 C 75.53 114.93 76.05 115.18 76.60 115.36 C 76.11 114.12 76.06 112.89 74.81 111.55 C 74.41 111.12 73.99 110.80 73.56 110.53 Z M 80.85 111.90 C 80.35 113.79 83.41 113.82 85.59 114.73 C 85.16 112.84 82.69 112.44 80.85 111.90 Z M 81.19 118.69 C 80.81 118.02 80.18 117.78 79.50 117.59 C 79.79 119.03 79.42 120.95 80.06 122.28 C 80.35 122.88 81.13 123.89 82.12 124.94 C 82.30 125.03 82.46 125.10 82.62 125.17 C 82.36 124.82 82.16 124.50 82.04 124.26 C 81.26 122.64 82.00 120.14 81.19 118.69 Z" fill="#d0f7cb" fill-rule="nonzero" node-id="340" stroke="none" target-height="85.83" target-width="72.130005" target-x="63.62" target-y="39.34"></path><path d="M 197.94 101.79 C 198.69 100.51 199.71 100.46 199.34 98.52 L 199.15 98.28 C 198.61 96.60 198.57 94.15 198.56 92.11 C 198.56 92.10 198.56 92.09 198.56 92.09 C 197.15 92.46 197.06 93.44 197.07 95.84 C 197.07 97.91 197.13 100.38 197.77 102.11 C 197.82 102.00 197.88 101.90 197.94 101.79 Z M 210.25 147.87 C 212.70 140.06 214.93 132.10 214.93 123.49 C 214.93 112.93 213.06 102.43 209.44 93.11 C 211.61 101.20 212.73 110.04 212.73 118.93 C 212.73 125.42 211.67 131.53 210.28 137.48 C 210.29 137.48 210.31 137.47 210.32 137.47 C 210.39 137.48 210.92 137.49 210.98 137.48 C 212.98 137.92 211.87 140.64 211.72 142.33 L 210.25 147.87 Z M 209.59 132.51 C 209.55 132.52 209.13 132.51 209.07 132.50 C 204.38 132.59 205.26 138.40 203.78 138.84 C 199.89 138.84 203.65 130.29 198.76 126.23 C 197.30 125.03 196.46 123.42 195.99 121.77 C 196.04 118.98 196.19 115.94 195.87 113.68 C 195.74 110.43 197.07 109.01 197.20 105.88 C 197.22 105.48 197.22 105.14 197.23 104.81 C 196.92 105.09 196.58 105.38 196.27 105.81 C 195.27 107.21 195.44 108.17 195.35 110.03 C 195.19 113.25 193.50 114.72 193.67 118.06 C 194.07 120.40 193.89 123.53 193.82 126.41 C 194.41 128.11 195.47 129.76 197.30 131.01 C 203.46 135.19 198.74 144.01 203.63 144.01 C 205.48 143.56 204.43 137.70 210.11 137.49 L 210.17 137.22 C 210.30 135.57 211.18 132.94 209.59 132.51 Z" fill="#a8dea0" fill-opacity="0.77" fill-rule="nonzero" group-id="8" node-id="344" stroke="none" target-height="55.78" target-width="21.429993" target-x="193.5" target-y="92.09"></path><path d="M 108.22 201.49 C 108.05 201.49 107.88 201.47 107.72 201.41 L 100.25 198.73 C 99.63 198.51 99.23 197.90 99.26 197.24 C 99.38 194.82 99.28 191.25 99.17 187.79 C 99.11 185.65 99.05 183.62 99.05 182.00 C 99.05 179.95 99.22 177.76 99.52 175.84 L 99.54 175.68 C 99.85 173.72 99.88 173.56 98.93 172.57 C 98.05 171.66 97.03 170.88 95.94 170.06 C 94.26 168.78 92.52 167.45 91.18 165.53 C 90.18 164.09 89.47 162.59 88.78 161.14 C 88.07 159.63 87.40 158.22 86.43 156.88 C 86.14 156.49 85.75 156.06 85.33 155.60 C 84.40 154.59 83.35 153.45 82.95 152.09 C 82.49 150.55 81.64 147.67 83.18 145.26 C 83.22 145.18 83.28 145.11 83.34 145.05 C 84.23 144.09 84.31 143.74 84.31 143.73 C 84.30 143.75 84.26 143.69 84.23 143.62 C 84.03 143.17 83.69 142.43 83.96 141.31 C 84.03 141.03 84.18 140.78 84.39 140.58 C 84.67 140.31 84.93 139.99 85.22 139.65 C 85.64 139.13 86.12 138.55 86.79 137.98 C 87.26 137.58 87.78 137.23 88.27 136.90 C 88.98 136.42 89.72 135.93 90.03 135.44 C 90.25 135.09 90.50 134.30 90.57 133.12 C 90.57 133.02 90.58 132.96 90.58 132.89 L 90.58 132.67 C 90.58 132.66 90.58 132.51 90.58 132.50 C 90.57 129.61 90.73 127.89 94.10 126.27 C 94.27 126.19 94.45 126.14 94.64 126.12 L 94.64 126.12 C 94.63 126.12 94.74 126.10 94.96 125.93 C 95.07 125.85 95.18 125.79 95.30 125.74 C 96.25 125.36 97.44 124.92 99.04 124.39 C 99.10 124.36 99.17 124.35 99.23 124.33 C 100.65 124.06 102.21 123.92 103.86 123.92 C 112.64 123.92 116.74 126.12 122.51 131.05 C 122.65 131.14 122.78 131.24 122.88 131.37 C 123.78 132.15 124.59 132.90 125.32 133.62 C 125.81 133.95 126.39 134.37 127.00 134.98 C 127.37 135.34 127.68 135.67 127.96 135.97 C 129.27 137.32 129.75 137.83 131.83 138.48 L 132.44 138.67 C 134.54 139.31 137.43 140.19 138.79 142.19 C 139.50 143.22 139.74 144.41 139.96 145.47 C 140.03 145.80 140.09 146.12 140.17 146.43 C 140.23 146.66 140.34 146.91 140.44 147.16 C 140.81 148.03 141.39 149.43 140.24 150.98 C 140.43 151.26 140.68 151.68 140.77 152.20 C 141.13 152.18 141.58 152.11 142.06 152.04 C 142.84 151.93 143.72 151.80 144.58 151.80 C 147.25 151.80 148.39 153.11 148.87 154.39 C 149.87 155.05 151.51 155.10 153.10 155.14 C 153.93 155.17 154.79 155.19 155.58 155.31 C 157.25 155.55 159.00 155.87 160.50 156.79 C 161.06 157.13 161.44 157.53 161.74 157.86 C 162.18 158.32 162.21 158.32 162.36 158.32 C 162.44 158.32 162.53 158.31 162.63 158.29 C 162.82 158.25 163.01 158.25 163.20 158.29 C 164.31 158.50 165.08 159.21 165.31 160.22 C 166.01 163.34 160.98 168.21 159.49 169.31 C 156.96 171.18 155.53 173.55 154.02 176.06 C 152.69 178.26 151.31 180.53 149.12 182.66 C 147.41 184.32 146.36 184.48 144.19 184.48 L 143.86 184.48 C 143.60 184.48 143.32 184.47 143.04 184.46 C 142.79 184.45 142.53 184.44 142.28 184.44 C 141.21 184.44 141.16 184.62 141.11 184.81 C 140.94 185.43 140.39 185.87 139.75 185.91 C 139.72 185.91 139.63 185.91 139.60 185.91 C 138.86 185.91 138.21 185.58 137.69 185.31 C 137.63 185.28 137.56 185.25 137.49 185.21 C 137.22 186.45 136.43 187.17 135.88 187.67 C 135.64 187.89 135.43 188.08 135.28 188.28 C 134.59 189.22 134.19 189.54 133.42 189.79 C 133.21 189.86 132.92 189.96 132.16 190.52 C 132.05 190.66 131.85 191.08 131.72 191.33 C 131.40 192.00 131.09 192.63 130.52 193.02 C 129.54 193.70 128.61 193.71 127.86 193.72 C 127.50 193.72 127.18 193.73 126.86 193.80 C 126.28 193.93 125.75 194.06 125.22 194.19 C 124.01 194.50 122.75 194.81 121.12 194.97 C 121.12 194.98 121.12 194.98 121.12 194.98 C 121.11 195.08 121.09 195.18 121.09 195.27 C 121.14 195.69 121.02 196.09 120.75 196.41 C 120.48 196.73 120.09 196.90 119.67 196.92 C 118.86 196.96 118.06 196.94 117.28 196.92 C 116.87 196.91 116.47 196.90 116.08 196.90 C 114.35 196.90 113.14 197.11 112.02 198.17 C 111.55 198.62 109.74 200.52 109.36 200.97 C 109.08 201.31 108.66 201.49 108.22 201.49 Z M 102.30 196.28 L 107.79 198.25 C 108.54 197.43 109.60 196.34 109.96 195.99 C 111.89 194.15 114.05 193.90 116.09 193.90 C 116.51 193.90 116.93 193.91 117.37 193.92 C 117.63 193.93 117.90 193.94 118.17 193.94 C 118.18 193.56 118.35 193.22 118.65 192.94 C 118.75 192.85 118.85 192.77 118.94 192.71 C 119.20 192.34 119.63 192.07 120.08 192.05 C 121.88 191.94 123.09 191.64 124.50 191.28 C 125.05 191.14 125.62 191.00 126.23 190.87 C 126.84 190.73 127.39 190.73 127.82 190.72 C 128.32 190.71 128.54 190.70 128.72 190.61 C 128.81 190.47 128.94 190.20 129.03 190.01 C 129.33 189.41 129.66 188.73 130.19 188.26 C 130.22 188.24 130.25 188.21 130.28 188.19 C 131.41 187.34 132.00 187.10 132.50 186.94 C 132.51 186.94 132.52 186.94 132.52 186.94 C 132.57 186.88 132.68 186.76 132.88 186.50 C 133.20 186.06 133.56 185.73 133.87 185.45 C 134.43 184.94 134.57 184.78 134.58 184.42 C 134.59 184.26 134.62 184.10 134.68 183.95 C 135.32 182.29 136.49 182.04 137.12 182.04 C 137.84 182.04 138.46 182.34 138.97 182.60 C 139.68 181.83 140.79 181.44 142.28 181.44 C 142.58 181.44 142.88 181.45 143.17 181.46 C 143.41 181.47 143.65 181.48 143.88 181.48 L 144.20 181.48 C 145.85 181.48 146.07 181.45 147.04 180.50 C 148.95 178.65 150.17 176.64 151.46 174.51 C 153.06 171.86 154.71 169.12 157.72 166.90 C 159.64 165.48 161.82 162.64 162.29 161.32 C 160.86 161.29 160.08 160.47 159.56 159.91 C 159.34 159.68 159.15 159.48 158.94 159.35 C 157.92 158.72 156.56 158.49 155.15 158.28 C 154.54 158.19 153.80 158.17 153.02 158.14 C 150.82 158.08 148.34 158.01 146.57 156.39 C 146.35 156.19 146.19 155.93 146.12 155.65 C 146.02 155.23 145.91 154.80 144.59 154.80 C 143.94 154.80 143.21 154.91 142.50 155.01 C 141.79 155.12 141.13 155.21 140.52 155.21 C 138.54 155.21 137.79 154.01 137.76 152.89 C 137.75 152.82 137.76 152.75 137.77 152.67 C 137.75 152.64 137.72 152.61 137.70 152.58 C 137.40 152.15 136.60 150.98 137.49 149.62 C 137.54 149.53 137.60 149.46 137.67 149.39 C 137.99 149.06 137.99 149.06 137.68 148.32 C 137.55 148.00 137.39 147.63 137.28 147.20 C 137.18 146.85 137.10 146.46 137.02 146.07 C 136.86 145.26 136.69 144.41 136.32 143.88 C 135.55 142.76 133.15 142.03 131.56 141.54 L 130.93 141.35 C 128.12 140.46 127.20 139.50 125.80 138.05 C 125.53 137.76 125.23 137.46 124.89 137.11 C 124.41 136.63 123.96 136.32 123.55 136.04 C 123.46 135.99 123.38 135.92 123.31 135.85 C 122.57 135.12 121.72 134.33 120.78 133.52 C 120.75 133.50 120.73 133.47 120.70 133.45 C 120.70 133.44 120.69 133.44 120.68 133.43 C 115.52 129.01 112.17 126.92 103.86 126.92 C 102.44 126.92 101.11 127.04 99.91 127.27 C 98.50 127.74 97.44 128.12 96.59 128.46 C 96.13 128.78 95.67 128.98 95.21 129.07 C 93.58 129.88 93.58 130.20 93.58 132.50 L 93.58 132.90 C 93.58 133.05 93.58 133.20 93.56 133.33 C 93.51 134.38 93.29 135.91 92.57 137.04 C 91.93 138.07 90.88 138.78 89.95 139.40 C 89.50 139.70 89.08 139.98 88.75 140.26 C 88.28 140.66 87.92 141.10 87.53 141.56 C 87.34 141.80 87.14 142.04 86.92 142.28 C 86.94 142.31 86.95 142.35 86.97 142.39 C 87.67 143.93 87.32 145.15 85.65 146.98 C 84.94 148.24 85.50 150.11 85.83 151.25 C 86.04 151.94 86.80 152.77 87.54 153.57 C 88.00 154.07 88.48 154.59 88.87 155.13 C 90.00 156.69 90.76 158.30 91.50 159.86 C 92.16 161.26 92.79 162.59 93.65 163.82 C 94.72 165.36 96.19 166.48 97.76 167.67 C 98.89 168.53 100.06 169.42 101.09 170.49 C 103.08 172.56 102.85 173.99 102.51 176.16 L 102.48 176.31 C 102.21 178.06 102.05 180.14 102.05 182.00 C 102.05 183.58 102.11 185.59 102.18 187.71 C 102.26 190.73 102.36 193.85 102.30 196.28 Z M 84.73 126.93 L 84.73 126.93 C 83.93 126.93 82.97 126.64 81.71 126.03 C 81.55 125.95 81.40 125.84 81.27 125.71 C 80.61 125.01 79.44 123.68 78.95 122.67 C 78.42 121.57 78.41 120.32 78.39 119.22 C 78.38 118.45 78.37 117.58 78.15 117.19 C 78.03 116.98 77.73 116.89 77.06 116.72 C 76.19 116.49 74.99 116.17 74.17 114.99 C 73.56 114.11 73.31 113.27 73.09 112.52 C 72.84 111.70 72.65 111.04 71.98 110.33 C 71.37 109.67 70.69 109.34 69.89 108.95 C 69.27 108.65 68.63 108.34 68.01 107.86 C 66.90 107.01 66.35 105.74 65.82 104.51 C 65.57 103.94 65.34 103.39 65.06 102.92 C 64.83 102.54 64.59 102.19 64.36 101.85 C 63.58 100.71 62.78 99.53 62.59 97.72 C 62.45 96.39 62.71 95.22 62.96 94.09 C 63.15 93.27 63.32 92.48 63.32 91.69 C 63.31 90.18 63.21 88.61 63.12 87.10 C 62.91 83.80 62.69 80.39 63.35 76.97 C 63.50 76.16 63.62 75.26 63.74 74.31 L 63.89 73.15 C 63.93 72.91 64.02 72.68 64.16 72.48 C 79.73 50.83 104.92 37.79 131.54 37.59 L 132.86 37.58 C 133.34 37.61 133.83 37.83 134.11 38.24 C 134.47 38.78 134.45 39.26 134.35 41.27 C 134.32 41.70 134.29 42.27 134.28 42.69 C 134.47 42.76 134.71 42.84 134.89 42.89 C 135.76 43.16 137.21 43.62 137.47 45.24 C 137.48 45.30 137.49 45.36 137.49 45.42 C 137.58 47.84 135.53 48.47 134.75 48.71 C 134.24 48.87 133.68 48.74 133.28 48.37 C 132.32 47.47 130.25 45.95 127.08 45.95 C 126.65 45.95 126.22 45.98 125.78 46.04 C 125.18 46.12 124.61 45.83 124.31 45.33 C 124.23 45.40 124.15 45.46 124.08 45.52 C 123.60 45.91 123.18 46.25 122.80 46.48 C 121.51 47.25 120.31 47.38 118.71 47.24 C 118.17 47.19 117.56 47.14 116.78 47.18 C 116.42 47.20 115.97 47.36 115.49 47.53 C 115.06 47.68 114.57 47.85 114.06 47.95 C 113.58 48.05 112.96 48.06 112.29 48.03 C 112.10 48.03 111.91 48.02 111.72 48.02 C 111.33 48.02 111.15 48.05 111.06 48.08 C 110.83 48.16 110.25 48.36 110.93 50.62 C 111.16 50.72 111.49 50.77 111.96 50.82 C 112.67 50.91 113.55 51.02 114.26 51.63 C 114.58 51.91 115.56 52.76 115.41 53.99 C 115.26 55.21 114.19 55.76 113.41 56.16 C 113.21 56.26 112.91 56.41 112.74 56.53 C 112.81 56.87 113.10 57.39 113.34 57.61 C 113.74 57.30 114.34 56.33 114.56 55.99 C 114.74 55.69 114.90 55.45 115.02 55.29 C 115.14 55.14 115.22 54.98 115.31 54.82 C 115.55 54.40 115.85 53.88 116.40 53.35 C 116.92 52.85 117.50 52.67 117.89 52.55 C 118.00 52.51 118.18 52.45 118.22 52.42 C 118.46 52.08 118.56 51.59 118.66 51.02 C 118.72 50.73 118.77 50.44 118.84 50.15 C 118.88 50.03 118.92 49.91 118.99 49.79 C 119.58 48.72 120.69 48.10 122.03 48.10 C 123.35 48.10 124.78 48.69 125.68 49.59 C 126.23 50.14 126.60 50.19 127.05 50.19 C 127.27 50.19 127.50 50.17 127.74 50.15 C 128.60 50.09 129.56 50.09 130.40 50.30 C 130.43 50.30 130.47 50.32 130.51 50.33 C 130.65 50.37 133.88 51.47 135.13 54.62 C 136.02 56.86 135.67 59.48 134.08 62.38 C 133.84 62.83 133.40 63.12 132.89 63.16 C 132.85 63.17 132.73 63.17 132.69 63.17 C 131.77 63.17 131.20 62.65 130.74 62.23 C 130.25 61.78 129.58 61.16 127.97 60.44 C 127.49 60.22 127.03 60.11 126.61 60.11 C 125.34 60.11 124.80 61.10 124.62 61.52 C 124.22 62.51 124.25 64.17 125.68 65.60 C 127.38 67.30 127.33 68.67 127.00 69.52 C 126.11 71.78 122.36 72.16 121.02 72.22 C 120.98 72.22 120.94 72.22 120.91 72.23 C 120.49 72.25 120.27 72.36 120.09 72.53 C 119.91 72.81 119.88 73.07 119.83 73.41 C 119.74 74.04 119.53 75.50 117.67 75.80 L 116.89 75.92 C 115.41 76.14 115.18 76.17 114.02 77.17 C 112.31 78.65 111.21 80.00 110.46 81.57 C 109.25 84.10 108.84 84.42 106.49 85.47 L 106.35 85.53 C 105.62 85.86 104.77 86.11 103.87 86.37 C 101.97 86.93 99.82 87.57 99.57 88.81 C 99.45 89.39 99.64 89.96 99.87 90.69 C 100.11 91.43 100.38 92.28 100.33 93.25 C 100.22 95.00 99.80 97.49 97.31 98.84 C 97.19 98.91 97.05 98.96 96.91 98.99 C 95.65 99.27 94.55 98.97 93.78 98.17 C 92.36 96.68 92.48 93.97 92.59 91.34 C 92.62 90.63 92.67 89.65 92.63 89.04 C 92.41 89.04 92.19 89.03 91.98 89.03 C 91.47 89.03 90.96 89.02 90.46 88.99 C 89.95 88.96 89.48 88.67 89.23 88.21 C 89.20 88.15 89.17 88.10 89.15 88.06 C 88.99 87.97 88.81 87.85 88.59 87.65 C 88.46 87.55 88.36 87.42 88.28 87.28 C 88.24 87.38 88.19 87.47 88.14 87.57 C 87.87 88.03 87.42 88.33 86.88 88.43 C 86.53 88.50 86.17 88.44 85.86 88.27 C 84.72 87.62 83.11 87.30 80.95 87.30 C 80.64 87.30 80.34 87.31 80.04 87.32 C 78.25 87.38 78.19 87.52 77.54 88.89 C 77.30 89.39 77.01 90.01 76.58 90.71 C 76.36 91.08 75.99 91.34 75.57 91.41 C 74.69 91.57 73.61 94.59 73.92 98.00 C 74.12 100.30 74.92 101.97 75.82 101.97 C 76.01 101.97 76.23 101.92 76.48 101.82 C 77.08 101.56 77.51 101.06 78.01 100.48 C 78.80 99.56 79.89 98.31 81.85 98.31 C 82.64 98.31 83.50 98.52 84.47 98.94 C 84.54 98.97 84.61 99.00 84.67 99.04 C 85.15 99.34 85.74 99.98 85.82 101.28 C 85.91 102.69 85.33 104.76 84.08 105.78 C 84.03 105.82 83.98 105.86 83.93 105.89 C 83.78 105.98 83.61 106.09 83.43 106.20 C 82.91 106.51 81.93 107.11 81.67 107.45 C 81.57 107.58 81.53 107.79 81.45 108.13 C 81.34 108.61 81.19 109.28 80.70 109.92 C 81.09 110.10 81.78 110.28 82.28 110.42 C 84.33 110.98 88.17 112.02 87.29 116.19 C 87.16 116.78 86.85 117.44 86.50 118.19 C 86.17 118.89 85.62 120.05 85.65 120.51 C 85.69 121.34 86.11 122.31 86.66 122.85 C 86.88 123.06 87.03 123.34 87.09 123.64 C 87.29 124.66 87.14 125.49 86.63 126.10 C 86.32 126.47 85.74 126.93 84.73 126.93 Z M 83.27 123.45 C 83.35 123.48 83.42 123.52 83.49 123.55 C 83.00 122.66 82.70 121.64 82.65 120.65 C 82.59 119.45 83.22 118.10 83.78 116.91 C 84.01 116.42 84.30 115.81 84.35 115.56 C 84.58 114.46 84.25 114.06 81.49 113.31 C 79.99 112.90 78.44 112.48 77.80 111.15 C 77.56 110.64 77.38 109.81 77.86 108.70 C 77.95 108.51 78.08 108.33 78.23 108.19 C 78.37 108.07 78.42 107.94 78.52 107.46 C 78.63 106.97 78.79 106.30 79.27 105.66 C 79.87 104.84 80.98 104.17 81.88 103.62 C 82.01 103.55 82.12 103.48 82.23 103.41 C 82.58 103.06 82.86 102.06 82.84 101.51 C 82.45 101.37 82.12 101.31 81.85 101.31 C 81.31 101.31 81.01 101.60 80.29 102.43 C 79.67 103.16 78.89 104.05 77.64 104.58 C 77.02 104.84 76.41 104.97 75.82 104.97 C 73.18 104.97 71.31 102.40 70.93 98.27 C 70.57 94.30 71.64 89.83 74.29 88.68 C 74.50 88.29 74.67 87.93 74.83 87.60 C 75.76 85.63 76.57 84.43 79.94 84.31 C 80.28 84.30 80.61 84.30 80.95 84.30 C 82.61 84.30 84.03 84.46 85.26 84.80 C 85.31 84.70 85.36 84.59 85.44 84.49 C 85.77 84.04 86.41 83.78 86.97 83.84 C 88.04 83.76 89.06 83.98 90.15 84.51 C 90.42 84.64 90.65 84.85 90.80 85.11 C 90.91 85.31 90.97 85.50 91.01 85.68 C 91.15 85.78 91.27 85.89 91.38 86.02 C 91.59 86.02 91.80 86.03 92.01 86.03 C 92.51 86.03 93.01 86.04 93.50 86.07 L 93.50 86.07 C 94.04 86.09 94.51 86.31 94.87 86.68 C 95.76 87.62 95.69 89.23 95.60 91.46 C 95.54 92.72 95.41 95.64 95.96 96.09 C 96.00 96.09 96.04 96.09 96.08 96.09 C 96.76 95.65 97.23 94.91 97.34 93.07 C 97.36 92.66 97.20 92.17 97.02 91.60 C 96.73 90.69 96.36 89.55 96.63 88.21 C 97.24 85.20 100.45 84.25 103.03 83.49 C 103.83 83.26 104.58 83.03 105.13 82.79 L 105.27 82.73 C 106.95 81.97 106.95 81.97 107.76 80.27 C 108.70 78.31 110.03 76.65 112.06 74.90 C 113.80 73.40 114.67 73.21 116.45 72.94 L 116.88 72.88 C 116.95 72.36 117.10 71.55 117.72 70.69 C 117.75 70.65 117.79 70.60 117.83 70.56 C 118.55 69.77 119.48 69.33 120.60 69.24 C 120.66 69.23 120.72 69.22 120.78 69.22 C 122.12 69.17 123.68 68.80 124.14 68.45 C 124.08 68.32 123.93 68.08 123.56 67.72 C 121.52 65.67 120.85 62.79 121.85 60.37 C 122.69 58.36 124.51 57.11 126.62 57.11 C 127.46 57.11 128.33 57.30 129.20 57.69 C 130.64 58.34 131.54 58.96 132.14 59.45 C 132.68 58.02 132.75 56.77 132.35 55.74 C 131.70 54.06 129.94 53.31 129.62 53.19 C 129.11 53.08 128.50 53.10 127.95 53.14 C 127.64 53.16 127.34 53.18 127.05 53.18 C 126.11 53.18 124.87 53.01 123.56 51.70 C 123.26 51.41 122.61 51.10 122.03 51.10 C 121.88 51.10 121.77 51.12 121.69 51.16 C 121.66 51.30 121.64 51.43 121.61 51.57 C 121.46 52.37 121.29 53.29 120.67 54.15 C 120.06 55.00 119.27 55.25 118.79 55.40 C 118.67 55.44 118.52 55.49 118.47 55.52 C 118.24 55.74 118.11 55.97 117.92 56.29 C 117.78 56.54 117.62 56.83 117.40 57.12 C 117.32 57.22 117.22 57.38 117.10 57.57 C 116.38 58.73 115.17 60.67 113.33 60.67 C 113.29 60.67 113.20 60.67 113.17 60.66 C 112.17 60.60 111.22 59.96 110.52 58.85 C 109.93 57.91 109.46 56.52 109.91 55.39 C 110.22 54.61 110.87 54.13 111.48 53.78 C 110.62 53.67 109.48 53.50 108.56 52.55 C 108.41 52.39 108.29 52.20 108.22 51.98 C 106.71 47.45 108.41 45.81 110.10 45.23 C 110.67 45.04 111.27 45.01 111.72 45.01 C 111.94 45.01 112.16 45.02 112.38 45.03 C 112.82 45.04 113.26 45.05 113.47 45.01 C 113.78 44.95 114.12 44.82 114.49 44.69 C 115.11 44.47 115.82 44.22 116.62 44.18 C 117.58 44.12 118.33 44.19 118.96 44.24 C 119.78 44.31 120.33 44.45 121.26 43.90 C 121.46 43.78 121.83 43.48 122.19 43.19 C 123.33 42.25 124.87 41.00 126.53 40.78 C 102.87 42.46 80.85 54.60 66.82 73.93 L 66.72 74.69 C 66.59 75.69 66.46 76.63 66.29 77.53 C 65.71 80.57 65.91 83.65 66.11 86.91 C 66.21 88.47 66.31 90.08 66.32 91.68 C 66.32 92.81 66.09 93.84 65.89 94.75 C 65.67 95.72 65.48 96.56 65.57 97.40 C 65.68 98.46 66.17 99.17 66.84 100.16 C 67.10 100.55 67.37 100.94 67.63 101.38 C 68.01 102.02 68.30 102.68 68.58 103.32 C 68.97 104.24 69.35 105.10 69.84 105.48 C 70.22 105.77 70.67 106.00 71.20 106.25 C 72.08 106.68 73.19 107.22 74.18 108.28 C 75.32 109.51 75.68 110.70 75.96 111.66 C 76.15 112.30 76.30 112.79 76.64 113.28 C 76.80 113.52 77.12 113.63 77.82 113.81 C 78.74 114.05 80.00 114.38 80.76 115.71 C 81.36 116.77 81.38 117.99 81.39 119.17 C 81.40 120.00 81.41 120.86 81.66 121.36 C 81.82 121.72 82.38 122.48 83.27 123.45 Z M 129.64 43.21 C 130.25 43.34 130.81 43.51 131.34 43.70 C 131.24 43.20 131.28 42.46 131.35 41.12 C 131.36 40.96 131.37 40.77 131.38 40.59 C 129.92 40.60 128.46 40.66 127.01 40.75 C 127.22 40.77 127.50 40.77 127.74 40.82 C 127.92 40.86 128.09 40.93 128.24 41.03 C 129.06 41.56 129.57 42.37 129.64 43.21 Z" fill="#6e6e96" fill-rule="nonzero" node-id="347" stroke="none" target-height="163.91" target-width="103.56" target-x="62.45" target-y="37.58"></path><path d="M 210.12 149.05 C 209.98 149.05 209.84 149.03 209.70 148.99 C 208.92 148.76 208.46 147.95 208.67 147.16 L 210.10 141.74 C 210.15 141.34 210.23 140.92 210.31 140.50 C 210.41 139.99 210.58 139.07 210.52 138.67 C 210.41 138.67 210.29 138.66 210.19 138.66 C 207.42 138.71 206.87 140.31 206.23 142.16 C 205.80 143.39 205.31 144.80 203.86 145.15 C 203.74 145.18 203.63 145.19 203.51 145.19 C 199.77 145.19 199.53 141.75 199.35 139.23 C 199.16 136.52 198.96 133.71 196.34 131.94 C 194.43 130.64 193.06 128.84 192.28 126.58 C 192.22 126.42 192.19 126.24 192.20 126.06 L 192.24 124.64 C 192.30 122.27 192.38 119.81 192.07 118.00 C 192.06 117.94 192.05 117.88 192.05 117.83 C 191.94 115.72 192.48 114.22 192.95 112.89 C 193.31 111.87 193.66 110.90 193.72 109.64 C 193.74 109.33 193.75 109.05 193.75 108.79 C 193.79 107.38 193.83 106.16 194.93 104.62 C 195.32 104.08 195.74 103.71 196.07 103.42 C 196.40 103.12 196.51 103.02 196.52 102.84 C 196.42 102.72 196.33 102.58 196.27 102.43 C 195.51 100.47 195.44 97.83 195.44 95.52 C 195.43 92.15 195.85 90.44 199.44 90.11 C 200.69 88.15 202.10 87.16 203.63 87.16 C 204.26 87.16 204.87 87.33 205.46 87.66 C 206.58 88.30 207.09 89.27 207.50 90.05 C 207.51 90.07 207.52 90.09 207.54 90.11 C 207.87 89.75 208.36 89.57 208.86 89.64 C 209.38 89.71 209.83 90.06 210.03 90.55 C 214.14 100.39 216.30 111.68 216.30 123.17 C 216.30 132.14 213.95 140.35 211.55 148.00 C 211.35 148.64 210.76 149.05 210.12 149.05 Z M 195.20 125.85 C 195.78 127.38 196.71 128.56 198.02 129.45 C 201.84 132.05 202.13 136.08 202.34 139.02 C 202.50 141.33 202.68 141.96 203.03 142.13 C 203.15 141.87 203.28 141.48 203.39 141.17 C 204.05 139.27 205.27 135.73 210.16 135.66 C 210.24 135.66 210.32 135.66 210.39 135.67 C 210.38 135.67 210.54 135.67 210.66 135.67 L 210.66 135.68 C 210.82 135.66 211.00 135.66 211.16 135.70 C 211.39 135.75 211.60 135.82 211.80 135.90 C 212.70 131.81 213.31 127.57 213.31 123.17 C 213.31 112.97 211.54 102.95 208.19 94.03 C 207.79 94.16 207.35 94.13 206.96 93.91 C 205.79 93.24 205.27 92.25 204.85 91.45 C 204.52 90.82 204.32 90.46 203.97 90.27 C 203.84 90.19 203.73 90.16 203.63 90.16 C 203.26 90.16 202.51 90.72 201.63 92.29 C 201.38 92.75 200.90 93.04 200.37 93.06 C 198.97 93.10 198.65 93.26 198.59 93.31 C 198.44 93.55 198.44 94.88 198.44 95.52 C 198.44 96.91 198.45 99.43 198.97 101.05 C 199.17 101.25 199.31 101.51 199.38 101.79 C 199.90 104.04 198.79 105.02 198.05 105.67 C 197.79 105.90 197.56 106.10 197.37 106.37 C 196.80 107.16 196.79 107.62 196.75 108.88 C 196.75 109.16 196.74 109.46 196.72 109.78 C 196.64 111.49 196.18 112.77 195.78 113.90 C 195.35 115.09 194.98 116.12 195.04 117.59 C 195.38 119.68 195.31 122.25 195.23 124.73 L 195.20 125.85 Z" fill="#6e6e96" fill-rule="nonzero" node-id="349" stroke="none" target-height="61.89" target-width="24.36" target-x="191.94" target-y="87.16"></path><path d="M 165.53 58.79 C 165.87 57.08 166.28 55.56 165.83 55.34 C 164.69 55.23 165.52 54.20 165.01 53.48 C 163.79 53.07 162.54 52.67 161.29 52.21 C 160.06 54.98 162.66 55.98 164.70 56.72 C 165.70 57.34 164.74 58.50 165.53 58.79 Z M 180.28 63.45 C 180.04 63.85 179.68 64.22 179.18 64.53 C 178.24 65.11 175.82 64.56 174.68 64.93 C 172.97 65.47 173.62 68.44 171.58 68.29 C 169.84 67.85 167.56 67.43 166.11 66.35 C 164.99 65.28 168.20 65.24 166.73 64.06 C 166.05 63.90 165.65 63.46 165.43 62.88 C 165.07 64.96 164.96 67.15 166.73 67.58 C 168.20 68.76 164.99 68.80 166.11 69.87 C 167.56 70.95 169.84 71.37 171.58 71.81 C 173.62 71.96 172.97 68.99 174.68 68.44 C 175.82 68.08 178.24 68.63 179.18 68.05 C 181.00 66.92 180.93 65.08 180.28 63.45 Z" fill="#6e6e96" fill-opacity="0.15" fill-rule="nonzero" group-id="9" node-id="353" stroke="none" target-height="19.75" target-width="20.940002" target-x="160.06" target-y="52.21"></path><path d="M 180.73 67.08 C 180.47 67.53 180.10 67.94 179.58 68.30 C 178.61 68.96 176.14 68.39 174.96 68.82 C 173.20 69.45 173.82 72.73 171.73 72.59 C 169.95 72.14 167.63 71.71 166.16 70.54 C 165.03 69.37 168.32 69.28 166.84 67.99 C 166.14 67.82 165.74 67.35 165.53 66.70 C 165.12 69.02 164.98 71.45 166.78 71.89 C 168.27 73.17 164.97 73.27 166.10 74.43 C 167.57 75.61 169.90 76.03 171.67 76.49 C 173.76 76.63 173.15 73.35 174.90 72.72 C 176.09 72.29 178.55 72.86 179.52 72.20 C 181.41 70.92 181.37 68.87 180.73 67.08 Z M 165.70 62.18 C 166.07 60.28 166.51 58.59 166.06 58.35 C 164.88 58.25 165.76 57.09 165.25 56.31 C 164.00 55.87 162.73 55.45 161.46 54.96 C 160.15 58.04 162.80 59.11 164.87 59.89 C 165.90 60.57 164.89 61.87 165.70 62.18 Z" fill="#6e6e96" fill-opacity="0.15" fill-rule="nonzero" group-id="10" node-id="358" stroke="none" target-height="21.669998" target-width="21.26001" target-x="160.15" target-y="54.96"></path><path d="M 156.02 42.39 C 185.65 53.54 206.73 82.14 206.73 115.66 C 206.73 158.89 171.69 193.93 128.47 193.93 C 87.75 193.93 54.30 162.83 50.56 123.09 C 51.52 167.66 87.95 203.50 132.76 203.50 C 178.17 203.50 214.99 166.69 214.99 121.27 C 214.98 83.94 190.10 52.43 156.02 42.39 Z" fill="#6e6e96" fill-opacity="0.15" fill-rule="nonzero" group-id="11" node-id="363" stroke="none" target-height="161.11" target-width="164.43001" target-x="50.56" target-y="42.39"></path><path d="M 239.56 163.97 C 240.29 161.75 242.56 159.03 244.61 157.91 L 244.62 157.91 C 246.67 156.79 246.67 154.97 244.62 153.86 L 244.61 153.86 C 242.56 152.75 240.17 150.24 239.31 148.29 C 238.44 146.34 237.03 146.34 236.17 148.29 C 235.31 150.24 232.92 152.75 230.86 153.86 L 230.85 153.86 C 228.79 154.97 228.79 156.79 230.85 157.91 L 230.86 157.91 C 232.92 159.02 235.18 161.75 235.91 163.97 L 236.42 165.54 C 237.15 167.76 238.32 167.76 239.05 165.54 L 239.56 163.97 Z" fill="#ccccde" fill-opacity="0.51" fill-rule="nonzero" group-id="12" node-id="368" stroke="none" target-height="21.419998" target-width="17.880005" target-x="228.79" target-y="146.34"></path><path d="M 27.19 190.19 C 27.80 188.31 29.73 185.99 31.48 185.04 L 31.49 185.04 C 33.23 184.10 33.23 182.55 31.49 181.60 L 31.48 181.59 C 29.73 180.65 27.71 178.52 26.97 176.86 C 26.24 175.21 25.03 175.21 24.30 176.86 C 23.57 178.52 21.54 180.65 19.79 181.59 L 19.78 181.60 C 18.04 182.54 18.04 184.09 19.78 185.04 L 19.79 185.04 C 21.54 185.99 23.47 188.31 24.08 190.19 L 24.52 191.53 C 25.13 193.42 26.14 193.42 26.75 191.53 L 27.19 190.19 Z" fill="#ccccde" fill-opacity="0.51" fill-rule="nonzero" group-id="13" node-id="373" stroke="none" target-height="18.209991" target-width="15.189999" target-x="18.04" target-y="175.21"></path><path d="M 106.48 23.63 C 107.29 21.14 109.83 18.08 112.14 16.83 L 112.16 16.82 C 114.46 15.57 114.46 13.53 112.16 12.28 L 112.14 12.27 C 109.83 11.02 107.16 8.21 106.19 6.02 C 105.22 3.83 103.63 3.83 102.66 6.02 C 101.70 8.21 99.02 11.02 96.71 12.27 L 96.70 12.28 C 94.39 13.53 94.39 15.57 96.70 16.82 L 96.71 16.83 C 99.02 18.08 101.56 21.14 102.38 23.63 L 102.96 25.39 C 103.77 27.88 105.10 27.88 105.90 25.39 L 106.48 23.63 Z" fill="#ccccde" fill-opacity="0.51" fill-rule="nonzero" group-id="14" node-id="377" stroke="none" target-height="24.05" target-width="20.07" target-x="94.39" target-y="3.83"></path><path d="M 224.09 24.47 C 224.56 23.04 226.02 21.29 227.34 20.57 L 227.34 20.57 C 228.66 19.85 228.66 18.68 227.34 17.97 L 227.34 17.96 C 226.02 17.25 224.48 15.64 223.92 14.38 C 223.37 13.13 222.46 13.13 221.90 14.38 C 221.35 15.64 219.81 17.25 218.49 17.96 L 218.49 17.97 C 217.17 18.68 217.17 19.86 218.49 20.57 L 218.49 20.57 C 219.81 21.29 221.27 23.05 221.74 24.47 L 222.07 25.48 C 222.54 26.91 223.30 26.91 223.76 25.48 L 224.09 24.47 Z" fill="#ccccde" fill-opacity="0.51" fill-rule="nonzero" group-id="15" node-id="382" stroke="none" target-height="13.78" target-width="11.4900055" target-x="217.17" target-y="13.13"></path><path d="M 159.17 232.47 C 159.64 231.04 161.10 229.29 162.42 228.58 L 162.43 228.58 C 163.75 227.86 163.75 226.69 162.43 225.97 L 162.42 225.97 C 161.10 225.25 159.57 223.64 159.01 222.38 C 158.46 221.13 157.54 221.13 156.99 222.38 C 156.43 223.64 154.90 225.25 153.58 225.97 L 153.57 225.97 C 152.25 226.69 152.25 227.86 153.57 228.58 L 153.58 228.58 C 154.90 229.29 156.36 231.05 156.83 232.47 L 157.16 233.49 C 157.62 234.92 158.38 234.92 158.85 233.49 L 159.17 232.47 Z" fill="#ccccde" fill-opacity="0.51" fill-rule="nonzero" group-id="16" node-id="387" stroke="none" target-height="13.789993" target-width="11.5" target-x="152.25" target-y="221.13"></path><path d="M 32.09 85.91 C 32.56 84.48 34.02 82.73 35.34 82.02 L 35.35 82.01 C 36.67 81.30 36.67 80.12 35.35 79.41 L 35.34 79.41 C 34.02 78.69 32.49 77.08 31.93 75.82 C 31.37 74.57 30.46 74.57 29.91 75.82 C 29.35 77.08 27.82 78.69 26.50 79.41 L 26.49 79.41 C 25.17 80.12 25.17 81.30 26.49 82.01 L 26.50 82.02 C 27.82 82.73 29.28 84.49 29.75 85.91 L 30.08 86.92 C 30.54 88.35 31.30 88.35 31.77 86.92 L 32.09 85.91 Z" fill="#ccccde" fill-opacity="0.51" fill-rule="nonzero" group-id="17" node-id="392" stroke="none" target-height="13.779999" target-width="11.499998" target-x="25.17" target-y="74.57"></path><path d="M 74.14 48.48 L 58.20 41.77 L 64.50 58.11" fill="#00a0c6" fill-opacity="0.187" fill-rule="nonzero" group-id="18,22" node-id="399" stroke="none" target-height="16.34" target-width="15.939999" target-x="58.2" target-y="41.77"></path><path d="M 59.77 36.26 L 52.70 43.34 L 55.74 46.38 L 55.74 46.37 C 55.75 46.39 55.77 46.41 55.78 46.42 C 56.42 47.06 58.53 46.00 60.48 44.05 C 62.44 42.09 63.50 39.98 62.86 39.34 C 62.84 39.33 62.83 39.32 62.81 39.30 L 62.81 39.30 L 59.77 36.26 Z" fill="#c9d2e3" fill-opacity="0.34" fill-rule="nonzero" group-id="18" node-id="402" stroke="none" target-height="10.800003" target-width="10.799999" target-x="52.7" target-y="36.26"></path><path d="M 58.70 39.49 L 61.87 42.67 L 63.03 39.72 L 60.37 37.06 Z" fill="#fcfcfc" fill-opacity="0.34" fill-rule="nonzero" group-id="18" node-id="404" stroke="none" target-height="5.609997" target-width="4.329998" target-x="58.7" target-y="37.06"></path><path d="M 59.07 35.56 L 52.00 42.64 C 51.81 42.83 51.71 43.08 51.71 43.34 C 51.71 43.60 51.81 43.85 52.00 44.03 L 55.04 47.08 C 55.23 47.27 55.51 47.38 55.79 47.36 C 56.07 47.35 56.33 47.22 56.50 47.00 C 56.31 47.23 56.04 47.36 55.74 47.36 C 55.45 47.36 55.17 47.23 54.98 47.01 C 55.00 47.03 55.04 47.08 55.08 47.12 C 56.45 48.49 59.23 46.70 61.18 44.74 C 63.13 42.79 64.93 40.02 63.55 38.64 C 63.54 38.63 63.54 38.63 63.53 38.62 C 63.50 38.59 63.47 38.57 63.46 38.56 C 63.69 38.75 63.81 39.03 63.81 39.33 C 63.80 39.64 63.65 39.91 63.40 40.09 C 63.63 39.92 63.78 39.66 63.80 39.37 C 63.82 39.09 63.72 38.80 63.52 38.60 L 60.48 35.56 C 60.09 35.17 59.46 35.17 59.07 35.56 Z M 62.22 38.51 L 62.22 38.51 C 61.98 38.69 61.83 38.97 61.82 39.27 C 61.81 39.58 61.94 39.86 62.17 40.06 C 62.17 40.06 62.19 40.08 62.19 40.08 C 62.19 40.07 62.16 40.05 62.16 40.04 C 62.08 39.97 62.06 39.89 62.05 39.87 C 62.10 40.23 61.46 41.67 59.78 43.35 C 58.10 45.03 56.66 45.66 56.30 45.62 C 56.32 45.62 56.40 45.64 56.48 45.72 C 56.50 45.74 56.52 45.76 56.52 45.77 C 56.52 45.77 56.50 45.74 56.50 45.74 C 56.31 45.51 56.03 45.38 55.73 45.39 C 55.44 45.39 55.16 45.52 54.97 45.75 C 55.15 45.53 55.41 45.40 55.69 45.39 C 55.96 45.38 56.24 45.48 56.44 45.68 L 53.39 42.64 C 53.58 42.83 53.68 43.08 53.68 43.34 C 53.68 43.60 53.58 43.85 53.39 44.03 L 60.47 36.96 C 60.08 37.34 59.46 37.34 59.07 36.96 L 62.11 40.00 C 61.91 39.80 61.81 39.52 61.83 39.23 C 61.85 38.94 61.99 38.68 62.22 38.51 Z" fill="#6e6e96" fill-opacity="0.34" fill-rule="nonzero" group-id="18" node-id="406" stroke="none" target-height="13.3200035" target-width="13.220001" target-x="51.71" target-y="35.17"></path><path d="M 40.65 44.24 C 41.61 45.20 41.61 46.77 40.65 47.73 L 29.77 58.61 C 28.81 59.57 27.24 59.57 26.28 58.61 L 17.23 49.56 C 16.27 48.60 16.27 47.02 17.23 46.06 L 28.10 35.19 C 29.07 34.22 30.64 34.22 31.60 35.19 L 40.65 44.24 Z" fill="#a3d9ff" fill-opacity="0.34" fill-rule="nonzero" group-id="18" node-id="408" stroke="none" target-height="25.349998" target-width="25.34" target-x="16.27" target-y="34.22"></path><path d="M 54.48 28.77 L 45.12 38.12 L 50.95 43.94 L 50.95 43.94 C 50.97 43.96 50.99 43.98 51.01 44.00 C 51.86 44.85 54.64 43.45 57.23 40.87 C 59.81 38.28 61.21 35.50 60.36 34.65 C 60.34 34.63 60.32 34.61 60.30 34.59 L 60.31 34.59 L 54.48 28.77 Z" fill="#c9d2e3" fill-opacity="0.34" fill-rule="nonzero" group-id="18" node-id="410" stroke="none" target-height="16.079998" target-width="16.09" target-x="45.12" target-y="28.77"></path><path d="M 52.20 32.86 L 58.63 39.30 C 58.63 39.30 61.02 35.49 60.36 34.65 C 59.71 33.81 54.93 29.17 54.93 29.17 L 52.20 32.86 Z" fill="#fcfcfc" fill-opacity="0.1972" fill-rule="nonzero" group-id="18,23" node-id="414" stroke="none" target-height="10.129999" target-width="8.82" target-x="52.2" target-y="29.17"></path><path d="M 53.78 28.07 L 44.42 37.42 C 44.24 37.61 44.13 37.86 44.13 38.12 C 44.13 38.38 44.24 38.63 44.42 38.82 L 50.25 44.64 C 50.44 44.83 50.69 44.94 50.96 44.93 C 51.23 44.93 51.48 44.82 51.66 44.62 C 51.47 44.83 51.19 44.94 50.91 44.93 C 50.62 44.91 50.35 44.78 50.18 44.55 C 50.20 44.59 50.24 44.64 50.29 44.69 C 51.85 46.25 55.24 44.24 57.92 41.56 C 59.69 39.79 61.59 37.22 61.59 35.36 C 61.59 34.64 61.30 34.19 61.05 33.95 C 61.00 33.89 60.95 33.85 60.92 33.83 C 61.15 34.02 61.29 34.31 61.28 34.61 C 61.28 34.91 61.13 35.19 60.89 35.38 C 61.12 35.21 61.26 34.94 61.28 34.66 C 61.30 34.37 61.20 34.09 60.99 33.89 L 55.17 28.07 C 54.79 27.68 54.16 27.68 53.78 28.07 Z M 59.70 33.81 L 59.70 33.81 C 59.46 34.00 59.31 34.28 59.31 34.58 C 59.30 34.89 59.44 35.17 59.67 35.36 C 59.69 35.38 59.67 35.36 59.65 35.34 C 59.63 35.32 59.61 35.28 59.61 35.27 C 59.73 35.68 59.02 37.66 56.52 40.17 C 54.02 42.67 52.03 43.38 51.63 43.26 C 51.64 43.26 51.67 43.27 51.70 43.30 C 51.72 43.33 51.73 43.34 51.73 43.34 C 51.73 43.34 51.72 43.33 51.72 43.33 C 51.54 43.10 51.27 42.97 50.99 42.95 C 50.70 42.94 50.43 43.05 50.23 43.26 C 50.41 43.07 50.66 42.96 50.93 42.95 C 51.20 42.95 51.45 43.06 51.64 43.25 L 45.82 37.42 C 46.00 37.61 46.10 37.86 46.10 38.12 C 46.10 38.39 46.00 38.64 45.82 38.82 L 55.17 29.47 C 54.78 29.85 54.16 29.85 53.77 29.47 L 59.60 35.29 C 59.40 35.09 59.29 34.81 59.31 34.52 C 59.34 34.24 59.48 33.98 59.70 33.81 Z" fill="#6e6e96" fill-opacity="0.34" fill-rule="nonzero" group-id="18" node-id="417" stroke="none" target-height="18.57" target-width="17.46" target-x="44.13" target-y="27.68"></path><path d="M 39.53 11.49 L 27.85 23.17 L 42.94 38.26 L 42.94 38.25 C 42.96 38.28 42.98 38.31 43.00 38.33 C 44.07 39.39 47.54 37.64 50.77 34.41 C 54.00 31.18 55.75 27.71 54.69 26.65 C 54.66 26.62 54.64 26.60 54.61 26.58 L 54.62 26.58 L 39.53 11.49 Z" fill="#c9d2e3" fill-opacity="0.34" fill-rule="nonzero" group-id="18" node-id="419" stroke="none" target-height="27.9" target-width="27.9" target-x="27.85" target-y="11.49"></path><path d="M 37.14 17.81 L 52.20 32.86 C 52.20 32.86 56.11 28.22 54.87 26.90 C 53.62 25.59 40.32 12.29 40.32 12.29 C 40.32 12.29 39.16 16.85 37.14 17.81 Z" fill="#fcfcfc" fill-opacity="0.1972" fill-rule="nonzero" group-id="18,24" node-id="423" stroke="none" target-height="20.57" target-width="18.970001" target-x="37.14" target-y="12.29"></path><path d="M 38.83 10.79 L 27.15 22.47 C 26.96 22.66 26.86 22.91 26.86 23.17 C 26.86 23.43 26.96 23.69 27.15 23.87 L 42.24 38.96 C 42.42 39.14 42.69 39.25 42.96 39.25 C 43.23 39.24 43.48 39.12 43.66 38.93 C 43.47 39.14 43.19 39.25 42.90 39.24 C 42.61 39.23 42.34 39.09 42.17 38.87 C 42.20 38.90 42.24 38.96 42.31 39.02 C 42.58 39.30 43.08 39.63 43.90 39.63 C 45.76 39.63 48.73 37.85 51.47 35.11 C 54.62 31.96 57.19 27.75 55.39 25.95 C 55.33 25.89 55.27 25.84 55.22 25.80 C 55.45 25.98 55.59 26.25 55.60 26.54 C 55.61 26.83 55.50 27.11 55.28 27.31 C 55.48 27.13 55.60 26.87 55.60 26.60 C 55.61 26.33 55.51 26.07 55.32 25.88 L 40.23 10.79 C 40.04 10.61 39.79 10.50 39.53 10.50 C 39.27 10.50 39.02 10.61 38.83 10.79 Z M 53.95 25.85 L 53.94 25.85 C 53.73 26.05 53.61 26.33 53.62 26.62 C 53.63 26.91 53.77 27.18 54.00 27.36 C 54.01 27.37 54.01 27.37 54.02 27.37 C 54.01 27.37 54.00 27.36 53.99 27.35 C 53.99 27.35 53.98 27.34 53.98 27.34 C 54.23 27.77 53.41 30.39 50.07 33.72 C 46.74 37.05 44.13 37.87 43.70 37.62 C 43.70 37.62 43.70 37.63 43.71 37.63 C 43.73 37.65 43.73 37.66 43.73 37.66 C 43.73 37.66 43.72 37.64 43.72 37.64 C 43.54 37.41 43.27 37.27 42.98 37.26 C 42.69 37.25 42.41 37.37 42.21 37.58 C 42.40 37.38 42.65 37.27 42.92 37.27 C 43.19 37.26 43.44 37.37 43.63 37.56 L 28.55 22.47 C 28.73 22.66 28.84 22.91 28.84 23.17 C 28.84 23.43 28.73 23.69 28.55 23.87 L 40.23 12.19 C 40.04 12.38 39.79 12.48 39.53 12.48 C 39.27 12.48 39.02 12.38 38.83 12.19 L 53.92 27.28 C 53.73 27.09 53.62 26.82 53.63 26.55 C 53.63 26.29 53.75 26.03 53.95 25.85 Z" fill="#6e6e96" fill-opacity="0.34" fill-rule="nonzero" group-id="18" node-id="426" stroke="none" target-height="29.130001" target-width="30.329998" target-x="26.86" target-y="10.5"></path><path d="M 75.58 10.76 C 76.55 11.72 76.55 13.29 75.58 14.26 L 64.71 25.13 C 63.75 26.09 62.17 26.09 61.21 25.13 L 52.16 16.08 C 51.20 15.12 51.20 13.55 52.16 12.59 L 63.04 1.71 C 64.00 0.75 65.57 0.75 66.53 1.71 L 75.58 10.76 Z" fill="#a3d9ff" fill-opacity="0.34" fill-rule="nonzero" group-id="18" node-id="428" stroke="none" target-height="25.34" target-width="25.350002" target-x="51.2" target-y="0.75"></path><path d="M 39.74 11.71 L 40.02 12.33 L 39.97 13.28 L 39.39 14.78 L 38.03 16.93 L 35.82 19.47 L 33.29 21.67 L 31.13 23.04 L 29.64 23.61 L 28.68 23.67 L 28.06 23.39 L 27.78 22.77 L 27.84 21.81 L 28.41 20.32 L 29.77 18.16 L 31.98 15.62 L 34.52 13.42 L 36.67 12.06 L 38.17 11.48 L 39.12 11.43 L 39.74 11.71 Z" fill="#c9d2e3" fill-opacity="0.34" fill-rule="nonzero" group-id="18,25" node-id="432" stroke="none" target-height="12.24" target-width="12.24" target-x="27.78" target-y="11.43"></path><path d="M 28.76 22.69 C 28.77 22.69 28.77 22.70 28.77 22.70 C 28.52 22.27 29.35 19.66 32.68 16.32 C 36.01 12.99 38.62 12.17 39.05 12.42 C 39.05 12.41 39.05 12.41 39.04 12.41 C 39.04 12.40 39.03 12.40 39.03 12.39 C 39.28 12.83 38.45 15.44 35.12 18.77 C 31.79 22.10 29.18 22.93 28.75 22.68 C 28.75 22.68 28.76 22.68 28.76 22.69 Z M 36.52 20.17 C 39.27 17.42 41.04 14.45 41.04 12.60 C 41.04 11.78 40.72 11.28 40.44 11.01 C 40.17 10.74 39.67 10.41 38.85 10.41 C 36.99 10.41 34.02 12.18 31.28 14.92 C 29.65 16.56 28.32 18.32 27.53 19.87 C 26.32 22.28 26.77 23.49 27.36 24.09 C 29.17 25.89 33.38 23.32 36.52 20.17 Z" fill="#6e6e96" fill-opacity="0.34" fill-rule="nonzero" group-id="18" node-id="435" stroke="none" target-height="15.48" target-width="14.720001" target-x="26.32" target-y="10.41"></path><path d="M 57.64 21.56 L 53.62 25.58 L 52.22 24.19 L 56.25 20.17 Z" fill="#6e6e96" fill-opacity="0.34" fill-rule="nonzero" group-id="18,26" node-id="439" stroke="none" target-height="5.41" target-width="5.419998" target-x="52.22" target-y="20.17"></path><path d="M 41.94 37.26 L 37.34 41.87 L 35.94 40.47 L 40.54 35.86 Z" fill="#6e6e96" fill-opacity="0.34" fill-rule="nonzero" group-id="18,27" node-id="444" stroke="none" target-height="6.0099983" target-width="6" target-x="35.94" target-y="35.86"></path><path d="M 64.06 0.77 L 64.06 24.71 L 70.10 18.67 L 70.10 4.97 Z" fill="#fcfcfc" fill-opacity="0.11220001" fill-rule="nonzero" group-id="18,28" node-id="449" stroke="none" target-height="23.939999" target-width="6.040001" target-x="64.06" target-y="0.77"></path><path d="M 29.68 34.66 L 29.68 58.61 L 35.72 52.57 L 35.72 38.87 Z" fill="#fcfcfc" fill-opacity="0.11220001" fill-rule="nonzero" group-id="18,29" node-id="454" stroke="none" target-height="23.95" target-width="6.040001" target-x="29.68" target-y="34.66"></path><path d="M 76.28 10.06 C 76.28 10.06 67.23 1.01 67.23 1.01 C 66.58 0.36 65.71 0.00 64.79 0.00 C 63.86 0.00 62.99 0.36 62.34 1.01 L 51.46 11.89 C 50.81 12.54 50.45 13.41 50.45 14.33 C 50.45 15.26 50.81 16.13 51.46 16.78 C 51.46 16.78 60.52 25.83 60.52 25.83 C 61.87 27.18 64.06 27.18 65.41 25.83 C 65.41 25.83 76.29 14.95 76.29 14.95 C 77.63 13.61 77.63 11.41 76.28 10.06 Z M 60.97 13.78 L 64.45 10.30 L 67.25 13.10 L 63.77 16.58 L 60.97 13.78 Z M 62.37 17.98 L 58.91 21.43 C 58.02 20.54 57.02 19.54 56.11 18.63 L 59.57 15.17 L 62.37 17.98 Z M 59.57 12.38 L 56.67 9.48 C 57.80 8.35 59.03 7.11 60.15 6.00 L 63.05 8.90 L 59.57 12.38 Z M 65.84 8.90 L 69.08 5.66 C 70.00 6.57 70.98 7.56 71.89 8.46 L 68.65 11.70 L 65.84 8.90 Z M 63.74 2.41 C 64.01 2.13 64.39 1.97 64.79 1.97 C 65.18 1.97 65.56 2.12 65.83 2.41 C 65.83 2.41 66.60 3.17 67.69 4.26 L 64.45 7.50 L 61.55 4.60 C 62.83 3.31 63.74 2.41 63.74 2.41 Z M 52.43 14.33 C 52.43 13.94 52.58 13.56 52.86 13.29 C 52.86 13.29 53.87 12.28 55.27 10.87 L 58.17 13.77 L 54.71 17.23 C 53.63 16.15 52.86 15.38 52.86 15.38 C 52.58 15.10 52.43 14.73 52.43 14.33 Z M 64.01 24.43 C 63.43 25.01 62.49 25.01 61.91 24.43 C 61.91 24.43 61.26 23.79 60.31 22.83 L 63.77 19.37 L 66.42 22.02 C 65.02 23.43 64.01 24.43 64.01 24.43 Z M 67.81 20.63 L 65.17 17.98 L 68.65 14.50 L 71.29 17.15 C 70.18 18.26 68.95 19.50 67.81 20.63 Z M 74.89 13.56 C 74.89 13.56 73.98 14.46 72.69 15.75 L 70.05 13.10 L 73.29 9.86 C 74.24 10.81 74.89 11.46 74.89 11.46 C 75.46 12.04 75.46 12.98 74.89 13.56 Z" fill="#6e6e96" fill-opacity="0.34" fill-rule="nonzero" group-id="18" node-id="457" stroke="none" target-height="27.18" target-width="27.179996" target-x="50.45" target-y="0"></path><path d="M 41.35 43.54 L 32.30 34.48 C 30.95 33.14 28.75 33.14 27.40 34.48 L 16.53 45.36 C 15.18 46.71 15.18 48.91 16.53 50.26 L 25.58 59.31 C 26.23 59.96 27.10 60.32 28.02 60.32 C 28.95 60.32 29.82 59.96 30.47 59.31 L 41.35 48.43 C 42.00 47.78 42.36 46.91 42.36 45.98 C 42.36 45.06 42.00 44.19 41.35 43.54 Z M 21.16 52.10 L 24.93 48.33 L 27.73 51.14 L 23.97 54.90 C 23.07 54.00 22.08 53.01 21.16 52.10 Z M 26.32 46.94 L 29.68 43.58 L 32.48 46.38 L 29.12 49.74 L 26.32 46.94 Z M 31.08 42.18 L 34.14 39.12 C 35.05 40.03 36.04 41.02 36.94 41.92 L 33.88 44.98 L 31.08 42.18 Z M 28.80 35.88 C 29.38 35.31 30.32 35.31 30.90 35.88 C 30.90 35.88 31.66 36.65 32.74 37.73 L 29.68 40.79 L 26.79 37.90 C 27.98 36.70 28.80 35.88 28.80 35.88 Z M 25.39 39.29 L 28.28 42.18 L 24.93 45.54 L 22.04 42.65 L 25.39 39.29 Z M 17.93 46.76 C 17.93 46.76 19.08 45.60 20.64 44.05 L 23.53 46.94 L 19.77 50.70 C 18.69 49.62 17.92 48.86 17.92 48.86 C 17.35 48.28 17.35 47.34 17.93 46.76 Z M 29.07 57.91 C 28.80 58.19 28.42 58.34 28.02 58.34 C 27.63 58.34 27.25 58.19 26.98 57.91 C 26.98 57.91 26.32 57.25 25.36 56.30 L 29.12 52.53 L 31.79 55.19 C 30.23 56.75 29.07 57.91 29.07 57.91 Z M 33.18 53.80 L 30.52 51.14 L 33.88 47.78 L 36.54 50.44 C 35.48 51.51 34.29 52.69 33.18 53.80 Z M 39.95 47.03 C 39.95 47.03 39.13 47.85 37.94 49.05 L 35.28 46.38 L 38.34 43.32 C 39.30 44.28 39.95 44.94 39.95 44.94 C 40.23 45.21 40.38 45.59 40.38 45.98 C 40.38 46.38 40.23 46.75 39.95 47.03 Z" fill="#6e6e96" fill-opacity="0.34" fill-rule="nonzero" group-id="18" node-id="459" stroke="none" target-height="27.18" target-width="27.18" target-x="15.18" target-y="33.14"></path><path d="M 33.69 21.64 L 57.79 45.74 L 55.74 46.38 L 52.83 43.99 L 50.73 43.99 L 45.13 38.39 L 43.01 38.39 L 28.86 24.24 Z" fill="#6e6e96" fill-opacity="0.051000003" fill-rule="nonzero" group-id="18,30" node-id="463" stroke="none" target-height="24.740002" target-width="28.93" target-x="28.86" target-y="21.64"></path><path d="M 40.71 44.30 L 40.63 44.23 C 40.61 44.26 40.59 44.28 40.57 44.31 L 29.69 55.18 C 28.73 56.15 27.16 56.15 26.20 55.18 L 17.22 46.20 C 16.33 47.17 16.35 48.69 17.28 49.62 L 26.34 58.68 C 27.30 59.64 28.87 59.64 29.83 58.68 L 40.71 47.80 C 41.67 46.84 41.67 45.27 40.71 44.30 Z" fill="#6e6e96" fill-opacity="0.085" fill-rule="nonzero" group-id="18,31" node-id="468" stroke="none" target-height="15.41" target-width="25.339998" target-x="16.33" target-y="44.23"></path><path d="M 75.73 10.67 L 75.65 10.60 C 75.63 10.62 75.61 10.65 75.59 10.67 L 64.71 21.55 C 63.75 22.51 62.17 22.51 61.21 21.55 L 52.23 12.57 C 51.34 13.54 51.37 15.05 52.30 15.99 L 61.35 25.04 C 62.32 26.00 63.89 26.00 64.85 25.04 L 75.73 14.16 C 76.69 13.20 76.69 11.63 75.73 10.67 Z" fill="#6e6e96" fill-opacity="0.085" fill-rule="nonzero" group-id="18,32" node-id="473" stroke="none" target-height="15.4" target-width="25.350002" target-x="51.34" target-y="10.6"></path><path d="M 183.19 100.69 C 183.19 131.41 155.61 156.30 121.58 156.30 C 87.54 156.30 59.96 131.41 59.96 100.69 C 59.96 69.98 87.54 45.08 121.58 45.08 C 155.61 45.08 183.19 69.98 183.19 100.69 Z" fill="#ffffff" fill-opacity="0.15" fill-rule="nonzero" group-id="19" node-id="479" stroke="none" target-height="111.22" target-width="123.23" target-x="59.96" target-y="45.08"></path></svg>